<svg xmlns="http://www.w3.org/2000/svg" width="13.373" height="13.373" viewBox="0 0 13.373 13.373">
  <g id="Group_5683" data-name="Group 5683" transform="translate(0)">
    <path id="Path_60659" data-name="Path 60659" d="M6.686,13.373a6.686,6.686,0,1,1,6.686-6.686A6.694,6.694,0,0,1,6.686,13.373Zm0-12.537a5.851,5.851,0,1,0,5.851,5.851A5.857,5.857,0,0,0,6.686.836Z" fill="#fff"/>
    <path id="Path_60660" data-name="Path 60660" d="M114.166,117.509a3.343,3.343,0,1,1,2.389-5.682l-.6.584a2.507,2.507,0,1,0,0,3.509l.6.585A3.317,3.317,0,0,1,114.166,117.509Z" transform="translate(-107.48 -107.48)" fill="#fff"/>
  </g>
</svg>
