<svg xmlns="http://www.w3.org/2000/svg" width="20.799" height="20.333" viewBox="0 0 20.799 20.333"><defs><style>.a{fill:#404040;}</style></defs><g transform="translate(0 -1.374)"><path class="a" d="M14.569,5.9V2.39a1.019,1.019,0,0,0-1.016-1.016H1.016A1.019,1.019,0,0,0,0,2.39V16.756a1.035,1.035,0,0,0,.542.9l7.725,4a.513.513,0,0,0,.745-.457V17.3h4.54a1.019,1.019,0,0,0,1.016-1.016V10.725H12.536v4.032a.5.5,0,0,1-.508.508h-3V6.643a1.035,1.035,0,0,0-.542-.9L3.93,3.407h8.1a.5.5,0,0,1,.508.508v2h2.033Z" transform="translate(0)"/><path class="a" d="M68.076,16.663l3.3,3.3a1.014,1.014,0,0,1,0,1.474l-3.3,3.3a1.034,1.034,0,0,1-1.491.017,1.08,1.08,0,0,1,.034-1.491L68.11,21.8H62.333a1,1,0,0,1-.762-.339,1.15,1.15,0,0,1,.254-1.745,1.086,1.086,0,0,1,.508-.136H68.11S66.636,18.1,66.619,18.1a1.025,1.025,0,1,1,1.457-1.44Z" transform="translate(-50.898 -12.426)"/></g></svg>