<svg xmlns="http://www.w3.org/2000/svg" width="12.534" height="22.771" viewBox="0 0 12.534 22.771"><defs><style>.a{fill:#404040;}</style></defs><g transform="translate(-24.161 -4.691)"><rect class="a" width="5.798" height="1.358" transform="translate(27.531 23.525)"/><path class="a" d="M33.329,22.824V17.23h2.713a.657.657,0,0,0,.56-.314.692.692,0,0,0,.027-.638L31.017,5.053a.657.657,0,0,0-1.175,0L24.23,16.279a.657.657,0,0,0,.588.951h2.713v5.594Z"/><path class="a" d="M42.779,85.387v-1.22h-5.8v1.22a.658.658,0,0,0,.657.657h4.484A.658.658,0,0,0,42.779,85.387Z" transform="translate(-9.45 -58.583)"/></g></svg>