<svg xmlns="http://www.w3.org/2000/svg" xmlns:xlink="http://www.w3.org/1999/xlink" width="230.354" height="230.031" viewBox="0 0 230.354 230.031">
  <defs>
    <linearGradient id="linear-gradient" x1="-51.549" y1="13.285" x2="-52.157" y2="13.285" gradientUnits="objectBoundingBox">
      <stop offset="0" stop-color="#d06b28"/>
      <stop offset="0.281" stop-color="#d27c28"/>
      <stop offset="0.779" stop-color="#b66027"/>
      <stop offset="1" stop-color="#d37d28"/>
    </linearGradient>
    <linearGradient id="linear-gradient-2" x1="-60.878" y1="192.488" x2="-61.847" y2="192.488" gradientUnits="objectBoundingBox">
      <stop offset="0" stop-color="#fbb772"/>
      <stop offset="0.281" stop-color="#fccd9b"/>
      <stop offset="0.779" stop-color="#e18326"/>
      <stop offset="1" stop-color="#fdcd9c"/>
    </linearGradient>
    <linearGradient id="linear-gradient-3" x1="-51.584" y1="13.285" x2="-52.192" y2="13.285" xlink:href="#linear-gradient"/>
    <linearGradient id="linear-gradient-4" x1="-60.919" y1="192.49" x2="-61.888" y2="192.49" xlink:href="#linear-gradient-2"/>
    <linearGradient id="linear-gradient-5" x1="-58.388" y1="70.457" x2="-59.318" y2="70.457" xlink:href="#linear-gradient-2"/>
    <linearGradient id="linear-gradient-6" x1="-43.479" y1="14.063" x2="-44.17" y2="14.063" xlink:href="#linear-gradient-2"/>
    <linearGradient id="linear-gradient-7" x1="-24.426" y1="11.61" x2="-24.632" y2="11.61" xlink:href="#linear-gradient"/>
    <linearGradient id="linear-gradient-8" x1="-77.966" y1="116.433" x2="-78.853" y2="116.433" xlink:href="#linear-gradient-2"/>
    <linearGradient id="linear-gradient-9" x1="-24.497" y1="11.614" x2="-24.703" y2="11.614" xlink:href="#linear-gradient"/>
    <linearGradient id="linear-gradient-10" x1="-78.183" y1="117.926" x2="-79.07" y2="117.926" xlink:href="#linear-gradient-2"/>
    <linearGradient id="linear-gradient-11" x1="-61.15" y1="55.403" x2="-61.85" y2="55.403" xlink:href="#linear-gradient-2"/>
    <linearGradient id="linear-gradient-12" x1="-24.145" y1="12.279" x2="-24.418" y2="12.279" xlink:href="#linear-gradient-2"/>
    <linearGradient id="linear-gradient-13" x1="-22.967" y1="11.288" x2="-23.154" y2="11.288" xlink:href="#linear-gradient"/>
    <linearGradient id="linear-gradient-14" x1="-80.136" y1="108.993" x2="-81.015" y2="108.993" xlink:href="#linear-gradient-2"/>
    <linearGradient id="linear-gradient-15" x1="-23.039" y1="11.295" x2="-23.226" y2="11.295" xlink:href="#linear-gradient"/>
    <linearGradient id="linear-gradient-16" x1="-80.379" y1="107.755" x2="-81.258" y2="107.755" xlink:href="#linear-gradient-2"/>
    <linearGradient id="linear-gradient-17" x1="-61.203" y1="52.959" x2="-61.878" y2="52.959" xlink:href="#linear-gradient-2"/>
    <linearGradient id="linear-gradient-18" x1="-23.048" y1="11.911" x2="-23.299" y2="11.911" xlink:href="#linear-gradient-2"/>
    <linearGradient id="linear-gradient-19" x1="-50.621" y1="69.53" x2="-50.621" y2="69.713" xlink:href="#linear-gradient-2"/>
    <linearGradient id="linear-gradient-20" x1="-150.404" y1="92.352" x2="-150.985" y2="92.352" xlink:href="#linear-gradient-2"/>
    <linearGradient id="linear-gradient-21" x1="-201.387" y1="116.629" x2="-201.877" y2="116.629" xlink:href="#linear-gradient-2"/>
    <linearGradient id="linear-gradient-22" x1="-150.521" y1="92.221" x2="-151.104" y2="92.221" xlink:href="#linear-gradient-2"/>
    <linearGradient id="linear-gradient-23" x1="-201.546" y1="115.079" x2="-202.036" y2="115.079" xlink:href="#linear-gradient-2"/>
    <linearGradient id="linear-gradient-24" x1="-201.227" y1="117.057" x2="-201.719" y2="117.057" xlink:href="#linear-gradient-2"/>
    <linearGradient id="linear-gradient-25" x1="-13.34" y1="183.781" x2="-13.34" y2="184.094" xlink:href="#linear-gradient-2"/>
    <linearGradient id="linear-gradient-26" x1="-56.503" y1="134.575" x2="-57.25" y2="134.575" xlink:href="#linear-gradient-2"/>
    <linearGradient id="linear-gradient-27" x1="-78.463" y1="169.556" x2="-79.113" y2="169.556" xlink:href="#linear-gradient-2"/>
    <linearGradient id="linear-gradient-28" x1="-56.535" y1="134.73" x2="-57.282" y2="134.73" xlink:href="#linear-gradient-2"/>
    <linearGradient id="linear-gradient-29" x1="-79.236" y1="169.75" x2="-79.892" y2="169.75" xlink:href="#linear-gradient-2"/>
    <linearGradient id="linear-gradient-30" x1="-79.196" y1="169.347" x2="-79.853" y2="169.347" xlink:href="#linear-gradient-2"/>
  </defs>
  <g id="Group_5681" data-name="Group 5681" transform="translate(-14650.837 4451)">
    <path id="Path_66261" data-name="Path 66261" d="M272.721,455.366c0,.055-71.316.166-118.786.166S47.9,455.476,47.9,455.366c0-.055,58.51-.166,106.035-.166S272.721,455.255,272.721,455.366Z" transform="translate(14602.937 -4676.5)" fill="#263238"/>
    <g id="Plant" transform="translate(14652.663 -4309.187)">
      <g id="Group_5263" data-name="Group 5263">
        <g id="Group_5242" data-name="Group 5242">
          <g id="Group_5241" data-name="Group 5241">
            <g id="Group_5240" data-name="Group 5240">
              <path id="Path_66262" data-name="Path 66262" d="M90.725,361.455c9.494-6.624,11.647-18.933,11.26-29.972-.055-1.822.166-3.809-.718-5.409s-2.925-2.7-4.581-1.932c-1.38.662-1.987,2.263-2.7,3.533a10.713,10.713,0,0,1-4.305,4.14,4.088,4.088,0,0,1-3.809.331c-1.6-.883-1.766-3.091-1.766-4.913,0-3.422.055-6.845.055-10.267A18.23,18.23,0,0,0,83.6,311.5a5.612,5.612,0,0,0-3.588-3.864,3.379,3.379,0,0,0-4.25,2.318,15.684,15.684,0,0,0-.055,2.263,1.931,1.931,0,0,1-1.1,1.822,2.206,2.206,0,0,1-1.987-.828,24.19,24.19,0,0,1-4.361-6.624,35.624,35.624,0,0,0-4.085-6.845,9.64,9.64,0,0,0-6.734-3.753,5.908,5.908,0,0,0-6.072,4.029c-.662,2.594.828,5.189,2.484,7.286a40.86,40.86,0,0,0,8.5,8.114,3.256,3.256,0,0,1,1.435,1.546c.386,1.214-.773,2.429-1.987,2.815a22.371,22.371,0,0,1-4.305.5c-1.435.166-2.981.773-3.533,2.153-.773,1.877.828,3.864,2.374,5.133a34.944,34.944,0,0,0,10.377,6.017,12.55,12.55,0,0,1,3.864,1.877,3.341,3.341,0,0,1,1.1,3.864,3.45,3.45,0,0,1-3.753,1.435,25.312,25.312,0,0,1-4.029-1.546c-2.539-.938-5.8-.773-7.4,1.38a5.794,5.794,0,0,0-.607,5.133,13.154,13.154,0,0,0,2.76,4.526,35.312,35.312,0,0,0,15.069,10.6c5.741,2.208,11.205,2.76,17,.607" transform="translate(-51.208 -295.979)" fill="#1a2f5e"/>
            </g>
          </g>
        </g>
        <g id="Group_5246" data-name="Group 5246" transform="translate(2.7 1.667)">
          <g id="Group_5245" data-name="Group 5245">
            <g id="Group_5244" data-name="Group 5244">
              <g id="Group_5243" data-name="Group 5243">
                <path id="Path_66263" data-name="Path 66263" d="M56.1,299l.166.166c.11.11.331.276.552.5.5.442,1.214,1.049,2.1,1.877a67.873,67.873,0,0,1,7.01,7.562c1.38,1.711,2.76,3.643,4.25,5.741s3.036,4.361,4.637,6.789a81.154,81.154,0,0,1,4.526,7.838c.718,1.38,1.325,2.87,1.987,4.361s1.27,3.036,1.932,4.526a159.339,159.339,0,0,1,6.513,17.663,78.2,78.2,0,0,1,3.036,15.069,61.167,61.167,0,0,1,.166,10.377c-.11,1.214-.166,2.153-.276,2.815a6.784,6.784,0,0,1-.11.718v.276a.87.87,0,0,1,.055-.221c.055-.166.055-.442.11-.718q.166-.994.331-2.815a59.079,59.079,0,0,0-.055-10.377,82.583,82.583,0,0,0-2.981-15.124,159.337,159.337,0,0,0-6.513-17.663c-.662-1.546-1.325-3.036-1.932-4.526-.662-1.49-1.27-2.981-1.987-4.361a81.333,81.333,0,0,0-4.581-7.838c-1.546-2.429-3.146-4.692-4.637-6.789s-2.925-4.029-4.305-5.685a65.537,65.537,0,0,0-7.121-7.507c-.883-.828-1.6-1.435-2.1-1.822-.221-.221-.442-.331-.552-.442A1.973,1.973,0,0,0,56.1,299Z" transform="translate(-56.1 -299)" fill="#d6d6d6"/>
              </g>
            </g>
          </g>
        </g>
        <g id="Group_5250" data-name="Group 5250" transform="translate(26.081 11.769)">
          <g id="Group_5249" data-name="Group 5249">
            <g id="Group_5248" data-name="Group 5248">
              <g id="Group_5247" data-name="Group 5247">
                <path id="Path_66264" data-name="Path 66264" d="M98.481,337.447a3.244,3.244,0,0,0,.166-.773c.11-.5.221-1.27.331-2.153.276-1.822.552-4.361.828-7.176s.607-5.3.883-7.121c.166-.883.276-1.656.331-2.153a3.98,3.98,0,0,0,.11-.773,5.513,5.513,0,0,0-.221.773c-.11.5-.276,1.214-.442,2.153-.331,1.822-.718,4.361-.994,7.121s-.552,5.244-.718,7.176c-.11.883-.166,1.6-.221,2.153C98.481,337.171,98.426,337.447,98.481,337.447Z" transform="translate(-98.459 -317.3)" fill="#fff"/>
              </g>
            </g>
          </g>
        </g>
        <g id="Group_5254" data-name="Group 5254" transform="translate(2.535 27.5)">
          <g id="Group_5253" data-name="Group 5253">
            <g id="Group_5252" data-name="Group 5252">
              <g id="Group_5251" data-name="Group 5251">
                <path id="Path_66265" data-name="Path 66265" d="M55.8,345.8s.331.055.938.11,1.49.11,2.539.276c2.153.221,5.133.662,8.39,1.27s6.182,1.325,8.28,1.877q1.573.414,2.484.662c.607.166.938.221.938.221a6.06,6.06,0,0,0-.883-.331A23.321,23.321,0,0,0,76,349.112c-2.1-.607-5.023-1.325-8.28-1.987a81.431,81.431,0,0,0-8.445-1.159c-1.1-.11-1.987-.11-2.594-.166Z" transform="translate(-55.8 -345.8)" fill="#fff"/>
              </g>
            </g>
          </g>
        </g>
        <g id="Group_5258" data-name="Group 5258" transform="translate(36.371 28.052)">
          <g id="Group_5257" data-name="Group 5257">
            <g id="Group_5256" data-name="Group 5256">
              <g id="Group_5255" data-name="Group 5255">
                <path id="Path_66266" data-name="Path 66266" d="M117.1,376.883a2.871,2.871,0,0,1,.166-.276c.11-.221.221-.5.386-.828.331-.718.828-1.822,1.38-3.2,1.159-2.7,2.594-6.458,4.14-10.653s2.981-8,4.029-10.708c.552-1.325.938-2.429,1.27-3.2a4.544,4.544,0,0,0,.331-.883,1.78,1.78,0,0,1,.11-.331,2.865,2.865,0,0,1-.166.276c-.11.221-.221.5-.386.828-.331.718-.828,1.822-1.38,3.2-1.159,2.7-2.594,6.458-4.14,10.653s-2.981,8-4.029,10.708c-.552,1.325-.938,2.429-1.27,3.2a4.545,4.545,0,0,0-.331.883A.854.854,0,0,0,117.1,376.883Z" transform="translate(-117.1 -346.8)" fill="#fff"/>
              </g>
            </g>
          </g>
        </g>
        <g id="Group_5262" data-name="Group 5262" transform="translate(5.018 48.033)">
          <g id="Group_5261" data-name="Group 5261">
            <g id="Group_5260" data-name="Group 5260">
              <g id="Group_5259" data-name="Group 5259">
                <path id="Path_66267" data-name="Path 66267" d="M60.3,383a1.782,1.782,0,0,0,.331.11,4.541,4.541,0,0,1,.883.331c.828.276,1.987.662,3.367,1.1,2.815.938,6.734,2.208,11.04,3.7,4.305,1.435,8.224,2.76,11.095,3.588,1.435.442,2.594.773,3.367.994.386.11.662.166.938.221a1.545,1.545,0,0,0,.331.055,1.781,1.781,0,0,0-.331-.11,4.543,4.543,0,0,1-.883-.331c-.828-.276-1.987-.662-3.367-1.1-2.815-.938-6.734-2.208-11.04-3.7-4.305-1.435-8.224-2.76-11.095-3.588-1.435-.442-2.594-.773-3.367-.994-.386-.11-.662-.166-.938-.221A1.545,1.545,0,0,0,60.3,383Z" transform="translate(-60.3 -383)" fill="#fff"/>
              </g>
            </g>
          </g>
        </g>
      </g>
    </g>
    <path id="Path_66304" data-name="Path 66304" d="M135.746,170.3l-1.1,2.042-2.042,1.1,2.042,1.159,1.1,2.042,1.159-2.042,2.042-1.159-2.042-1.1Z" transform="translate(14554.99 -4549.858)" fill="#1a2f5e"/>
    <path id="Path_66306" data-name="Path 66306" d="M125.632,148.9l-.718,1.27-1.214.662,1.214.718.718,1.27.662-1.27,1.27-.718-1.27-.662Z" transform="translate(14558.977 -4540.271)" fill="#1a2f5e"/>
    <path id="Path_66303" data-name="Path 66303" d="M309.746,74.6l-1.1,2.042-2.042,1.1,2.042,1.159,1.1,2.042,1.159-2.042,2.042-1.159-2.042-1.1Z" transform="translate(14503.034 -4508.983)" fill="#1a2f5e"/>
    <path id="Path_66305" data-name="Path 66305" d="M325.532,90.4l-.662,1.214-1.27.718,1.27.662.662,1.27.718-1.27,1.27-.662-1.27-.718Z" transform="translate(14495.418 -4516.062)" fill="#1a2f5e"/>
    <g id="Group_5602" data-name="Group 5602" transform="translate(14095.008 -4677)">
      <g id="Background_2" transform="translate(593.991 226)">
        <g id="Group_5226" data-name="Group 5226" transform="translate(101.151 39.928)">
          <g id="Group_5223" data-name="Group 5223">
            <path id="Path_66249" data-name="Path 66249" d="M319.671,151.086a24.867,24.867,0,1,1-5.078-34.719A24.827,24.827,0,0,1,319.671,151.086Z" transform="translate(-274.912 -111.397)" fill="#dfdfdf"/>
            <path id="Path_66250" data-name="Path 66250" d="M319.714,152.347a18.949,18.949,0,1,1-3.864-26.495A18.975,18.975,0,0,1,319.714,152.347Z" transform="translate(-279.702 -116.191)" fill="#b5b5b5"/>
            <g id="Group_5222" data-name="Group 5222" transform="translate(9.205 5.19)">
              <path id="Path_66251" data-name="Path 66251" d="M322.727,151.269c-.11-.055.331-.773.938-2.1a20.551,20.551,0,0,0,1.711-5.961,18.067,18.067,0,0,0,.055-4.25,19.026,19.026,0,0,0-1.1-4.747,13.2,13.2,0,0,0-1.1-2.374,27.276,27.276,0,0,0-1.49-2.318,22.2,22.2,0,0,0-1.877-2.1,25.523,25.523,0,0,0-2.263-1.877,23.485,23.485,0,0,0-2.539-1.49,17.6,17.6,0,0,0-2.649-1.049,15.287,15.287,0,0,0-2.65-.607,14.309,14.309,0,0,0-2.649-.221,22.553,22.553,0,0,0-4.857.552,19.508,19.508,0,0,0-9,5.133c-1.049,1.049-1.546,1.711-1.656,1.656a5.041,5.041,0,0,1,1.27-1.987,17.981,17.981,0,0,1,4.913-4.2,20.312,20.312,0,0,1,4.14-1.766,21.287,21.287,0,0,1,5.133-.773,24.073,24.073,0,0,1,2.815.166,17.738,17.738,0,0,1,2.87.607,20.424,20.424,0,0,1,2.87,1.1,19.327,19.327,0,0,1,2.7,1.6,21.158,21.158,0,0,1,2.429,1.987,16.172,16.172,0,0,1,2.042,2.318c.607.828,1.1,1.656,1.6,2.484a21.854,21.854,0,0,1,1.159,2.594,19.377,19.377,0,0,1,1.049,5.078,20.083,20.083,0,0,1-.221,4.526,17.492,17.492,0,0,1-2.263,6.072C323.389,150.717,322.837,151.324,322.727,151.269Z" transform="translate(-291.589 -120.8)" fill="#e0e0e0"/>
            </g>
          </g>
          <g id="Group_5225" data-name="Group 5225" transform="translate(12.854 13.691)">
            <g id="Group_5224" data-name="Group 5224">
              <path id="Path_66252" data-name="Path 66252" d="M305.155,157.672l-1.932,2.65-2.373-1.711,1.877-2.594a13.823,13.823,0,0,1-4.526-6.237l3.422-1.932a11.548,11.548,0,0,0,3.422,5.023l2.87-3.974c-2.208-2.539-4.471-5.575-2.042-9,1.822-2.539,5.244-3.367,9.328-1.049l1.932-2.65,2.373,1.711-1.877,2.594a13.358,13.358,0,0,1,3.809,4.968l-3.312,2.042a11.367,11.367,0,0,0-2.76-3.864l-2.926,4.029c2.208,2.539,4.471,5.52,2.042,8.887C312.607,159.052,309.24,159.935,305.155,157.672Zm5.244-12.309L312.827,142c-1.49-.607-2.484-.276-3.036.5C309.24,143.321,309.626,144.259,310.4,145.363Zm-.055,8.721c.607-.828.221-1.766-.5-2.87l-2.374,3.312C308.8,155.078,309.792,154.857,310.344,154.084Z" transform="translate(-298.2 -136.2)" fill="#e0e0e0"/>
            </g>
          </g>
        </g>
        <g id="Group_5231" data-name="Group 5231" transform="translate(0 91.848)">
          <g id="Group_5228" data-name="Group 5228">
            <path id="Path_66253" data-name="Path 66253" d="M148.646,229.934a28.641,28.641,0,1,1-32.456-24.177A28.631,28.631,0,0,1,148.646,229.934Z" transform="translate(-91.66 -205.458)" fill="#dfdfdf"/>
            <path id="Path_66254" data-name="Path 66254" d="M147.438,236.453a21.838,21.838,0,1,1-24.729-18.436A21.881,21.881,0,0,1,147.438,236.453Z" transform="translate(-97.186 -210.984)" fill="#b5b5b5"/>
            <g id="Group_5227" data-name="Group 5227" transform="translate(6.435 6.04)">
              <path id="Path_66255" data-name="Path 66255" d="M147.025,235.167a13.752,13.752,0,0,1-.938-2.539,22.919,22.919,0,0,0-3.477-6.237,25.428,25.428,0,0,0-3.422-3.533,21.467,21.467,0,0,0-4.747-2.925,22.006,22.006,0,0,0-2.87-1.049,27.891,27.891,0,0,0-3.091-.662,21.1,21.1,0,0,0-3.257-.166,17.838,17.838,0,0,0-3.367.331,31.236,31.236,0,0,0-3.257.828,18.116,18.116,0,0,0-2.981,1.325,27.288,27.288,0,0,0-2.7,1.656,19.992,19.992,0,0,0-2.318,1.987,23.029,23.029,0,0,0-3.477,4.416,22.272,22.272,0,0,0-1.987,4.471,22.512,22.512,0,0,0-1.1,7.065,17.464,17.464,0,0,1,0,2.7c-.11,0-.442-.883-.607-2.649a20.864,20.864,0,0,1,.607-7.452,24.685,24.685,0,0,1,1.932-4.857,22.217,22.217,0,0,1,3.588-4.8,18.28,18.28,0,0,1,2.429-2.153,16.9,16.9,0,0,1,2.87-1.822,21.568,21.568,0,0,1,3.257-1.435,25.6,25.6,0,0,1,3.533-.938,20.326,20.326,0,0,1,3.643-.331,24.783,24.783,0,0,1,3.533.221,20.719,20.719,0,0,1,3.312.773,24.719,24.719,0,0,1,3.036,1.159,22.044,22.044,0,0,1,8.5,7.176,20.958,20.958,0,0,1,3.146,6.789A7.448,7.448,0,0,1,147.025,235.167Z" transform="translate(-103.318 -216.4)" fill="#e0e0e0"/>
            </g>
          </g>
          <g id="Group_5230" data-name="Group 5230" transform="translate(18.924 13.326)">
            <g id="Group_5229" data-name="Group 5229">
              <path id="Path_66256" data-name="Path 66256" d="M139.94,257.42l.607,3.753-3.367.552-.607-3.643a16.412,16.412,0,0,1-8.776-1.325l1.214-4.416a13.347,13.347,0,0,0,6.9,1.325l-.883-5.63c-3.864-.331-8.224-.883-9-5.685-.552-3.533,1.546-7.01,6.734-8.5l-.607-3.7,3.367-.552.607,3.643a15.029,15.029,0,0,1,7.121.938l-.994,4.416a13.821,13.821,0,0,0-5.409-.938l.938,5.685c3.864.276,8.169.883,8.887,5.575C147.171,252.507,145.129,255.929,139.94,257.42Zm-5.685-14.3-.773-4.747c-1.711.662-2.263,1.766-2.1,2.87C131.55,242.406,132.654,242.9,134.255,243.123Zm7.065,7.176c-.166-1.159-1.27-1.656-2.76-1.932l.718,4.637C140.879,252.341,141.486,251.4,141.32,250.3Z" transform="translate(-125.945 -229.6)" fill="#e0e0e0"/>
            </g>
          </g>
        </g>
        <g id="Group_5236" data-name="Group 5236" transform="translate(86.953)">
          <g id="Group_5233" data-name="Group 5233">
            <path id="Path_66257" data-name="Path 66257" d="M277.291,55.807a14.177,14.177,0,1,1-11.371-16.5A14.161,14.161,0,0,1,277.291,55.807Z" transform="translate(-249.19 -39.06)" fill="#dfdfdf"/>
            <path id="Path_66258" data-name="Path 66258" d="M276.712,57.977a10.8,10.8,0,1,1-8.666-12.53A10.784,10.784,0,0,1,276.712,57.977Z" transform="translate(-251.923 -41.837)" fill="#b5b5b5"/>
            <g id="Group_5232" data-name="Group 5232" transform="translate(3.505 3.113)">
              <path id="Path_66259" data-name="Path 66259" d="M276.88,57.4c-.055,0,0-.5-.055-1.325a10.638,10.638,0,0,0-.607-3.477,11.344,11.344,0,0,0-1.049-2.208,10.438,10.438,0,0,0-1.766-2.153,6.615,6.615,0,0,0-1.159-.938c-.442-.276-.883-.552-1.325-.773-.5-.221-.994-.442-1.49-.607a13.579,13.579,0,0,0-1.6-.386c-.552-.055-1.1-.11-1.656-.11a14.581,14.581,0,0,0-1.6.11,7.043,7.043,0,0,0-1.546.386,10.274,10.274,0,0,0-1.38.552,11.953,11.953,0,0,0-2.318,1.49,9.852,9.852,0,0,0-1.656,1.766,11.656,11.656,0,0,0-1.656,3.146,10.631,10.631,0,0,1-.442,1.27,3.057,3.057,0,0,1,.11-1.325,9.37,9.37,0,0,1,1.49-3.367,10.629,10.629,0,0,1,1.656-1.932,9.9,9.9,0,0,1,2.429-1.656,9.311,9.311,0,0,1,1.49-.607,7.284,7.284,0,0,1,1.656-.386,8.986,8.986,0,0,1,1.711-.166c.607,0,1.214.055,1.766.11a10.336,10.336,0,0,1,1.766.442,8.149,8.149,0,0,1,1.6.662,12.477,12.477,0,0,1,1.435.883,7.551,7.551,0,0,1,1.214,1.049,9.876,9.876,0,0,1,1.822,2.318,12.121,12.121,0,0,1,.994,2.374,10.408,10.408,0,0,1,.386,3.643A2.93,2.93,0,0,1,276.88,57.4Z" transform="translate(-255.54 -44.7)" fill="#e0e0e0"/>
            </g>
          </g>
          <g id="Group_5235" data-name="Group 5235" transform="translate(8.616 6.756)">
            <g id="Group_5234" data-name="Group 5234">
              <path id="Path_66260" data-name="Path 66260" d="M270.375,65.265l-.331,1.877-1.656-.276.331-1.822A8.264,8.264,0,0,1,264.8,63l1.27-1.877a6.544,6.544,0,0,0,3.036,1.711l.5-2.76c-1.766-.773-3.7-1.711-3.312-4.085.276-1.766,1.822-3.036,4.471-2.87l.331-1.822,1.656.276-.331,1.822a7.621,7.621,0,0,1,3.2,1.6l-1.159,1.877a7.135,7.135,0,0,0-2.373-1.27l-.5,2.815c1.766.718,3.7,1.711,3.257,4.029C274.515,64.106,273.024,65.431,270.375,65.265Zm-.442-7.562.386-2.374a1.388,1.388,0,0,0-1.435.994C268.829,56.93,269.271,57.317,269.933,57.7Zm2.208,4.471c.11-.607-.331-.994-.994-1.325l-.386,2.263C271.589,63.057,272.031,62.671,272.141,62.174Z" transform="translate(-264.8 -51.3)" fill="#e0e0e0"/>
            </g>
          </g>
        </g>
      </g>
      <g id="Group_5601" data-name="Group 5601">
        <g id="Group_5596" data-name="Group 5596" transform="translate(2 -4.659)">
          <g id="Group_5270" data-name="Group 5270" transform="translate(622 250.659)">
            <g id="Group_5269" data-name="Group 5269">
              <g id="Group_5268" data-name="Group 5268">
                <g id="Group_5265" data-name="Group 5265">
                  <g id="Group_5264" data-name="Group 5264">
                    <path id="Path_66268" data-name="Path 66268" d="M225.272,258.907,164,258.631a13.4,13.4,0,0,1-13.3-13.413L151.362,91.6a13.369,13.369,0,0,1,13.413-13.3l61.27.276a13.4,13.4,0,0,1,13.3,13.413L238.685,245.6A13.3,13.3,0,0,1,225.272,258.907Z" transform="translate(-150.7 -78.3)" fill="#263238"/>
                  </g>
                </g>
                <g id="Group_5267" data-name="Group 5267" transform="translate(4.14 5.354)">
                  <g id="Group_5266" data-name="Group 5266">
                    <path id="Path_66269" data-name="Path 66269" d="M229.35,88.276l-11.868-.055a2.911,2.911,0,0,0-2.87,2.981v2.153a2.911,2.911,0,0,1-2.87,2.981l-23.128-.11a2.96,2.96,0,0,1-2.87-3.036V91.036A2.96,2.96,0,0,0,182.873,88H168.191a9.329,9.329,0,0,0-9.384,9.328L158.2,247.246a9.364,9.364,0,0,0,9.328,9.384l61.159.276a9.329,9.329,0,0,0,9.384-9.328l.607-149.917A9.436,9.436,0,0,0,229.35,88.276Z" transform="translate(-158.34 -88)" fill="#fff"/>
                  </g>
                </g>
              </g>
            </g>
          </g>
          <g id="Group_5285" data-name="Group 5285" transform="translate(674.865 359.842)">
            <g id="Group_5282" data-name="Group 5282">
              <path id="Path_66276" data-name="Path 66276" d="M246.713,311.305c0,1.1-.828,2.042-2.539,2.042a4.264,4.264,0,0,1-2.374-.662l.552-1.1a3.054,3.054,0,0,0,1.766.552c.718,0,1.159-.276,1.159-.828,0-.5-.331-.828-1.435-.828h-1.6l.331-3.477h3.753v1.159h-2.594l-.11,1.159h.5C246,309.429,246.713,310.2,246.713,311.305Z" transform="translate(-241.8 -306.945)" fill="#263238"/>
              <path id="Path_66277" data-name="Path 66277" d="M251.8,310.1c0-2.042,1.1-3.2,2.65-3.2s2.649,1.159,2.649,3.2-1.1,3.2-2.649,3.2S251.8,312.144,251.8,310.1Zm3.809,0c0-1.38-.5-1.987-1.214-1.987s-1.214.607-1.214,1.987.5,1.987,1.214,1.987S255.609,311.537,255.609,310.1Z" transform="translate(-246.28 -306.9)" fill="#263238"/>
            </g>
            <g id="Group_5283" data-name="Group 5283" transform="translate(12.42 0.221)">
              <path id="Path_66278" data-name="Path 66278" d="M266.342,308.57a1.178,1.178,0,0,1-1.27,1.325,1.528,1.528,0,0,1-.718-.166l.221-.442c.11.11.276.11.5.11.442,0,.662-.221.718-.718a.83.83,0,0,1-.607.221.818.818,0,0,1-.883-.773.876.876,0,0,1,.938-.828C265.956,307.3,266.342,307.742,266.342,308.57Zm-.607-.442a.394.394,0,0,0-.442-.386.427.427,0,0,0-.442.386.394.394,0,0,0,.442.386A.427.427,0,0,0,265.735,308.128Z" transform="translate(-264.3 -307.3)" fill="#263238"/>
              <path id="Path_66279" data-name="Path 66279" d="M270.542,308.57a1.178,1.178,0,0,1-1.27,1.325,1.528,1.528,0,0,1-.718-.166l.221-.442c.11.11.276.11.5.11.442,0,.662-.221.718-.718a.83.83,0,0,1-.607.221.818.818,0,0,1-.883-.773.876.876,0,0,1,.938-.828C270.1,307.3,270.542,307.742,270.542,308.57Zm-.662-.442a.394.394,0,0,0-.442-.386.427.427,0,0,0-.442.386.446.446,0,0,0,.883,0Z" transform="translate(-266.182 -307.3)" fill="#263238"/>
            </g>
            <g id="Group_5284" data-name="Group 5284" transform="translate(12.309 3.698)">
              <rect id="Rectangle_349" data-name="Rectangle 349" width="4.416" height="0.552" fill="#263238"/>
            </g>
          </g>
          <g id="Group_5286" data-name="Group 5286" transform="translate(643.789 361.773)">
            <rect id="Rectangle_350" data-name="Rectangle 350" width="22.742" height="0.718" fill="#263238"/>
          </g>
          <g id="Group_5287" data-name="Group 5287" transform="translate(643.789 364.037)">
            <rect id="Rectangle_351" data-name="Rectangle 351" width="13.799" height="0.718" fill="#263238"/>
          </g>
        </g>
        <g id="Group_5281" data-name="Group 5281" transform="translate(634.686 284.352)">
          <g id="Group_5278" data-name="Group 5278">
            <g id="Group_5277" data-name="Group 5277">
              <g id="Group_5276" data-name="Group 5276">
                <path id="Path_66274" data-name="Path 66274" d="M195.423,196.1c-.055,0,0-.552-.221-1.435a5.862,5.862,0,0,0-2.153-3.2,5.713,5.713,0,0,0-2.429-1.049,5.785,5.785,0,0,0-3.036.276,5.181,5.181,0,0,0-1.435.773,6.325,6.325,0,0,0-1.214,1.214,5.857,5.857,0,0,0,0,6.845,5.072,5.072,0,0,0,1.214,1.214,5.181,5.181,0,0,0,1.435.773,5.785,5.785,0,0,0,3.036.276,6.488,6.488,0,0,0,2.429-1.049,5.862,5.862,0,0,0,2.153-3.2,7.035,7.035,0,0,0,.221-1.435,5.584,5.584,0,0,1-.11,1.435,5.945,5.945,0,0,1-2.153,3.312,6.74,6.74,0,0,1-2.539,1.159,6.165,6.165,0,0,1-3.146-.221,4.682,4.682,0,0,1-1.546-.828,4.632,4.632,0,0,1-1.27-1.27A5.816,5.816,0,0,1,183.5,196.1a6.185,6.185,0,0,1,1.159-3.588,5.542,5.542,0,0,1,1.27-1.27,8.33,8.33,0,0,1,1.546-.828,5.651,5.651,0,0,1,3.146-.221,5.4,5.4,0,0,1,2.539,1.159,5.945,5.945,0,0,1,2.153,3.312A3.585,3.585,0,0,1,195.423,196.1Z" transform="translate(-183.5 -190.066)" fill="#263238"/>
              </g>
            </g>
          </g>
          <g id="Group_5280" data-name="Group 5280" transform="translate(3.367 3.827)">
            <g id="Group_5279" data-name="Group 5279">
              <path id="Path_66275" data-name="Path 66275" d="M189.6,198.38c0-.828.442-1.38,1.159-1.38a1.4,1.4,0,1,1-1.159,1.38Zm1.932,0c0-.662-.331-1.049-.773-1.049-.5,0-.773.386-.773,1.049s.331,1.049.773,1.049C191.256,199.429,191.532,199.042,191.532,198.38Zm2.318-1.325h.442l-3.477,5.078h-.442Zm-1.1,3.753a1.177,1.177,0,1,1,2.318,0c0,.828-.442,1.38-1.159,1.38S192.746,201.637,192.746,200.809Zm1.932,0c0-.662-.331-1.049-.773-1.049-.5,0-.773.386-.773,1.049s.331,1.049.773,1.049S194.678,201.416,194.678,200.809Z" transform="translate(-189.6 -197)" fill="#263238"/>
            </g>
          </g>
        </g>
        <g id="Group_5600" data-name="Group 5600" transform="translate(-8518 3846)">
          <rect id="Rectangle_374" data-name="Rectangle 374" width="54" height="20" rx="10" transform="translate(9159 -3470)" fill="#aa8f51"/>
          <text id="Buy" transform="translate(9186 -3457)" fill="#fff" font-size="8" font-family="ArialMT, Arial"><tspan x="-6.893" y="0">Buy</tspan></text>
        </g>
        <g id="Group_1387" data-name="Group 1387" transform="translate(655 292.053)" opacity="0.64">
          <g id="Group_1378" data-name="Group 1378" transform="translate(17.168 5.231)">
            <path id="Path_59548" data-name="Path 59548" d="M221.726,261.776l3-.171L222.8,224.5l-3,.128Z" transform="translate(-218.987 -218.117)" fill="url(#linear-gradient)"/>
            <path id="Path_59549" data-name="Path 59549" d="M222.828,229.182l4.023-.171-.128-2.311-4.023.214Z" transform="translate(-222.358 -219.375)" fill="url(#linear-gradient-2)"/>
            <path id="Path_59550" data-name="Path 59550" d="M221.326,269.376l3-.128L222.4,232.1l-3,.171Z" transform="translate(-218.416 -222.464)" fill="url(#linear-gradient-3)"/>
            <path id="Path_59551" data-name="Path 59551" d="M222.428,236.482l4.023-.171L226.323,234l-4.023.214Z" transform="translate(-221.786 -223.551)" fill="url(#linear-gradient-4)"/>
            <g id="Group_1377" data-name="Group 1377" transform="translate(1.149 12.778)">
              <rect id="Rectangle_3" data-name="Rectangle 3" width="32.227" height="2.996" transform="matrix(-0.051, -0.999, 0.999, -0.051, 1.66, 32.339)" fill="#b36227"/>
            </g>
            <path id="Path_59552" data-name="Path 59552" d="M225.069,209.591c1.113-.043,2.011.128,2.054.428l.3,6.163-4.023.214-.3-6.163C223.1,209.934,223.956,209.634,225.069,209.591Z" transform="translate(-223.1 -209.585)" fill="url(#linear-gradient-5)"/>
            <path id="Path_59553" data-name="Path 59553" d="M222.023,241.3l1.8,34.494c0,.3-.856.6-1.969.642s-2.011-.128-2.054-.428L218,241.514Z" transform="translate(-217.315 -227.727)" fill="url(#linear-gradient-6)"/>
          </g>
          <g id="Group_1380" data-name="Group 1380" transform="translate(7.268 4.987)">
            <path id="Path_59554" data-name="Path 59554" d="M228.684,259.149l2.825-.942L219.867,222.9l-2.867.942Z" transform="translate(-214.675 -216.957)" fill="url(#linear-gradient-7)"/>
            <path id="Path_59555" data-name="Path 59555" d="M241.427,228.167l3.809-1.284-.728-2.183-3.809,1.284Z" transform="translate(-238.546 -217.987)" fill="url(#linear-gradient-8)"/>
            <path id="Path_59556" data-name="Path 59556" d="M226.284,266.449l2.825-.942L217.467,230.2l-2.867.942Z" transform="translate(-211.248 -221.133)" fill="url(#linear-gradient-9)"/>
            <path id="Path_59557" data-name="Path 59557" d="M239.128,235.124l3.809-1.241-.728-2.183-3.809,1.241Z" transform="translate(-235.262 -221.991)" fill="url(#linear-gradient-10)"/>
            <g id="Group_1379" data-name="Group 1379" transform="translate(4.33 12.037)">
              <rect id="Rectangle_4" data-name="Rectangle 4" width="32.226" height="2.996" transform="matrix(-0.314, -0.949, 0.949, -0.314, 10.122, 31.536)" fill="#b36227"/>
            </g>
            <path id="Path_59558" data-name="Path 59558" d="M244.626,209.308c1.07-.342,1.969-.385,2.1-.128l1.926,5.863-3.809,1.284-1.926-5.863C242.786,210.164,243.556,209.65,244.626,209.308Z" transform="translate(-242.9 -209.014)" fill="url(#linear-gradient-11)"/>
            <path id="Path_59559" data-name="Path 59559" d="M216.237,238.6l10.87,32.783c.086.3-.685.813-1.755,1.156s-1.969.385-2.1.128l-10.87-32.783Z" transform="translate(-208.305 -225.938)" fill="url(#linear-gradient-12)"/>
          </g>
          <g id="Group_1382" data-name="Group 1382" transform="translate(0 5.305)">
            <path id="Path_59560" data-name="Path 59560" d="M243.024,259.321l2.782-1.07L232.582,223.5l-2.782,1.07Z" transform="translate(-227.183 -217.618)" fill="url(#linear-gradient-13)"/>
            <path id="Path_59561" data-name="Path 59561" d="M257.613,228.752l3.766-1.412-.813-2.14-3.766,1.412Z" transform="translate(-254.311 -218.591)" fill="url(#linear-gradient-14)"/>
            <path id="Path_59562" data-name="Path 59562" d="M240.324,266.421l2.782-1.07L229.882,230.6l-2.782,1.07Z" transform="translate(-223.327 -221.68)" fill="url(#linear-gradient-15)"/>
            <path id="Path_59563" data-name="Path 59563" d="M255.013,235.595l3.766-1.455-.813-2.14-3.766,1.412Z" transform="translate(-250.598 -222.481)" fill="url(#linear-gradient-16)"/>
            <g id="Group_1381" data-name="Group 1381" transform="translate(4.877 11.845)">
              <rect id="Rectangle_5" data-name="Rectangle 5" width="32.227" height="2.996" transform="translate(11.456 31.187) rotate(-110.824)" fill="#b36227"/>
            </g>
            <path id="Path_59564" data-name="Path 59564" d="M261.118,210.118c1.027-.385,1.969-.471,2.054-.214l2.183,5.778-3.766,1.412-2.183-5.778C259.321,211.059,260.091,210.5,261.118,210.118Z" transform="translate(-259.4 -209.757)" fill="url(#linear-gradient-17)"/>
            <path id="Path_59565" data-name="Path 59565" d="M228.491,238.9l12.283,32.312c.128.3-.642.813-1.669,1.241-1.027.385-1.969.471-2.054.214l-12.283-32.312Z" transform="translate(-220.01 -226.428)" fill="url(#linear-gradient-18)"/>
          </g>
          <g id="Group_1384" data-name="Group 1384" transform="translate(1.059 0)">
            <path id="Path_59566" data-name="Path 59566" d="M252.661,202.87l7.147-3.937a.472.472,0,0,0,.171-.642h0a.472.472,0,0,0-.642-.171l-7.147,3.937a.472.472,0,0,0-.171.642h0A.483.483,0,0,0,252.661,202.87Z" transform="translate(-251.959 -197.761)" fill="url(#linear-gradient-19)"/>
            <g id="Group_1383" data-name="Group 1383" transform="translate(0.772)">
              <path id="Path_59567" data-name="Path 59567" d="M257.888,201.529h0a.777.777,0,0,0,.3-1.07l-1.155-2.1a.777.777,0,0,0-1.07-.3h0a.777.777,0,0,0-.3,1.07l1.155,2.1A.777.777,0,0,0,257.888,201.529Z" transform="translate(-252.522 -197.704)" fill="url(#linear-gradient-20)"/>
              <path id="Path_59568" data-name="Path 59568" d="M260.733,203.1h0a.5.5,0,0,0,.214-.685l-1.027-1.883a.5.5,0,0,0-.685-.214h0a.5.5,0,0,0-.214.685l1.027,1.883A.5.5,0,0,0,260.733,203.1Z" transform="translate(-256.694 -199.021)" fill="url(#linear-gradient-21)"/>
              <path id="Path_59569" data-name="Path 59569" d="M263.188,204.529h0a.777.777,0,0,0,.3-1.07l-1.156-2.1a.777.777,0,0,0-1.07-.3h0a.777.777,0,0,0-.3,1.07l1.155,2.1A.816.816,0,0,0,263.188,204.529Z" transform="translate(-260.09 -199.42)" fill="url(#linear-gradient-22)"/>
              <path id="Path_59570" data-name="Path 59570" d="M266.033,206h0a.5.5,0,0,0,.214-.685l-1.027-1.883a.5.5,0,0,0-.685-.214h0a.5.5,0,0,0-.214.685l1.027,1.883A.443.443,0,0,0,266.033,206Z" transform="translate(-264.262 -200.68)" fill="url(#linear-gradient-23)"/>
              <path id="Path_59571" data-name="Path 59571" d="M255.433,200.2h0a.5.5,0,0,0,.214-.685l-1.027-1.883a.5.5,0,0,0-.685-.214h0a.5.5,0,0,0-.214.685l1.027,1.883A.5.5,0,0,0,255.433,200.2Z" transform="translate(-249.126 -197.362)" fill="url(#linear-gradient-24)"/>
            </g>
          </g>
          <g id="Group_1386" data-name="Group 1386" transform="translate(10.698 1.327)">
            <path id="Path_59572" data-name="Path 59572" d="M228.031,203.288l7.917,1.926a.456.456,0,0,0,.556-.342h0a.456.456,0,0,0-.342-.556l-7.917-1.926a.456.456,0,0,0-.556.342h0A.5.5,0,0,0,228.031,203.288Z" transform="translate(-227.681 -201.56)" fill="url(#linear-gradient-25)"/>
            <g id="Group_1385" data-name="Group 1385" transform="translate(1.156)">
              <path id="Path_59573" data-name="Path 59573" d="M233.177,205.73h0a.788.788,0,0,0,.942-.6l.556-2.311a.788.788,0,0,0-.6-.942h0a.788.788,0,0,0-.942.6l-.556,2.311A.788.788,0,0,0,233.177,205.73Z" transform="translate(-229.103 -201.263)" fill="url(#linear-gradient-26)"/>
              <path id="Path_59574" data-name="Path 59574" d="M236.556,205.109h0a.467.467,0,0,0,.6-.385l.514-2.054a.467.467,0,0,0-.385-.6h0a.467.467,0,0,0-.6.385l-.514,2.054A.452.452,0,0,0,236.556,205.109Z" transform="translate(-233.637 -201.369)" fill="url(#linear-gradient-27)"/>
              <path id="Path_59575" data-name="Path 59575" d="M239.077,204.33h0a.788.788,0,0,0,.942-.6l.556-2.311a.788.788,0,0,0-.6-.942h0a.788.788,0,0,0-.942.6l-.556,2.311A.81.81,0,0,0,239.077,204.33Z" transform="translate(-237.529 -200.462)" fill="url(#linear-gradient-28)"/>
              <path id="Path_59576" data-name="Path 59576" d="M242.442,203.709h0a.467.467,0,0,0,.6-.385l.514-2.054a.467.467,0,0,0-.385-.6h0a.467.467,0,0,0-.6.385l-.514,2.054A.515.515,0,0,0,242.442,203.709Z" transform="translate(-242.048 -200.569)" fill="url(#linear-gradient-29)"/>
              <path id="Path_59577" data-name="Path 59577" d="M230.74,206.609h0a.467.467,0,0,0,.6-.385l.514-2.054a.467.467,0,0,0-.385-.6h0a.467.467,0,0,0-.6.385l-.514,2.054A.555.555,0,0,0,230.74,206.609Z" transform="translate(-225.34 -202.227)" fill="url(#linear-gradient-30)"/>
            </g>
          </g>
        </g>
      </g>
    </g>
    <g id="Character" transform="translate(14787.676 -4382.867)">
      <g id="Group_5594" data-name="Group 5594">
        <g id="Group_5362" data-name="Group 5362" transform="translate(68.782 124.192)">
          <g id="Group_5331" data-name="Group 5331">
            <g id="Group_5330" data-name="Group 5330">
              <g id="Group_5329" data-name="Group 5329">
                <g id="Group_5328" data-name="Group 5328">
                  <path id="Path_66307" data-name="Path 66307" d="M406.385,400.174l-4.085-3.2,5.906-7.672,6.017,4.637-.331.5c-1.546,2.208-7.893,11.095-9.384,12.144C402.8,407.846,406.385,400.174,406.385,400.174Z" transform="translate(-402.3 -389.3)" fill="#e8505b"/>
                </g>
              </g>
            </g>
          </g>
          <g id="Group_5336" data-name="Group 5336" transform="translate(1.655 4.525)">
            <g id="Group_5335" data-name="Group 5335">
              <g id="Group_5334" data-name="Group 5334">
                <g id="Group_5333" data-name="Group 5333">
                  <g id="Group_5332" data-name="Group 5332">
                    <path id="Path_66308" data-name="Path 66308" d="M405.3,410.195c-.055-.055,2.1-2.925,4.857-6.458s5.078-6.293,5.133-6.237-2.1,2.925-4.857,6.458C407.673,407.435,405.41,410.25,405.3,410.195Z" transform="translate(-405.298 -397.499)" fill="#263238"/>
                  </g>
                </g>
              </g>
            </g>
          </g>
          <g id="Group_5341" data-name="Group 5341" transform="translate(3.588 11.481)">
            <g id="Group_5340" data-name="Group 5340">
              <g id="Group_5339" data-name="Group 5339">
                <g id="Group_5338" data-name="Group 5338">
                  <g id="Group_5337" data-name="Group 5337">
                    <path id="Path_66309" data-name="Path 66309" d="M410.014,410.321c0,.11-.276.11-.607.11a1.125,1.125,0,0,1-.607-.11c0-.11.276-.221.607-.221S410.014,410.21,410.014,410.321Z" transform="translate(-408.8 -410.1)" fill="#263238"/>
                  </g>
                </g>
              </g>
            </g>
          </g>
          <g id="Group_5346" data-name="Group 5346" transform="translate(3.422 12.067)">
            <g id="Group_5345" data-name="Group 5345">
              <g id="Group_5344" data-name="Group 5344">
                <g id="Group_5343" data-name="Group 5343">
                  <g id="Group_5342" data-name="Group 5342">
                    <path id="Path_66310" data-name="Path 66310" d="M409.77,411.458c0,.11-.331.055-.662.055-.331-.055-.607-.11-.607-.221s.276-.166.662-.11A.99.99,0,0,1,409.77,411.458Z" transform="translate(-408.5 -411.161)" fill="#263238"/>
                  </g>
                </g>
              </g>
            </g>
          </g>
          <g id="Group_5351" data-name="Group 5351" transform="translate(9.328 3.569)">
            <g id="Group_5350" data-name="Group 5350">
              <g id="Group_5349" data-name="Group 5349">
                <g id="Group_5348" data-name="Group 5348">
                  <g id="Group_5347" data-name="Group 5347">
                    <path id="Path_66311" data-name="Path 66311" d="M419.7,398.986c-.055,0-.166-.166-.276-.442a3.5,3.5,0,0,1-.221-1.27,2.009,2.009,0,0,1,.442-1.214c.221-.276.442-.331.442-.276.055.055-.11.166-.276.442a2.614,2.614,0,0,0-.331,1.1,6.346,6.346,0,0,0,.11,1.159C419.752,398.765,419.752,398.931,419.7,398.986Z" transform="translate(-419.2 -395.765)" fill="#263238"/>
                  </g>
                </g>
              </g>
            </g>
          </g>
          <g id="Group_5356" data-name="Group 5356" transform="translate(4.019 10.528)">
            <g id="Group_5355" data-name="Group 5355">
              <g id="Group_5354" data-name="Group 5354">
                <g id="Group_5353" data-name="Group 5353">
                  <g id="Group_5352" data-name="Group 5352">
                    <path id="Path_66312" data-name="Path 66312" d="M409.591,408.94c-.055-.11.11-.221.331-.386.221-.11.442-.221.5-.166s-.055.276-.331.442C409.867,409,409.591,409.05,409.591,408.94Z" transform="translate(-409.581 -408.373)" fill="#263238"/>
                  </g>
                </g>
              </g>
            </g>
          </g>
          <g id="Group_5361" data-name="Group 5361" transform="translate(3.684 9.759)">
            <g id="Group_5360" data-name="Group 5360">
              <g id="Group_5359" data-name="Group 5359">
                <g id="Group_5358" data-name="Group 5358">
                  <g id="Group_5357" data-name="Group 5357">
                    <path id="Path_66313" data-name="Path 66313" d="M408.988,407.874c-.055-.055.055-.331.221-.552.221-.221.442-.386.5-.331s-.055.276-.221.552S409.1,407.985,408.988,407.874Z" transform="translate(-408.974 -406.981)" fill="#263238"/>
                  </g>
                </g>
              </g>
            </g>
          </g>
        </g>
        <g id="Group_5371" data-name="Group 5371" transform="translate(35.287 69.38)">
          <g id="Group_5364" data-name="Group 5364">
            <g id="Group_5363" data-name="Group 5363">
              <path id="Path_66314" data-name="Path 66314" d="M352.262,290s-12.144,32.18-10.488,38.2,34.333,29.917,34.333,29.917l8.887-12.751s-25.5-20.2-25.557-21.306,10.1-27.875,10.1-27.875Z" transform="translate(-341.619 -290)" fill="#263238"/>
            </g>
          </g>
          <g id="Group_5367" data-name="Group 5367" transform="translate(6.343 21.141)">
            <g id="Group_5366" data-name="Group 5366">
              <g id="Group_5365" data-name="Group 5365">
                <path id="Path_66315" data-name="Path 66315" d="M380.7,365.448a.171.171,0,0,1-.11-.055,3.384,3.384,0,0,1-.331-.221c-.276-.221-.718-.5-1.214-.828-1.049-.718-2.539-1.822-4.416-3.146-3.7-2.7-8.666-6.569-13.965-11.15-1.325-1.159-2.594-2.263-3.864-3.367-.607-.552-1.214-1.1-1.822-1.6a6.723,6.723,0,0,1-1.546-1.766,3.239,3.239,0,0,1-.221-2.263c.166-.718.331-1.38.5-2.042.331-1.325.718-2.484.994-3.588.607-2.153,1.159-3.919,1.49-5.189.166-.607.276-1.049.386-1.435a3.513,3.513,0,0,1,.11-.386.193.193,0,0,1,.055-.11v.11c0,.11-.055.221-.055.386-.055.331-.166.828-.331,1.435-.331,1.214-.828,3.036-1.435,5.244-.331,1.1-.662,2.318-.994,3.588-.166.662-.331,1.325-.5,2.042a2.908,2.908,0,0,0,.221,2.042,7.223,7.223,0,0,0,1.49,1.711c.607.552,1.214,1.049,1.822,1.6,1.214,1.1,2.539,2.208,3.864,3.312,5.3,4.526,10.267,8.445,13.91,11.205,1.822,1.38,3.312,2.484,4.361,3.257.5.386.883.662,1.159.883.11.11.221.166.276.221C380.648,365.448,380.7,365.448,380.7,365.448Z" transform="translate(-353.11 -328.3)" fill="#455a64"/>
              </g>
            </g>
          </g>
          <g id="Group_5370" data-name="Group 5370" transform="translate(30.954 51.995)">
            <g id="Group_5369" data-name="Group 5369">
              <g id="Group_5368" data-name="Group 5368">
                <path id="Path_66316" data-name="Path 66316" d="M397.7,394.411c-.055-.055,1.6-2.374,3.753-5.189s3.919-5.078,3.974-5.023-1.6,2.374-3.753,5.189A63.362,63.362,0,0,1,397.7,394.411Z" transform="translate(-397.698 -384.198)" fill="#455a64"/>
              </g>
            </g>
          </g>
        </g>
        <g id="Group_5373" data-name="Group 5373" transform="translate(61.696 8.166)">
          <g id="Group_5372" data-name="Group 5372">
            <path id="Path_66317" data-name="Path 66317" d="M395.114,179.1c1.1,2.153,1.656,4.029,3.809,5.133.994.5,2.153.773,2.7,1.711.662.994.331,2.484,1.159,3.312,1.159,1.27,3.533.221,4.857,1.38,1.159.994.773,3.146,2.042,4.029.718.5,1.656.386,2.484.718,1.325.5,1.932,2.042,2.153,3.477a5.67,5.67,0,0,1-.442,3.312,3.4,3.4,0,0,1-2.594,1.987c-1.49.166-3.2-.883-4.416,0a6.837,6.837,0,0,0-.994,1.214,3.978,3.978,0,0,1-3.2,1.435,3.891,3.891,0,0,1-3.036-1.822c-.828-1.38-.773-3.312-1.987-4.416a6.81,6.81,0,0,0-2.318-1.049,2.871,2.871,0,0,1-1.877-1.6,7.208,7.208,0,0,0-1.159-1.987c-.607-.938-1.435.221-2.263-.276-.828-.442-.5-1.325-.552-2.263" transform="translate(-389.463 -179.1)" fill="#263238"/>
          </g>
        </g>
        <g id="Group_5377" data-name="Group 5377" transform="translate(3.725 35.93)">
          <g id="Group_5376" data-name="Group 5376">
            <g id="Group_5375" data-name="Group 5375">
              <g id="Group_5374" data-name="Group 5374">
                <path id="Path_66318" data-name="Path 66318" d="M333.764,232.877,323.277,229.4s-4.637,13.358-6.072,13.468c-7.838.718-16.283-1.877-19.209-2.925-.276-.331-.662-.718-1.049-1.214a4.382,4.382,0,0,1-.718-1.435,6.88,6.88,0,0,1-.442-1.932c0-.607-.718-.938-1.049-.5s-.442,2.1.331,3.919-1.987.386-2.981-.11-4.2-1.932-4.637-1.766c-.607.276-.386.938.607,1.435,1.049.5,3.974,2.153,3.7,2.65s-5.409-2.153-5.409-2.153-.994-.718-1.38-.166c-.662,1.049,4.968,3.477,5.52,3.7.386.166.055.718-.331.552s-5.023-2.76-5.685-1.711c-.5.828,4.637,2.042,5.3,3.091s-3.809-1.325-4.25-.5c-.166.276-.276.552,2.484,1.546a46.55,46.55,0,0,0,6.127,1.546v.055s27.544,12.309,33.505.442C334.1,234.865,333.764,232.877,333.764,232.877Z" transform="translate(-284.439 -229.4)" fill="#e5baab"/>
              </g>
            </g>
          </g>
        </g>
        <g id="Group_5402" data-name="Group 5402" transform="translate(36.546 28.368)">
          <g id="Group_5381" data-name="Group 5381">
            <g id="Group_5380" data-name="Group 5380">
              <g id="Group_5379" data-name="Group 5379">
                <g id="Group_5378" data-name="Group 5378">
                  <path id="Path_66319" data-name="Path 66319" d="M370.781,215.7h0l4.581.055,3.643,10.432-2.981,11.923c-.883,3.477,3.036,10.488,2.981,14.3l-25.667,4.14-.552-17.167v-.552l-8.887-4.416,2.925-7.176c4.526-10.543,12.364-11.205,12.364-11.205Z" transform="translate(-343.9 -215.7)" fill="#e8505b"/>
                </g>
              </g>
            </g>
          </g>
          <g id="Group_5385" data-name="Group 5385" opacity="0.2">
            <g id="Group_5384" data-name="Group 5384">
              <g id="Group_5383" data-name="Group 5383">
                <g id="Group_5382" data-name="Group 5382">
                  <path id="Path_66320" data-name="Path 66320" d="M370.781,215.7h0l4.581.055,3.643,10.432-2.981,11.923c-.883,3.477,3.036,10.488,2.981,14.3l-25.667,4.14-.552-17.167v-.552l-8.887-4.416,2.925-7.176c4.526-10.543,12.364-11.205,12.364-11.205Z" transform="translate(-343.9 -215.7)" fill="#fff"/>
                </g>
              </g>
            </g>
          </g>
          <g id="Group_5388" data-name="Group 5388" transform="translate(13.248 0.055)">
            <g id="Group_5387" data-name="Group 5387">
              <g id="Group_5386" data-name="Group 5386">
                <path id="Path_66321" data-name="Path 66321" d="M386.281,215.855a.427.427,0,0,0-.166.055c-.11.055-.276.055-.442.11a11.242,11.242,0,0,1-1.766.166l.055-.11c.5.773,1.049,1.711,1.766,2.815l.11.166-.221-.055a11.17,11.17,0,0,0-3.091-.11l.11-.11a16,16,0,0,0,.5,3.477l.055.221-.221-.055a13.76,13.76,0,0,1-3.367-1.214l.221-.11c-.221,1.049-.442,2.1-.662,3.2l-.055.221-.166-.166c-.442-.331-.883-.773-1.325-1.159-.386-.442-.773-.828-1.159-1.325h.221c-.994.773-1.987,1.546-2.926,2.318l-.166.166-.055-.221c-.221-1.049-.386-2.042-.607-2.981l.166.11c-1.1.386-2.153.773-3.146,1.1l-.221.055.055-.221c.331-1.27.662-2.374.883-3.422l.055.11c-1.049-.166-1.987-.331-2.7-.442h-.11l.055-.11c.5-.718.883-1.325,1.214-1.766a3.061,3.061,0,0,1,.331-.442.683.683,0,0,1,.11-.166s0,.055-.11.166a5.089,5.089,0,0,1-.276.442c-.276.442-.662,1.049-1.159,1.766l-.055-.11c.773.11,1.656.276,2.76.442h.11v.11c-.276.994-.552,2.153-.883,3.422l-.166-.166c.994-.331,2.042-.718,3.146-1.1l.166-.055.055.166c.221.938.386,1.932.607,2.981l-.221-.11c.938-.773,1.932-1.546,2.925-2.318l.11-.11.11.11a12.125,12.125,0,0,0,1.1,1.27c.442.442.883.828,1.27,1.159l-.221.11c.221-1.1.442-2.153.662-3.2l.055-.221.166.11a13.025,13.025,0,0,0,3.257,1.214l-.166.166a16.475,16.475,0,0,1-.5-3.533v-.11h.11a9.708,9.708,0,0,1,3.146.166l-.11.166c-.662-1.1-1.214-2.1-1.711-2.87l-.055-.11h.11a12.852,12.852,0,0,0,1.766-.11A1.473,1.473,0,0,0,386.281,215.855Z" transform="translate(-367.9 -215.8)" fill="#455a64"/>
              </g>
            </g>
          </g>
          <g id="Group_5391" data-name="Group 5391" transform="translate(6.955 4.166)">
            <g id="Group_5390" data-name="Group 5390">
              <g id="Group_5389" data-name="Group 5389">
                <path id="Path_66322" data-name="Path 66322" d="M386.252,223.607a1.442,1.442,0,0,0-.552-.166,2.582,2.582,0,0,0-1.6,0l.055-.055q.166.911.5,2.153c.221.828.5,1.766.773,2.815l.055.166-.166-.055c-1.325-.386-2.87-.662-4.471-1.214l.166-.11c.166,1.6.166,3.312.276,5.189v.166h-.166a26.906,26.906,0,0,1-4.361-1.159c-.166-.055-.386-.11-.442-.055-.11.055-.166.276-.221.442-.166.386-.276.718-.442,1.1-.331.718-.607,1.49-.938,2.263l-.11.221-.166-.166c-.938-1.159-1.932-2.374-2.925-3.643l-.221-.276.221.055c-1.6,1.1-3.2,2.208-4.747,3.257l-.166.11-.055-.166c-.552-1.546-1.049-3.036-1.546-4.471l.221.055a27.537,27.537,0,0,1-5.244,2.649l-.221.055.055-.221c.331-2.374.662-4.526.883-6.4l.11.11a9.429,9.429,0,0,1-4.2.662h-.11l.055-.11q.662-1.739.994-2.65c.11-.276.221-.5.276-.662a.6.6,0,0,1,.11-.221.55.55,0,0,1-.055.221c-.055.166-.11.386-.221.718-.221.607-.552,1.546-.938,2.7l-.055-.11a10.064,10.064,0,0,0,4.14-.718l.166-.055v.166c-.221,1.877-.552,4.029-.828,6.4l-.166-.11a25.633,25.633,0,0,0,5.189-2.649l.166-.11.055.166c.5,1.435,1.049,2.926,1.546,4.416l-.221-.055c1.545-1.049,3.091-2.153,4.692-3.257l.11-.055.11.11.221.276c.994,1.27,1.987,2.484,2.925,3.643l-.276.055c.331-.773.607-1.546.938-2.263a9.2,9.2,0,0,0,.442-1.1.99.99,0,0,1,.331-.552c.055-.055.11-.055.221-.11h.166a2.389,2.389,0,0,1,.276.055,26.32,26.32,0,0,0,4.305,1.159l-.166.11c-.11-1.877-.055-3.588-.221-5.189v-.166l.166.055c1.6.552,3.146.883,4.471,1.27l-.11.11c-.221-1.049-.5-1.987-.718-2.815a14.11,14.11,0,0,1-.442-2.208v-.055h.055a3.135,3.135,0,0,1,1.656.055A.941.941,0,0,1,386.252,223.607Z" transform="translate(-356.5 -223.247)" fill="#455a64"/>
              </g>
            </g>
          </g>
          <g id="Group_5396" data-name="Group 5396" transform="translate(6.672 9.38)">
            <g id="Group_5395" data-name="Group 5395">
              <g id="Group_5394" data-name="Group 5394">
                <g id="Group_5393" data-name="Group 5393">
                  <g id="Group_5392" data-name="Group 5392">
                    <path id="Path_66323" data-name="Path 66323" d="M358.368,246.386a1.994,1.994,0,0,1-.552-.276A4.957,4.957,0,0,1,356.6,244.9a4.186,4.186,0,0,1-.607-2.429,5.473,5.473,0,0,1,.994-2.925,4.973,4.973,0,0,1,1.822-1.6l-.055.11c.221-1.6.386-2.925.552-3.864s.276-1.546.276-1.49a6.51,6.51,0,0,1-.11,1.546c-.11.938-.276,2.318-.442,3.919v.055l-.055.055a5.4,5.4,0,0,0-2.7,4.305,3.814,3.814,0,0,0,.5,2.318,3.445,3.445,0,0,0,1.1,1.214C358.147,246.276,358.368,246.386,358.368,246.386Z" transform="translate(-355.987 -232.694)" fill="#455a64"/>
                  </g>
                </g>
              </g>
            </g>
          </g>
          <g id="Group_5401" data-name="Group 5401" transform="translate(9.128 9.765)">
            <g id="Group_5400" data-name="Group 5400">
              <g id="Group_5399" data-name="Group 5399">
                <g id="Group_5398" data-name="Group 5398">
                  <g id="Group_5397" data-name="Group 5397">
                    <path id="Path_66324" data-name="Path 66324" d="M361.3,235.162c-.055.055-.331-.331-.552-.828s-.386-.938-.276-.938c.055-.055.331.331.552.828A1.843,1.843,0,0,1,361.3,235.162Z" transform="translate(-360.436 -233.39)" fill="#455a64"/>
                  </g>
                </g>
              </g>
            </g>
          </g>
        </g>
        <g id="Group_5406" data-name="Group 5406" transform="translate(50.137 5.075)">
          <g id="Group_5405" data-name="Group 5405">
            <g id="Group_5404" data-name="Group 5404">
              <g id="Group_5403" data-name="Group 5403">
                <path id="Path_66325" data-name="Path 66325" d="M381.537,196.959l.773-18.05-7.176-5.409-6.513,3.2s-.221,8.169,0,11.7,3.809,3.919,3.809,3.919-.11,2.1-.166,4.25a4.613,4.613,0,0,0,4.692,4.8h0A4.61,4.61,0,0,0,381.537,196.959Z" transform="translate(-368.522 -173.5)" fill="#e5baab"/>
              </g>
            </g>
          </g>
        </g>
        <g id="Group_5416" data-name="Group 5416" transform="translate(50.49 13.229)">
          <g id="Group_5410" data-name="Group 5410" transform="translate(0.463 0.558)">
            <g id="Group_5409" data-name="Group 5409">
              <g id="Group_5408" data-name="Group 5408">
                <g id="Group_5407" data-name="Group 5407">
                  <path id="Path_66326" data-name="Path 66326" d="M370,189.735a.442.442,0,1,0,.883,0,.475.475,0,0,0-.442-.442C370.221,189.238,370,189.459,370,189.735Z" transform="translate(-370 -189.285)" fill="#263238"/>
                </g>
              </g>
            </g>
          </g>
          <g id="Group_5415" data-name="Group 5415">
            <g id="Group_5414" data-name="Group 5414">
              <g id="Group_5413" data-name="Group 5413">
                <g id="Group_5412" data-name="Group 5412">
                  <g id="Group_5411" data-name="Group 5411">
                    <path id="Path_66327" data-name="Path 66327" d="M369.182,188.785c.055.055.386-.221.883-.276s.828.221.883.166c0-.055-.055-.11-.221-.221a1,1,0,0,0-.718-.166,1.229,1.229,0,0,0-.718.276C369.182,188.619,369.127,188.73,369.182,188.785Z" transform="translate(-369.161 -188.273)" fill="#263238"/>
                  </g>
                </g>
              </g>
            </g>
          </g>
        </g>
        <g id="Group_5426" data-name="Group 5426" transform="translate(55.921 13.229)">
          <g id="Group_5420" data-name="Group 5420" transform="translate(0.276 0.558)">
            <g id="Group_5419" data-name="Group 5419">
              <g id="Group_5418" data-name="Group 5418">
                <g id="Group_5417" data-name="Group 5417">
                  <path id="Path_66328" data-name="Path 66328" d="M379.5,189.735a.442.442,0,1,0,.883,0,.475.475,0,0,0-.442-.442C379.721,189.238,379.5,189.459,379.5,189.735Z" transform="translate(-379.5 -189.285)" fill="#263238"/>
                </g>
              </g>
            </g>
          </g>
          <g id="Group_5425" data-name="Group 5425">
            <g id="Group_5424" data-name="Group 5424">
              <g id="Group_5423" data-name="Group 5423">
                <g id="Group_5422" data-name="Group 5422">
                  <g id="Group_5421" data-name="Group 5421">
                    <path id="Path_66329" data-name="Path 66329" d="M379,188.785c.055.055.386-.221.883-.276s.828.221.883.166c0-.055-.055-.11-.221-.221a1,1,0,0,0-.718-.166,1.229,1.229,0,0,0-.718.276A.22.22,0,0,0,379,188.785Z" transform="translate(-379 -188.273)" fill="#263238"/>
                  </g>
                </g>
              </g>
            </g>
          </g>
        </g>
        <g id="Group_5430" data-name="Group 5430" transform="translate(53.382 18.322)">
          <g id="Group_5429" data-name="Group 5429">
            <g id="Group_5428" data-name="Group 5428">
              <g id="Group_5427" data-name="Group 5427">
                <path id="Path_66330" data-name="Path 66330" d="M376.773,197.5a12.1,12.1,0,0,1-2.373.828,1.308,1.308,0,0,0,1.6.442C377.1,198.328,376.773,197.5,376.773,197.5Z" transform="translate(-374.4 -197.5)" fill="#fff"/>
              </g>
            </g>
          </g>
        </g>
        <g id="Group_5434" data-name="Group 5434" transform="translate(54.044 22.296)">
          <g id="Group_5433" data-name="Group 5433">
            <g id="Group_5432" data-name="Group 5432">
              <g id="Group_5431" data-name="Group 5431">
                <path id="Path_66331" data-name="Path 66331" d="M375.6,206.3a9.091,9.091,0,0,0,4.692-1.6,4.537,4.537,0,0,1-4.637,2.429Z" transform="translate(-375.6 -204.7)" fill="#d78776"/>
              </g>
            </g>
          </g>
        </g>
        <g id="Group_5438" data-name="Group 5438" transform="translate(48.778 2.633)">
          <g id="Group_5437" data-name="Group 5437">
            <g id="Group_5436" data-name="Group 5436">
              <g id="Group_5435" data-name="Group 5435">
                <path id="Path_66332" data-name="Path 66332" d="M391.529,187.139a3.106,3.106,0,0,1-1.27-.276,3.3,3.3,0,0,1-1.38-1.38,17.323,17.323,0,0,1-1.049-2.263c-.662-1.656-1.159-3.2-1.49-4.305l-.166-.5c-.055-.166-.055-.386-.11-.5a11.354,11.354,0,0,0-9.715-8.776c-1.38,0-3.809-.773-7.286,2.87a7.6,7.6,0,0,0-1.325,1.822,8.016,8.016,0,0,0-1.546,3.312,3.423,3.423,0,0,0-.055,1.766c.055,0,.055-.662.331-1.711a7.943,7.943,0,0,1,.662-1.766,6.822,6.822,0,0,0,.386,4.085l1.27-.331,4.526-1.546a6.658,6.658,0,0,1,.552-3.919l.055-.055a7.077,7.077,0,0,0,5.961,5.8l.828,11.592c6.017-1.27,5.851-9.328,5.851-10.929.276.938.607,1.987,1.049,3.091a12.325,12.325,0,0,0,1.1,2.263,3.607,3.607,0,0,0,1.545,1.38,2.238,2.238,0,0,0,1.38.221,1.367,1.367,0,0,0,.5-.166A1,1,0,0,1,391.529,187.139Z" transform="translate(-366.061 -169.076)" fill="#263238"/>
              </g>
            </g>
          </g>
        </g>
        <g id="Group_5443" data-name="Group 5443" transform="translate(52.862 13.575)">
          <g id="Group_5442" data-name="Group 5442">
            <g id="Group_5441" data-name="Group 5441">
              <g id="Group_5440" data-name="Group 5440">
                <g id="Group_5439" data-name="Group 5439">
                  <path id="Path_66333" data-name="Path 66333" d="M374.751,193.15s-.331-.055-.773-.11c-.11,0-.221,0-.276-.11s0-.221.055-.386l.331-.994c.221-.718.442-1.38.552-1.877s.221-.773.166-.773a4.816,4.816,0,0,0-.331.718c-.166.442-.386,1.1-.607,1.822-.11.331-.221.718-.331.994a.78.78,0,0,0-.055.5c.055.11.11.166.221.166h.221C374.475,193.205,374.751,193.205,374.751,193.15Z" transform="translate(-373.459 -188.9)" fill="#263238"/>
                </g>
              </g>
            </g>
          </g>
        </g>
        <g id="Group_5453" data-name="Group 5453" transform="translate(64.311 14.841)">
          <g id="Group_5447" data-name="Group 5447">
            <g id="Group_5446" data-name="Group 5446">
              <g id="Group_5445" data-name="Group 5445">
                <g id="Group_5444" data-name="Group 5444">
                  <path id="Path_66334" data-name="Path 66334" d="M394.2,194.067a6.2,6.2,0,0,1,.166-1.766,1.619,1.619,0,0,1,1.27-1.1,1.423,1.423,0,0,1,1.435,1.159,1.713,1.713,0,0,1-.883,1.711,2.279,2.279,0,0,1-1.987.055" transform="translate(-394.2 -191.193)" fill="#e5baab"/>
                </g>
              </g>
            </g>
          </g>
          <g id="Group_5452" data-name="Group 5452" transform="translate(0.994 0.633)">
            <g id="Group_5451" data-name="Group 5451">
              <g id="Group_5450" data-name="Group 5450">
                <g id="Group_5449" data-name="Group 5449">
                  <g id="Group_5448" data-name="Group 5448">
                    <path id="Path_66335" data-name="Path 66335" d="M396,194.029c0-.055.166.055.442-.055.276-.055.5-.331.552-.773a1.1,1.1,0,0,0-.11-.5.525.525,0,0,0-.386-.11c-.276,0-.442.11-.442.055s.11-.166.442-.276a.644.644,0,0,1,.607.11.689.689,0,0,1,.221.718.914.914,0,0,1-.276.662.763.763,0,0,1-.5.276C396.166,194.25,396,194.084,396,194.029Z" transform="translate(-396 -192.34)" fill="#d78776"/>
                  </g>
                </g>
              </g>
            </g>
          </g>
        </g>
        <g id="Group_5488" data-name="Group 5488" transform="translate(53.308 152.895)">
          <g id="Group_5457" data-name="Group 5457">
            <g id="Group_5456" data-name="Group 5456">
              <g id="Group_5455" data-name="Group 5455">
                <g id="Group_5454" data-name="Group 5454">
                  <path id="Path_66336" data-name="Path 66336" d="M380.854,446.544v-5.189l9.66-.055.055,7.562-.607.055c-2.65.166-13.579.662-15.4.11C372.63,448.476,380.854,446.544,380.854,446.544Z" transform="translate(-374.268 -441.3)" fill="#e8505b"/>
                </g>
              </g>
            </g>
          </g>
          <g id="Group_5462" data-name="Group 5462" transform="translate(0.128 7.121)">
            <g id="Group_5461" data-name="Group 5461">
              <g id="Group_5460" data-name="Group 5460">
                <g id="Group_5459" data-name="Group 5459">
                  <g id="Group_5458" data-name="Group 5458">
                    <path id="Path_66337" data-name="Path 66337" d="M374.5,454.366c0-.11,3.643-.166,8.059-.166,4.471,0,8.059.055,8.059.166s-3.643.166-8.059.166S374.5,454.421,374.5,454.366Z" transform="translate(-374.5 -454.2)" fill="#263238"/>
                  </g>
                </g>
              </g>
            </g>
          </g>
          <g id="Group_5467" data-name="Group 5467" transform="translate(5.692 5.34)">
            <g id="Group_5466" data-name="Group 5466">
              <g id="Group_5465" data-name="Group 5465">
                <g id="Group_5464" data-name="Group 5464">
                  <g id="Group_5463" data-name="Group 5463">
                    <path id="Path_66338" data-name="Path 66338" d="M385.309,451.927c-.055.055-.276-.166-.442-.386s-.331-.5-.276-.552.331.055.5.331C385.309,451.6,385.364,451.927,385.309,451.927Z" transform="translate(-384.58 -450.975)" fill="#263238"/>
                  </g>
                </g>
              </g>
            </g>
          </g>
          <g id="Group_5472" data-name="Group 5472" transform="translate(5.137 5.509)">
            <g id="Group_5471" data-name="Group 5471">
              <g id="Group_5470" data-name="Group 5470">
                <g id="Group_5469" data-name="Group 5469">
                  <g id="Group_5468" data-name="Group 5468">
                    <path id="Path_66339" data-name="Path 66339" d="M384.251,452.4c-.11.055-.276-.221-.442-.5s-.276-.552-.221-.607.331.11.5.442S384.306,452.4,384.251,452.4Z" transform="translate(-383.574 -451.281)" fill="#263238"/>
                  </g>
                </g>
              </g>
            </g>
          </g>
          <g id="Group_5477" data-name="Group 5477" transform="translate(13.361 5.396)">
            <g id="Group_5476" data-name="Group 5476">
              <g id="Group_5475" data-name="Group 5475">
                <g id="Group_5474" data-name="Group 5474">
                  <g id="Group_5473" data-name="Group 5473">
                    <path id="Path_66340" data-name="Path 66340" d="M398.488,452.911c-.055,0,.055-.221.221-.5a3.161,3.161,0,0,1,.828-.938,1.654,1.654,0,0,1,1.214-.386.725.725,0,0,1,.5.166c0,.055-.221,0-.5.055a2.677,2.677,0,0,0-1.049.442,6.645,6.645,0,0,0-.883.828C398.709,452.8,398.544,452.966,398.488,452.911Z" transform="translate(-398.474 -451.075)" fill="#263238"/>
                  </g>
                </g>
              </g>
            </g>
          </g>
          <g id="Group_5482" data-name="Group 5482" transform="translate(6.357 5.318)">
            <g id="Group_5481" data-name="Group 5481">
              <g id="Group_5480" data-name="Group 5480">
                <g id="Group_5479" data-name="Group 5479">
                  <g id="Group_5478" data-name="Group 5478">
                    <path id="Path_66341" data-name="Path 66341" d="M385.793,450.971a.558.558,0,0,1,.5.055c.221.11.442.166.442.276s-.276.11-.552.055C385.959,451.191,385.738,451.026,385.793,450.971Z" transform="translate(-385.784 -450.934)" fill="#263238"/>
                  </g>
                </g>
              </g>
            </g>
          </g>
          <g id="Group_5487" data-name="Group 5487" transform="translate(6.531 4.692)">
            <g id="Group_5486" data-name="Group 5486">
              <g id="Group_5485" data-name="Group 5485">
                <g id="Group_5484" data-name="Group 5484">
                  <g id="Group_5483" data-name="Group 5483">
                    <path id="Path_66342" data-name="Path 66342" d="M386.1,449.966c0-.11.276-.166.607-.166s.552.055.552.166-.276.166-.607.166C386.376,450.131,386.1,450.021,386.1,449.966Z" transform="translate(-386.1 -449.8)" fill="#263238"/>
                  </g>
                </g>
              </g>
            </g>
          </g>
        </g>
        <g id="Group_5493" data-name="Group 5493" transform="translate(45.93 65.185)">
          <g id="Group_5492" data-name="Group 5492">
            <g id="Group_5491" data-name="Group 5491">
              <g id="Group_5490" data-name="Group 5490">
                <g id="Group_5489" data-name="Group 5489">
                  <path id="Path_66343" data-name="Path 66343" d="M366.2,285.712l-5.3.883,3.036,3.753c.883,17.663.662,34.83,1.49,43.33.11,1.27,5.575,41.95,5.078,41.012l16.118.662-4.8-40.846,2.263-36.265a19.312,19.312,0,0,0,2.042-14.186l-.386-1.656" transform="translate(-360.9 -282.4)" fill="#455a64"/>
                </g>
              </g>
            </g>
          </g>
        </g>
        <g id="Group_5531" data-name="Group 5531" transform="translate(0 28.86)">
          <g id="Group_5498" data-name="Group 5498">
            <g id="Group_5495" data-name="Group 5495">
              <g id="Group_5494" data-name="Group 5494">
                <path id="Path_66344" data-name="Path 66344" d="M352.93,290.064l-72.144-21.03a4.288,4.288,0,0,1-2.925-5.3l12.806-44.048a4.287,4.287,0,0,1,5.3-2.925l72.144,21.03a4.288,4.288,0,0,1,2.925,5.3l-12.806,44.048A4.2,4.2,0,0,1,352.93,290.064Z" transform="translate(-277.691 -216.591)" fill="#1a2f5e"/>
              </g>
            </g>
          </g>
          <g id="Group_5500" data-name="Group 5500" transform="translate(67.892 23.733)">
            <g id="Group_5499" data-name="Group 5499">
              <path id="Path_66346" data-name="Path 66346" d="M412.01,266.991a5.781,5.781,0,1,1-3.919-7.176A5.8,5.8,0,0,1,412.01,266.991Z" transform="translate(-400.688 -259.588)" fill="#fff"/>
            </g>
          </g>
          <g id="Group_5502" data-name="Group 5502" transform="translate(74.281 25.376)">
            <g id="Group_5501" data-name="Group 5501">
              <path id="Path_66347" data-name="Path 66347" d="M418.355,274.727a6.071,6.071,0,0,1-1.711-.221,6.1,6.1,0,1,1,3.422-11.7,6.077,6.077,0,0,1,4.14,7.507,6.174,6.174,0,0,1-2.926,3.643A6.263,6.263,0,0,1,418.355,274.727Zm0-11.536a5.547,5.547,0,0,0-2.65.662,5.74,5.74,0,0,0-2.649,3.257,5.822,5.822,0,0,0,.442,4.2,5.74,5.74,0,0,0,3.257,2.649,5.554,5.554,0,0,0,4.2-.442,5.74,5.74,0,0,0,2.649-3.257,5.472,5.472,0,0,0-3.753-6.789A3.566,3.566,0,0,0,418.355,263.191Z" transform="translate(-412.264 -262.564)" fill="#fff"/>
            </g>
          </g>
          <g id="Group_5518" data-name="Group 5518" transform="translate(9.886 34.117)">
            <g id="Group_5503" data-name="Group 5503">
              <path id="Path_66348" data-name="Path 66348" d="M297.366,278.786l-1.325,4.471-.442-.11,1.159-4.029-1.049-.331.11-.386Z" transform="translate(-295.6 -278.4)" fill="#fff"/>
            </g>
            <g id="Group_5504" data-name="Group 5504" transform="translate(1.932 1.027)">
              <path id="Path_66349" data-name="Path 66349" d="M302.357,285.029l-.11.386-3.146-.938.11-.331,2.374-1.27c.662-.331.828-.607.938-.938.166-.5-.11-.938-.828-1.159a1.509,1.509,0,0,0-1.38.166l-.221-.386a1.939,1.939,0,0,1,1.766-.166c.883.276,1.325.883,1.1,1.656-.11.442-.386.773-1.159,1.159l-1.932,1.049Z" transform="translate(-299.1 -280.26)" fill="#fff"/>
            </g>
            <g id="Group_5505" data-name="Group 5505" transform="translate(6.237 2.705)">
              <path id="Path_66350" data-name="Path 66350" d="M310.764,287l-.883-.276-.331,1.159-.442-.11.331-1.159-2.539-.718.11-.331,3.2-2.263.5.166-3.146,2.208,1.932.552.276-1.049.442.11-.276,1.049.883.276Z" transform="translate(-306.9 -283.3)" fill="#fff"/>
            </g>
            <g id="Group_5506" data-name="Group 5506" transform="translate(13.027 4.692)">
              <path id="Path_66351" data-name="Path 66351" d="M323.064,290.6l-.883-.276-.331,1.159-.442-.11.331-1.159-2.539-.718.11-.331,3.2-2.263.5.166-3.146,2.208,1.932.552.276-1.049.442.11-.276,1.049.883.276Z" transform="translate(-319.2 -286.9)" fill="#fff"/>
            </g>
            <g id="Group_5507" data-name="Group 5507" transform="translate(17.443 5.52)">
              <path id="Path_66352" data-name="Path 66352" d="M330.622,292.264a1.416,1.416,0,0,1-1.987.883A2.256,2.256,0,0,1,327.2,292.1l.331-.276a2.144,2.144,0,0,0,1.214.938c.773.221,1.27-.055,1.435-.552.166-.552-.11-1.049-1.214-1.38l-.938-.276.883-2.153,2.429.718-.11.386-2.042-.607-.552,1.38.552.166C330.512,290.774,330.843,291.436,330.622,292.264Z" transform="translate(-327.2 -288.4)" fill="#fff"/>
            </g>
            <g id="Group_5508" data-name="Group 5508" transform="translate(22.021 7.028)">
              <path id="Path_66353" data-name="Path 66353" d="M338.755,294.757a1.476,1.476,0,0,1-1.932.938c-1.159-.331-1.6-1.38-1.159-2.76a2.108,2.108,0,0,1,2.7-1.711,1.951,1.951,0,0,1,.994.552l-.276.331a1.349,1.349,0,0,0-.828-.442c-.938-.276-1.766.166-2.1,1.38a3.514,3.514,0,0,0-.11.386,1.527,1.527,0,0,1,1.6-.386A1.315,1.315,0,0,1,338.755,294.757Zm-.442-.166a.994.994,0,0,0-.828-1.27,1.084,1.084,0,0,0-1.435.662c-.166.5.11,1.049.883,1.325A1.1,1.1,0,0,0,338.313,294.592Z" transform="translate(-335.495 -291.132)" fill="#fff"/>
            </g>
            <g id="Group_5509" data-name="Group 5509" transform="translate(27.93 8.445)">
              <path id="Path_66354" data-name="Path 66354" d="M349.622,297.729c-.221.773-.938,1.159-1.987.828a2.256,2.256,0,0,1-1.435-1.049l.331-.276a2.145,2.145,0,0,0,1.214.938c.718.221,1.27,0,1.435-.552s-.11-.994-.938-1.214l-.331-.11.11-.331,1.711-1.214-2.263-.662.11-.386,2.87.828-.11.331-1.711,1.214A1.275,1.275,0,0,1,349.622,297.729Z" transform="translate(-346.2 -293.7)" fill="#fff"/>
            </g>
            <g id="Group_5510" data-name="Group 5510" transform="translate(32.564 10.064)">
              <path id="Path_66355" data-name="Path 66355" d="M357.854,300.257a1.477,1.477,0,0,1-1.932.938c-1.159-.331-1.6-1.38-1.159-2.76a2.108,2.108,0,0,1,2.7-1.711,1.952,1.952,0,0,1,.994.552l-.276.331a1.348,1.348,0,0,0-.828-.442c-.938-.276-1.766.166-2.1,1.38a3.5,3.5,0,0,0-.11.386,1.527,1.527,0,0,1,1.6-.386A1.322,1.322,0,0,1,357.854,300.257Zm-.442-.11a.994.994,0,0,0-.828-1.27,1.084,1.084,0,0,0-1.435.662c-.166.5.11,1.049.883,1.325A1.092,1.092,0,0,0,357.413,300.147Z" transform="translate(-354.595 -296.632)" fill="#fff"/>
            </g>
            <g id="Group_5511" data-name="Group 5511" transform="translate(37.148 10.764)">
              <path id="Path_66356" data-name="Path 66356" d="M366.6,298.894l-.11.331-3.091,3.588-.5-.166,3.036-3.533-2.318-.662-.221.828-.442-.11.386-1.27Z" transform="translate(-362.9 -297.9)" fill="#fff"/>
            </g>
            <g id="Group_5512" data-name="Group 5512" transform="translate(43.551 12.64)">
              <path id="Path_66357" data-name="Path 66357" d="M378.2,302.294l-.11.331L375,306.213l-.5-.166,3.036-3.533-2.318-.662-.221.828-.442-.11.386-1.27Z" transform="translate(-374.5 -301.3)" fill="#fff"/>
            </g>
            <g id="Group_5513" data-name="Group 5513" transform="translate(47.179 14.357)">
              <path id="Path_66358" data-name="Path 66358" d="M384.565,308.213c-.221.773-1.049,1.1-2.1.773s-1.6-.994-1.325-1.766a1.09,1.09,0,0,1,1.159-.828,1.111,1.111,0,0,1-.442-1.159c.221-.718.938-.994,1.877-.718s1.435.938,1.214,1.656a1.074,1.074,0,0,1-.994.773A.984.984,0,0,1,384.565,308.213Zm-.442-.166c.166-.552-.221-1.049-.994-1.27s-1.38,0-1.49.552c-.166.552.221,1.049.994,1.27C383.351,308.82,383.958,308.6,384.123,308.047Zm-.883-1.6c.718.221,1.214,0,1.325-.5.166-.5-.221-.938-.883-1.159s-1.214,0-1.325.5C382.191,305.784,382.523,306.226,383.24,306.446Z" transform="translate(-381.072 -304.409)" fill="#fff"/>
            </g>
            <g id="Group_5514" data-name="Group 5514" transform="translate(51.61 15.499)">
              <path id="Path_66359" data-name="Path 66359" d="M392.8,309.361a2.108,2.108,0,0,1-2.7,1.711,1.952,1.952,0,0,1-.994-.552l.276-.331a1.348,1.348,0,0,0,.828.442c.938.276,1.766-.166,2.1-1.38a3.519,3.519,0,0,0,.11-.386,1.527,1.527,0,0,1-1.6.386,1.406,1.406,0,0,1-1.1-1.766,1.477,1.477,0,0,1,1.932-.938C392.8,306.932,393.24,307.926,392.8,309.361Zm-.386-1.1c.166-.5-.11-1.049-.883-1.325a1.026,1.026,0,0,0-1.38.662.994.994,0,0,0,.828,1.27A.977.977,0,0,0,392.412,308.257Z" transform="translate(-389.1 -306.479)" fill="#fff"/>
            </g>
            <g id="Group_5515" data-name="Group 5515" transform="translate(58.731 17.111)">
              <path id="Path_66360" data-name="Path 66360" d="M403.766,309.786l-1.325,4.471-.442-.11,1.159-4.029-1.049-.331.11-.386Z" transform="translate(-402 -309.4)" fill="#fff"/>
            </g>
            <g id="Group_5516" data-name="Group 5516" transform="translate(60.607 18.138)">
              <path id="Path_66361" data-name="Path 66361" d="M408.657,316.029l-.11.386-3.146-.938.11-.331,2.374-1.27c.662-.331.828-.607.938-.938.166-.5-.11-.938-.828-1.159a1.509,1.509,0,0,0-1.38.166l-.221-.386a1.939,1.939,0,0,1,1.766-.166c.883.276,1.325.883,1.1,1.656-.11.442-.386.773-1.159,1.159l-1.932,1.049Z" transform="translate(-405.4 -311.26)" fill="#fff"/>
            </g>
            <g id="Group_5517" data-name="Group 5517" transform="translate(64.692 19.154)">
              <path id="Path_66362" data-name="Path 66362" d="M416.222,317.129c-.221.773-.938,1.159-1.987.828a2.256,2.256,0,0,1-1.435-1.049l.331-.276a2.144,2.144,0,0,0,1.214.938c.718.221,1.27,0,1.435-.552s-.11-.994-.938-1.214l-.331-.11.11-.331,1.711-1.214-2.263-.662.11-.386,2.87.828-.11.331-1.711,1.214A1.275,1.275,0,0,1,416.222,317.129Z" transform="translate(-412.8 -313.1)" fill="#fff"/>
            </g>
          </g>
          <g id="Group_5520" data-name="Group 5520" transform="translate(41.854 51.878)">
            <g id="Group_5519" data-name="Group 5519" transform="translate(0 0)">
              <rect id="Rectangle_369" data-name="Rectangle 369" width="2.042" height="37.203" transform="translate(0 1.961) rotate(-73.758)" fill="#fff"/>
            </g>
          </g>
          <g id="Group_5522" data-name="Group 5522" transform="translate(58.112 60.818)">
            <g id="Group_5521" data-name="Group 5521" transform="translate(0 0)">
              <rect id="Rectangle_370" data-name="Rectangle 370" width="2.042" height="19.098" transform="translate(0 1.961) rotate(-73.758)" fill="#fff"/>
            </g>
          </g>
          <g id="Group_5524" data-name="Group 5524" transform="translate(10.729 19.34)">
            <g id="Group_5523" data-name="Group 5523">
              <path id="Path_66363" data-name="Path 66363" d="M308.815,265.8l-9.715-2.815a2.81,2.81,0,0,1-1.877-3.422l1.711-5.961a2.81,2.81,0,0,1,3.422-1.877l9.715,2.815a2.81,2.81,0,0,1,1.877,3.422l-1.711,5.961A2.836,2.836,0,0,1,308.815,265.8Z" transform="translate(-297.128 -251.628)" fill="#263238"/>
            </g>
          </g>
          <g id="Group_5526" data-name="Group 5526" transform="translate(10.934 22.084)">
            <g id="Group_5525" data-name="Group 5525">
              <path id="Path_66364" data-name="Path 66364" d="M297.5,261.292l.221-.718,7.728,2.263a1.695,1.695,0,0,0,.938-3.257l-7.728-2.263.221-.718,7.728,2.263a2.445,2.445,0,0,1-1.38,4.692Z" transform="translate(-297.5 -256.6)" fill="#fff"/>
            </g>
          </g>
          <g id="Group_5528" data-name="Group 5528" transform="translate(21.198 26.901)">
            <g id="Group_5527" data-name="Group 5527" transform="translate(0 0)">
              <rect id="Rectangle_371" data-name="Rectangle 371" width="0.773" height="5.52" transform="translate(0 0.742) rotate(-73.698)" fill="#fff"/>
            </g>
          </g>
          <g id="Group_5530" data-name="Group 5530" transform="translate(16.785 9.95)">
            <g id="Group_5529" data-name="Group 5529" transform="translate(0)">
              <rect id="Rectangle_372" data-name="Rectangle 372" width="40.129" height="3.422" transform="translate(0.958) rotate(16.249)" fill="#fff"/>
            </g>
          </g>
        </g>
        <g id="Group_5533" data-name="Group 5533" transform="translate(60.648)">
          <g id="Group_5532" data-name="Group 5532">
            <path id="Path_66365" data-name="Path 66365" d="M389.3,168.939a2.725,2.725,0,0,1-1.656-1.822,2.3,2.3,0,0,1,.718-2.318,2.171,2.171,0,0,1,2.429-.221A3.347,3.347,0,0,1,392,166.235a2.4,2.4,0,0,1,.166,1.38,2.021,2.021,0,0,1-1.49,1.325,6.645,6.645,0,0,1-2.1.055" transform="translate(-387.564 -164.306)" fill="#263238"/>
          </g>
        </g>
        <g id="Group_5536" data-name="Group 5536" transform="translate(62.874 4.302)">
          <g id="Group_5535" data-name="Group 5535">
            <g id="Group_5534" data-name="Group 5534">
              <path id="Path_66366" data-name="Path 66366" d="M405.287,182.312c-.055,0,.11-.276.055-.718a1.538,1.538,0,0,0-.386-.718,2.232,2.232,0,0,0-.938-.552,5.381,5.381,0,0,0-1.38-.11,14.579,14.579,0,0,1-1.6.11,3.288,3.288,0,0,1-1.822-.442,2.7,2.7,0,0,1-1.049-1.656,8.671,8.671,0,0,0-1.766-3.146,10.059,10.059,0,0,0-2.263-1.932A11.151,11.151,0,0,0,391.6,172.1h.221a3.178,3.178,0,0,1,.552.11,6.949,6.949,0,0,1,1.932.773,9.139,9.139,0,0,1,2.374,1.932,8.918,8.918,0,0,1,1.822,3.257,2.591,2.591,0,0,0,.938,1.49,2.939,2.939,0,0,0,1.656.386c.552,0,1.1-.11,1.6-.11a4.1,4.1,0,0,1,1.435.166,1.955,1.955,0,0,1,1.38,1.49.8.8,0,0,1-.055.552Z" transform="translate(-391.596 -172.1)" fill="#263238"/>
            </g>
          </g>
        </g>
        <g id="Group_5539" data-name="Group 5539" transform="translate(64.455 17.329)">
          <g id="Group_5538" data-name="Group 5538">
            <g id="Group_5537" data-name="Group 5537">
              <path id="Path_66367" data-name="Path 66367" d="M396.414,196.031a.748.748,0,0,1,.276.662,1.069,1.069,0,0,1-.331.718,1.133,1.133,0,0,1-.938.276,1.2,1.2,0,0,1-.828-.607.892.892,0,0,1-.055-.828.922.922,0,0,1,.442-.552c.055.055-.166.221-.276.607a.809.809,0,0,0,.11.607.855.855,0,0,0,.607.442.816.816,0,0,0,.718-.221,1.471,1.471,0,0,0,.331-.552C396.525,196.307,396.359,196.031,396.414,196.031Z" transform="translate(-394.461 -195.7)" fill="#e0e0e0"/>
            </g>
          </g>
        </g>
        <g id="Group_5542" data-name="Group 5542" transform="translate(60.666 3.002)">
          <g id="Group_5541" data-name="Group 5541">
            <g id="Group_5540" data-name="Group 5540">
              <path id="Path_66368" data-name="Path 66368" d="M391.9,172.093a14.118,14.118,0,0,0-1.987-1.49,17.934,17.934,0,0,0-2.318-.828,4.33,4.33,0,0,1,2.484.552A4.5,4.5,0,0,1,391.9,172.093Z" transform="translate(-387.597 -169.745)" fill="#e8505b"/>
            </g>
          </g>
        </g>
        <g id="Group_5545" data-name="Group 5545" transform="translate(66.408 16.928)">
          <g id="Group_5544" data-name="Group 5544">
            <g id="Group_5543" data-name="Group 5543">
              <path id="Path_66369" data-name="Path 66369" d="M398.607,195.044c0-.055.166-.055.276.11a.352.352,0,0,1,0,.331.37.37,0,0,1-.386.221.43.43,0,0,1-.386-.166.785.785,0,0,1-.11-.331c0-.166.11-.276.166-.221.055,0,0,.11.055.221s.11.221.276.221.166-.11.166-.221C398.662,195.154,398.607,195.1,398.607,195.044Z" transform="translate(-398 -194.974)" fill="#e0e0e0"/>
            </g>
          </g>
        </g>
        <g id="Group_5548" data-name="Group 5548" transform="translate(53.743 27.982)">
          <g id="Group_5547" data-name="Group 5547">
            <g id="Group_5546" data-name="Group 5546">
              <path id="Path_66370" data-name="Path 66370" d="M384.574,215a2.76,2.76,0,0,1,.055.607,4.1,4.1,0,0,1-.331,1.6,5.183,5.183,0,0,1-1.435,1.987,4.7,4.7,0,0,1-2.76,1.049,4.764,4.764,0,0,1-4.526-2.484,4.456,4.456,0,0,1-.5-1.546,1.736,1.736,0,0,1,0-.607,6.67,6.67,0,0,0,.718,2.042,5.036,5.036,0,0,0,1.6,1.656,4.758,4.758,0,0,0,5.354-.331,4.566,4.566,0,0,0,1.38-1.822A10.43,10.43,0,0,0,384.574,215Z" transform="translate(-375.056 -215)" fill="#455a64"/>
            </g>
          </g>
        </g>
        <g id="Group_5551" data-name="Group 5551" transform="translate(57.356 95.986)">
          <g id="Group_5550" data-name="Group 5550">
            <g id="Group_5549" data-name="Group 5549">
              <path id="Path_66371" data-name="Path 66371" d="M386.347,396.71a.427.427,0,0,0-.055-.166c0-.11-.055-.276-.055-.442-.055-.386-.11-.994-.221-1.711-.166-1.49-.442-3.588-.718-6.237-.607-5.3-1.325-12.585-1.987-20.644s-1.1-15.4-1.38-20.7c-.11-2.649-.221-4.8-.276-6.293,0-.718-.055-1.27-.055-1.711v-.442a1.372,1.372,0,0,0,.055.442c0,.386.055.994.11,1.711.11,1.49.221,3.643.386,6.293.331,5.3.828,12.64,1.435,20.7.662,8.059,1.325,15.4,1.877,20.644.276,2.649.5,4.747.662,6.237.055.718.11,1.27.166,1.711a1.076,1.076,0,0,0,.055.442Q386.347,396.71,386.347,396.71Z" transform="translate(-381.6 -338.2)" fill="#263238"/>
            </g>
          </g>
        </g>
        <g id="Group_5554" data-name="Group 5554" transform="translate(55.313 154.44)">
          <g id="Group_5553" data-name="Group 5553">
            <g id="Group_5552" data-name="Group 5552">
              <path id="Path_66372" data-name="Path 66372" d="M393.687,444.155s-.221.055-.607.11-.994.055-1.711.11c-1.435.055-3.422.11-5.575.055-2.208-.055-4.14-.11-5.575-.166-.662-.055-1.214-.055-1.711-.055a2.758,2.758,0,0,1-.607-.055,2.758,2.758,0,0,1,.607-.055h1.711c1.435,0,3.422.055,5.575.055,2.153.055,4.14.055,5.575,0h2.318Z" transform="translate(-377.9 -444.1)" fill="#263238"/>
            </g>
          </g>
        </g>
        <g id="Group_5558" data-name="Group 5558" transform="translate(25.914 40.457)">
          <g id="Group_5557" data-name="Group 5557">
            <g id="Group_5556" data-name="Group 5556">
              <g id="Group_5555" data-name="Group 5555">
                <path id="Path_66373" data-name="Path 66373" d="M372.971,243.837l-9.494-6.237s-4.637,13.358-6.072,13.468c-7.838.718-16.283-1.877-19.209-2.925-.276-.331-.662-.718-1.049-1.214a4.381,4.381,0,0,1-.718-1.435,6.878,6.878,0,0,1-.442-1.932c0-.607-.718-.938-1.049-.5s-.442,2.1.331,3.919-1.987.386-2.981-.11-4.2-1.932-4.637-1.766c-.607.276-.386.938.607,1.435,1.049.5,3.974,2.153,3.7,2.649s-5.409-2.153-5.409-2.153-.994-.718-1.38-.166c-.662,1.049,4.968,3.477,5.52,3.7.386.166.055.718-.331.552s-5.023-2.76-5.685-1.711c-.5.828,4.637,2.042,5.3,3.091s-3.809-1.325-4.25-.5c-.166.276-.276.552,2.484,1.546a46.546,46.546,0,0,0,6.127,1.546v.055s28.206,12.64,33.505.442C373.633,242.733,372.971,243.837,372.971,243.837Z" transform="translate(-324.639 -237.6)" fill="#e5baab"/>
              </g>
            </g>
          </g>
        </g>
        <g id="Group_5563" data-name="Group 5563" transform="translate(59.177 28.479)">
          <g id="Group_5562" data-name="Group 5562">
            <g id="Group_5561" data-name="Group 5561">
              <g id="Group_5560" data-name="Group 5560">
                <g id="Group_5559" data-name="Group 5559">
                  <path id="Path_66374" data-name="Path 66374" d="M393.732,215.9s8.611.994,7.728,11.26a50.34,50.34,0,0,1-5.244,18.16L384.9,239.414a69.653,69.653,0,0,0,5.685-15.952l3.146-7.562Z" transform="translate(-384.9 -215.9)" fill="#e8505b"/>
                </g>
              </g>
            </g>
          </g>
        </g>
        <g id="Group_5568" data-name="Group 5568" transform="translate(59.177 28.479)" opacity="0.2">
          <g id="Group_5567" data-name="Group 5567">
            <g id="Group_5566" data-name="Group 5566">
              <g id="Group_5565" data-name="Group 5565">
                <g id="Group_5564" data-name="Group 5564">
                  <path id="Path_66375" data-name="Path 66375" d="M393.732,215.9s8.611.994,7.728,11.26a50.34,50.34,0,0,1-5.244,18.16L384.9,239.414a69.653,69.653,0,0,0,5.685-15.952l3.146-7.562Z" transform="translate(-384.9 -215.9)" fill="#fff"/>
                </g>
              </g>
            </g>
          </g>
        </g>
        <g id="Group_5571" data-name="Group 5571" transform="translate(64.366 28.479)">
          <g id="Group_5570" data-name="Group 5570">
            <g id="Group_5569" data-name="Group 5569">
              <path id="Path_66376" data-name="Path 66376" d="M398.109,215.9a7.569,7.569,0,0,1-2.374.442l.11-.221c.331.552.662,1.1,1.049,1.711.221.386.442.773.662,1.1l.166.276-.331-.055c-1.766-.331-3.091-.166-3.091-.276,0-.055.331-.11.883-.166a8.377,8.377,0,0,1,2.263.11l-.166.221c-.221-.331-.442-.718-.662-1.1-.386-.607-.718-1.214-1.049-1.766l-.11-.166h.221c.718-.055,1.325-.055,1.711-.11A2.289,2.289,0,0,0,398.109,215.9Z" transform="translate(-394.3 -215.9)" fill="#455a64"/>
            </g>
          </g>
        </g>
        <g id="Group_5574" data-name="Group 5574" transform="translate(63.428 32.563)">
          <g id="Group_5573" data-name="Group 5573">
            <g id="Group_5572" data-name="Group 5572">
              <path id="Path_66377" data-name="Path 66377" d="M402.425,223.631c0,.055-.828-.166-2.153-.166l.11-.11c.331,1.27.773,3.036,1.27,5.023l.055.221-.221-.055c-1.1-.276-2.263-.607-3.533-.938-.331-.11-.662-.166-.938-.276l.166-.166c.055,1.877.166,3.643.221,5.189v.166l-.166-.055c-1.38-.386-2.484-.718-3.367-.938-.386-.11-.662-.221-.938-.276a1.779,1.779,0,0,1-.331-.11,1.545,1.545,0,0,1,.331.055c.276.055.552.11.938.221.883.221,2.042.5,3.367.828l-.166.11c-.055-1.49-.166-3.257-.276-5.189v-.221l.221.055c.331.11.607.166.938.276,1.214.331,2.429.662,3.477.994l-.166.166c-.442-1.987-.883-3.753-1.159-5.023v-.11h.11a8.538,8.538,0,0,1,1.6.221C402.26,223.521,402.425,223.576,402.425,223.631Z" transform="translate(-392.6 -223.3)" fill="#455a64"/>
            </g>
          </g>
        </g>
        <g id="Group_5577" data-name="Group 5577" transform="translate(61.992 44.817)">
          <g id="Group_5576" data-name="Group 5576">
            <g id="Group_5575" data-name="Group 5575">
              <path id="Path_66378" data-name="Path 66378" d="M401.978,247.542a1.969,1.969,0,0,1-.386-.386,15.156,15.156,0,0,1-.828-1.325h.166a32.919,32.919,0,0,1-3.146,4.968l-.11.166-.11-.166c-.552-.718-1.1-1.435-1.656-2.208-.442-.552-.883-1.1-1.27-1.656h.221c-.718.607-1.38,1.214-2.042,1.766a11.564,11.564,0,0,1-.938.773,2.764,2.764,0,0,0-.442.386l-.221.166-.055.055H391.1c0,.055-.166-.055-.166-.11h0l.055.11h0l-.11.055-.055-.11c-.331-1.1-.552-1.987-.718-2.594a6.153,6.153,0,0,1-.11-.994s.055.331.221.938.442,1.49.773,2.539l-.11-.055h.11c.055,0,.11.11.11.11v.055h0s-.11-.055-.055-.055a.054.054,0,0,0-.055-.055l-.055-.055h0l.055-.055.221-.166c.11-.11.276-.221.442-.386.276-.276.607-.552.883-.828.607-.552,1.325-1.159,2.042-1.822l.11-.11.11.11c.386.552.828,1.1,1.27,1.656.607.773,1.159,1.49,1.656,2.208h-.221a47.4,47.4,0,0,0,3.2-4.857l.055-.11.055.11a12.4,12.4,0,0,0,.773,1.38C401.867,247.377,401.978,247.542,401.978,247.542Z" transform="translate(-390 -245.5)" fill="#455a64"/>
            </g>
          </g>
        </g>
        <g id="Group_5580" data-name="Group 5580" transform="translate(59.116 39.019)">
          <g id="Group_5579" data-name="Group 5579">
            <g id="Group_5578" data-name="Group 5578">
              <path id="Path_66379" data-name="Path 66379" d="M389.873,235a1.932,1.932,0,0,1-.11.552c-.055.331-.221.828-.386,1.435a47.491,47.491,0,0,1-1.6,4.637c-.718,1.766-1.435,3.367-1.987,4.471a13.223,13.223,0,0,1-.718,1.325,1.861,1.861,0,0,1-.276.442,15.442,15.442,0,0,1,.773-1.877c.5-1.159,1.214-2.7,1.877-4.471.718-1.766,1.27-3.367,1.656-4.581A17.987,17.987,0,0,1,389.873,235Z" transform="translate(-384.789 -234.995)" fill="#455a64"/>
            </g>
          </g>
        </g>
        <g id="Group_5593" data-name="Group 5593" transform="translate(59.116 28.479)">
          <g id="Group_5583" data-name="Group 5583" transform="translate(5.25)">
            <g id="Group_5582" data-name="Group 5582">
              <g id="Group_5581" data-name="Group 5581">
                <path id="Path_66380" data-name="Path 66380" d="M398.109,215.9a7.569,7.569,0,0,1-2.374.442l.11-.221c.331.552.662,1.1,1.049,1.711.221.386.442.773.662,1.1l.166.276-.331-.055c-1.766-.331-3.091-.166-3.091-.276,0-.055.331-.11.883-.166a8.377,8.377,0,0,1,2.263.11l-.166.221c-.221-.331-.442-.718-.662-1.1-.386-.607-.718-1.214-1.049-1.766l-.11-.166h.221c.718-.055,1.325-.055,1.711-.11A2.289,2.289,0,0,0,398.109,215.9Z" transform="translate(-394.3 -215.9)" fill="#455a64"/>
              </g>
            </g>
          </g>
          <g id="Group_5586" data-name="Group 5586" transform="translate(4.311 4.085)">
            <g id="Group_5585" data-name="Group 5585">
              <g id="Group_5584" data-name="Group 5584">
                <path id="Path_66381" data-name="Path 66381" d="M402.425,223.631c0,.055-.828-.166-2.153-.166l.11-.11c.331,1.27.773,3.036,1.27,5.023l.055.221-.221-.055c-1.1-.276-2.263-.607-3.533-.938-.331-.11-.662-.166-.938-.276l.166-.166c.055,1.877.166,3.643.221,5.189v.166l-.166-.055c-1.38-.386-2.484-.718-3.367-.938-.386-.11-.662-.221-.938-.276a1.779,1.779,0,0,1-.331-.11,1.545,1.545,0,0,1,.331.055c.276.055.552.11.938.221.883.221,2.042.5,3.367.828l-.166.11c-.055-1.49-.166-3.257-.276-5.189v-.221l.221.055c.331.11.607.166.938.276,1.214.331,2.429.662,3.477.994l-.166.166c-.442-1.987-.883-3.753-1.159-5.023v-.11h.11a8.538,8.538,0,0,1,1.6.221C402.26,223.521,402.425,223.576,402.425,223.631Z" transform="translate(-392.6 -223.3)" fill="#455a64"/>
              </g>
            </g>
          </g>
          <g id="Group_5589" data-name="Group 5589" transform="translate(2.876 16.339)">
            <g id="Group_5588" data-name="Group 5588">
              <g id="Group_5587" data-name="Group 5587">
                <path id="Path_66382" data-name="Path 66382" d="M401.978,247.542a1.969,1.969,0,0,1-.386-.386,15.156,15.156,0,0,1-.828-1.325h.166a32.919,32.919,0,0,1-3.146,4.968l-.11.166-.11-.166c-.552-.718-1.1-1.435-1.656-2.208-.442-.552-.883-1.1-1.27-1.656h.221c-.718.607-1.38,1.214-2.042,1.766a11.564,11.564,0,0,1-.938.773,2.764,2.764,0,0,0-.442.386l-.221.166-.055.055H391.1c0,.055-.166-.055-.166-.11h0l.055.11h0l-.11.055-.055-.11c-.331-1.1-.552-1.987-.718-2.594a6.153,6.153,0,0,1-.11-.994s.055.331.221.938.442,1.49.773,2.539l-.11-.055h.11c.055,0,.11.11.11.11v.055h0s-.11-.055-.055-.055a.054.054,0,0,0-.055-.055l-.055-.055h0l.055-.055.221-.166c.11-.11.276-.221.442-.386.276-.276.607-.552.883-.828.607-.552,1.325-1.159,2.042-1.822l.11-.11.11.11c.386.552.828,1.1,1.27,1.656.607.773,1.159,1.49,1.656,2.208h-.221a47.4,47.4,0,0,0,3.2-4.857l.055-.11.055.11a12.4,12.4,0,0,0,.773,1.38C401.867,247.377,401.978,247.542,401.978,247.542Z" transform="translate(-390 -245.5)" fill="#455a64"/>
              </g>
            </g>
          </g>
          <g id="Group_5592" data-name="Group 5592" transform="translate(0 10.54)">
            <g id="Group_5591" data-name="Group 5591">
              <g id="Group_5590" data-name="Group 5590">
                <path id="Path_66383" data-name="Path 66383" d="M389.873,235a1.932,1.932,0,0,1-.11.552c-.055.331-.221.828-.386,1.435a47.491,47.491,0,0,1-1.6,4.637c-.718,1.766-1.435,3.367-1.987,4.471a13.223,13.223,0,0,1-.718,1.325,1.861,1.861,0,0,1-.276.442,15.442,15.442,0,0,1,.773-1.877c.5-1.159,1.214-2.7,1.877-4.471.718-1.766,1.27-3.367,1.656-4.581A17.987,17.987,0,0,1,389.873,235Z" transform="translate(-384.789 -234.995)" fill="#455a64"/>
              </g>
            </g>
          </g>
        </g>
      </g>
    </g>
  </g>
</svg>
