<?xml version="1.0" encoding="utf-8"?>
<!-- Generator: Adobe Illustrator 24.0.2, SVG Export Plug-In . SVG Version: 6.00 Build 0)  -->
<svg version="1.1" id="Layer_1" xmlns="http://www.w3.org/2000/svg" xmlns:xlink="http://www.w3.org/1999/xlink" x="0px" y="0px"
	 viewBox="0 0 38 26.7" style="enable-background:new 0 0 38 26.7;" xml:space="preserve">
<style type="text/css">
	.st0{fill:#FFFFFF;}
</style>
<g>
	<path class="st0" d="M25.7,10.7h-22c-1.5,0-2.7,1.2-2.7,2.7c0,1.5,1.2,2.7,2.7,2.7h22c0,0,0,0,0,0c1.5,0,2.7-1.2,2.7-2.7
		C28.4,11.9,27.2,10.7,25.7,10.7z"/>
	<path class="st0" d="M16.2,20.3H3.7c-1.5,0-2.7,1.2-2.7,2.7c0,1.5,1.2,2.7,2.7,2.7h12.4c0,0,0,0,0,0c1.5,0,2.7-1.2,2.7-2.7
		C18.9,21.5,17.7,20.3,16.2,20.3z"/>
	<path class="st0" d="M34.3,1H3.7C2.2,1,1,2.2,1,3.7c0,1.5,1.2,2.7,2.7,2.7h30.6c0,0,0,0,0,0c1.5,0,2.7-1.2,2.7-2.7
		C37,2.2,35.8,1,34.3,1z"/>
</g>
</svg>
