<?xml version="1.0" encoding="utf-8"?>
<!-- Generator: Adobe Illustrator 24.0.0, SVG Export Plug-In . SVG Version: 6.00 Build 0)  -->
<svg version="1.0" id="Layer_1" xmlns="http://www.w3.org/2000/svg" xmlns:xlink="http://www.w3.org/1999/xlink" x="0px" y="0px"
	 viewBox="0 0 512 512" enable-background="new 0 0 512 512" xml:space="preserve">
<g>
	<path fill="#FFFFFF" d="M799,295.9c0.6-15.7,21.5-28.3,46.5-35l-7.7-8.1c-41.5,7.9-68.5,20.9-72.6,36.8c-0.3,1.4-0.6,2.8-0.6,4.2
		c0,0.9,0.1,1.7,0.3,2.6c3,15.4,32.4,30.6,70.7,37.1l1.7-4.7C814.1,321.2,798.5,309.6,799,295.9"/>
	<path fill="#FFFFFF" d="M980.1,252.1c0-26.5-69.4-48-155-48c-85.6,0-155,21.5-155,48c0,19.9,39.1,37,94.9,44.3
		c-0.2-0.9-0.3-1.7-0.3-2.6c0-1.4,0.2-2.8,0.6-4.2c-27.4-5.9-45.4-15.8-45.4-26.9c0-18.2,47.5-32.9,106-32.9
		c58.5,0,106,14.7,106,32.9c0,14.4-29.8,26.6-71.3,31.1c6.7-4.1,15.9-7.6,26.8-10.2l-20.3-25.5c-36.2,7.9-64.5,21.5-64.5,38.2
		c0,16.6,26.5,29,64.3,37.6l1.8-3.9c-12.5-5.4-20.1-12.5-20.1-20.2c0-3.7,1.8-7.2,4.9-10.5C925.5,295.2,980.1,275.6,980.1,252.1"/>
</g>
<g>
	<path fill="#FFFFFF" d="M1032.9,240.9c-0.9-1-1.7-2.2-2.2-3.7c-0.5-1.5-0.8-3.3-0.8-5.3c0-2.1,0.3-3.8,0.8-5.3
		c0.5-1.5,1.3-2.7,2.2-3.7c0.9-1,2-1.7,3.3-2.2c1.3-0.5,2.6-0.7,4-0.7c1.5,0,2.8,0.2,4.1,0.7c1.3,0.5,2.3,1.2,3.3,2.2
		c0.9,1,1.7,2.2,2.2,3.7c0.5,1.5,0.8,3.3,0.8,5.3c0,2.1-0.3,3.8-0.8,5.3c-0.5,1.5-1.2,2.7-2.2,3.7c-0.9,1-2,1.7-3.3,2.2
		c-1.3,0.5-2.6,0.7-4.1,0.7c-1.4,0-2.8-0.2-4-0.7C1034.9,242.6,1033.8,241.9,1032.9,240.9 M1040.7,245.1c0.2,0,0.4,0,0.6,0
		c1.6,1.3,3,2.5,4.4,3.8c1.4,1.2,2.8,2.5,4.1,3.8c0.2-0.3,0.6-0.6,1.1-1c0.5-0.3,1.1-0.5,1.8-0.6c-1.5-1.1-3-2.1-4.3-3.2
		c-1.4-1.1-2.7-2.1-4.1-3.2c1.5-0.3,2.8-0.8,4-1.5c1.2-0.7,2.2-1.6,3.1-2.7c0.9-1.1,1.5-2.4,2-3.8c0.5-1.4,0.7-3,0.7-4.7
		c0-2.1-0.3-4-1-5.6c-0.7-1.6-1.6-3-2.9-4.2c-1.2-1.1-2.7-2-4.4-2.6c-1.7-0.6-3.6-0.9-5.7-0.9c-2,0-3.9,0.3-5.6,0.9
		c-1.7,0.6-3.2,1.5-4.4,2.6c-1.2,1.1-2.2,2.5-2.9,4.2c-0.7,1.7-1,3.5-1,5.6c0,2.1,0.3,4,1,5.6c0.7,1.7,1.6,3,2.9,4.2
		c1.2,1.1,2.7,2,4.4,2.6c1.7,0.6,3.6,0.8,5.6,0.8H1040.7z"/>
	<path fill="#FFFFFF" d="M1078,244.3c1.3-0.5,2.4-1.2,3.3-2.1c0.9-0.9,1.6-2,2.1-3.3c0.5-1.3,0.7-2.8,0.8-4.5c0-1.4,0.1-2.8,0.1-4.2
		c0.1-1.5,0.1-2.9,0.2-4.2c0-1.4,0.1-2.7,0.2-3.9c0.1-1.2,0.1-2.2,0.2-3.1c-0.4,0.1-0.8,0.2-1.1,0.2c-0.2,0-0.5,0-0.7-0.1
		c-0.2,0-0.5-0.1-0.8-0.1c0.1,0.7,0.2,2,0.2,3.9c0,1.9,0,4.6,0,8.1c0,0.8,0,1.6,0,2.5c0,0.9-0.1,1.8-0.3,2.8
		c-0.1,0.9-0.4,1.8-0.7,2.6c-0.3,0.8-0.8,1.6-1.4,2.2c-0.6,0.6-1.4,1.2-2.3,1.6c-0.9,0.4-2.1,0.6-3.4,0.6c-1.4,0-2.6-0.2-3.5-0.5
		c-0.9-0.3-1.7-0.8-2.3-1.4s-1.1-1.3-1.4-2c-0.3-0.8-0.6-1.6-0.7-2.5c-0.2-0.9-0.2-1.7-0.3-2.6c0-0.9,0-1.8,0-2.6c0-1.4,0-2.7,0-4
		c0-1.3,0.1-2.5,0.1-3.6c0.1-1.1,0.1-2.1,0.2-3s0.1-1.6,0.2-2.1c-0.3,0-0.5,0.1-0.8,0.1c-0.3,0-0.5,0.1-0.8,0.1c-0.3,0-0.6,0-1-0.1
		c-0.3,0-0.7-0.1-1-0.1c0,1.1,0.1,2.5,0.1,4.1c0.1,1.6,0.1,3.5,0.1,5.5c0,0.9,0,1.9-0.1,2.8c-0.1,0.9-0.1,1.9-0.1,3.1
		c0,3.6,0.8,6.3,2.5,8c1.7,1.7,4.4,2.5,8.1,2.5C1075.2,245.1,1076.7,244.8,1078,244.3"/>
	<path fill="#FFFFFF" d="M1108.7,242.4c-0.6,0.1-1.3,0.2-2.1,0.3c-0.8,0.1-1.7,0.1-2.6,0.2s-1.8,0.1-2.8,0.1h-2.6
		c0-0.5,0-1.2-0.1-2.1c0-0.9,0-2.1,0-3.5v-2.2v-1.4c0-0.4,0-0.7,0-1c0-0.3,0-0.5,0-0.7c0.4,0,1,0,1.8,0c0.8,0,1.6,0,2.4,0
		c0.9,0,1.7,0,2.6,0.1c0.9,0.1,1.6,0.1,2.3,0.2c-0.1-0.4-0.1-0.7-0.1-1.1c0-0.4,0-0.8,0.1-1.2c-0.5,0-1.1,0.1-1.7,0.1
		c-0.6,0-1.3,0.1-2,0.1c-0.7,0-1.5,0.1-2.4,0.1c-0.9,0-1.8,0-2.9,0c0-0.5,0-1.2,0-2.1c0-0.9,0-1.9,0-2.8c0-0.9,0-1.7,0.1-2.5
		c0-0.7,0.1-1.5,0.1-2.3c1.2,0,2.3,0,3.1,0.1c0.9,0,1.7,0.1,2.4,0.1c0.7,0,1.4,0.1,2.1,0.1c0.7,0.1,1.4,0.1,2.2,0.2
		c-0.1-0.4-0.1-0.7-0.1-1.1c0-0.4,0-0.7,0.1-1.1c-1.1,0-2.2,0.1-3.3,0.1c-1.1,0-2.2,0.1-3.3,0.1s-2.2,0-3.3-0.1
		c-1.1,0-2.2-0.1-3.3-0.1c0.1,1.6,0.1,3.2,0.2,4.8c0.1,1.6,0.1,3.2,0.1,4.8v6.4c0,1.6,0,3.2-0.1,4.8c-0.1,1.6-0.1,3.2-0.2,4.7
		c1.1,0,2.3-0.1,3.4-0.1h3.4h3.4c1.1,0,2.2,0,3.3,0.1c-0.1-0.2-0.1-0.6-0.1-1c0-0.2,0-0.4,0-0.6S1108.7,242.6,1108.7,242.4"/>
	<path fill="#FFFFFF" d="M1117.7,239.8c-0.1,1.6-0.1,3.2-0.2,4.7c1.1,0,2.3-0.1,3.4-0.1h3.4h3.4c1.1,0,2.2,0,3.3,0.1
		c-0.1-0.2-0.1-0.6-0.1-1c0-0.2,0-0.4,0-0.6c0-0.2,0-0.4,0.1-0.6c-0.6,0.1-1.3,0.2-2.1,0.3c-0.8,0.1-1.7,0.1-2.6,0.2
		c-0.9,0-1.8,0.1-2.8,0.1h-2.6c0-0.5,0-1.2-0.1-2.1c0-0.9,0-2.1,0-3.5v-2.2v-1.4c0-0.4,0-0.7,0-1c0-0.3,0-0.5,0-0.7c0.4,0,1,0,1.8,0
		c0.8,0,1.6,0,2.4,0c0.9,0,1.7,0,2.6,0.1c0.9,0,1.6,0.1,2.3,0.2c-0.1-0.4-0.1-0.7-0.1-1.1c0-0.4,0-0.8,0.1-1.2
		c-0.5,0-1.1,0.1-1.7,0.1c-0.6,0-1.3,0.1-2,0.1c-0.7,0-1.5,0.1-2.4,0.1c-0.9,0-1.8,0-2.9,0c0-0.5,0-1.2,0-2.1c0-0.9,0-1.9,0-2.8
		c0-0.9,0-1.7,0.1-2.5c0-0.7,0.1-1.5,0.1-2.3c1.2,0,2.3,0,3.1,0.1c0.9,0,1.7,0.1,2.4,0.1c0.7,0,1.4,0.1,2.1,0.1
		c0.7,0.1,1.4,0.1,2.2,0.2c-0.1-0.4-0.1-0.7-0.1-1.1c0-0.4,0-0.7,0.1-1.1c-1.1,0-2.2,0.1-3.3,0.1c-1.1,0-2.2,0.1-3.3,0.1
		s-2.2,0-3.3-0.1s-2.2-0.1-3.3-0.1c0.1,1.6,0.1,3.2,0.2,4.8c0.1,1.6,0.1,3.2,0.1,4.8v6.4C1117.7,236.6,1117.7,238.2,1117.7,239.8"/>
	<path fill="#FFFFFF" d="M1159.5,219c0.1,2.2,0.2,4.5,0.2,7c0,2.5,0.1,5,0.1,7.6v5.1c-1.1-1.1-2.5-2.5-4-4.1
		c-1.5-1.6-3.1-3.3-4.8-5.2c-1.7-1.8-3.4-3.7-5.1-5.5c-1.7-1.9-3.3-3.6-4.9-5.3h-0.6c0,0.8,0.1,2.1,0.1,3.8c0,1.7,0,3.8,0,6.1
		c0,0.8,0,1.7,0,2.8c0,1-0.1,2.1-0.1,3.2c0,1.1-0.1,2.2-0.2,3.3c-0.1,1.1-0.1,2.1-0.2,3c0,0.9-0.1,1.7-0.2,2.4
		c-0.1,0.7-0.1,1.1-0.2,1.4c0.4-0.1,0.9-0.1,1.4-0.1c0.5,0,0.9,0,1.3,0.1c0-0.2,0-0.6-0.1-1.1c0-0.6-0.1-1.2-0.1-2
		c0-0.7,0-1.6-0.1-2.4c0-0.9,0-1.7-0.1-2.6c0-0.8,0-1.6,0-2.4c0-0.8,0-1.4,0-1.9c0-2,0-3.6,0-4.8c0-1.2,0-2.1,0.1-2.8
		c3.2,3.4,6.4,6.9,9.7,10.3c3.2,3.5,6.3,6.8,9.1,10.1h0.5v-1.2c0-0.6,0-1.3,0-2.1c0-0.8,0-1.7,0-2.6c0-0.9,0-1.9,0-2.8
		c0-0.9,0-1.8,0-2.6v-2.2c0-0.7,0-1.7,0.1-2.9c0-1.2,0.1-2.4,0.2-3.6c0.1-1.2,0.1-2.4,0.2-3.5c0.1-1.1,0.1-1.9,0.2-2.5
		c-0.5,0.1-0.9,0.2-1.2,0.2C1160.4,219.2,1160,219.1,1159.5,219"/>
	<path fill="#FFFFFF" d="M1176.7,245.1c1.4,0,2.7-0.2,3.9-0.6c1.1-0.4,2.1-1,2.9-1.8c0.8-0.8,1.4-1.6,1.8-2.7c0.4-1,0.6-2.1,0.6-3.2
		c0-1.4-0.3-2.5-0.9-3.3c-0.6-0.8-1.3-1.5-2.2-2c-0.9-0.5-1.8-1-2.8-1.3c-1-0.4-1.9-0.8-2.8-1.2c-0.9-0.5-1.6-1-2.2-1.7
		c-0.6-0.7-0.9-1.6-0.9-2.8c0-0.7,0.1-1.3,0.4-1.9s0.6-1.1,1-1.5c0.4-0.4,0.9-0.7,1.5-0.9c0.6-0.2,1.2-0.3,1.9-0.3
		c0.7,0,1.3,0.1,1.8,0.4s0.9,0.5,1.3,0.9c0.4,0.3,0.6,0.7,0.9,1.1c0.2,0.4,0.4,0.8,0.5,1.1h0.4c0.1-0.7,0.3-1.3,0.4-1.8
		s0.3-0.9,0.6-1.3c-0.7-0.6-1.6-1-2.4-1.3c-0.9-0.3-1.9-0.4-3.1-0.4c-1.2,0-2.4,0.2-3.3,0.5c-1,0.3-1.8,0.8-2.5,1.5
		c-0.7,0.6-1.2,1.4-1.6,2.2c-0.4,0.9-0.6,1.8-0.6,2.8c0,1.5,0.3,2.6,0.9,3.5c0.6,0.9,1.3,1.6,2.2,2.1c0.9,0.6,1.8,1,2.8,1.4
		c1,0.4,1.9,0.8,2.8,1.2c0.9,0.4,1.6,1,2.2,1.7c0.6,0.7,0.9,1.6,0.9,2.7c0,0.7-0.1,1.4-0.4,2.1c-0.2,0.7-0.6,1.2-1.1,1.7
		c-0.5,0.5-1,0.9-1.7,1.2c-0.7,0.3-1.4,0.4-2.2,0.4c-0.8,0-1.5-0.1-2.2-0.4c-0.6-0.2-1.2-0.5-1.7-0.9c-0.5-0.4-0.9-0.8-1.2-1.2
		c-0.3-0.5-0.6-0.9-0.8-1.4h-0.4c-0.1,0.7-0.2,1.3-0.2,1.8c-0.1,0.5-0.2,1-0.5,1.5c0.6,0.5,1.4,1,2.4,1.4
		C1173.9,244.8,1175.2,245.1,1176.7,245.1"/>
	<path fill="#FFFFFF" d="M1194.6,239.9c-0.1,1.6-0.1,3.1-0.2,4.7c1.2-0.1,2.3-0.1,3.4-0.1h3.4h3.4c1.1,0,2.3,0,3.4,0.1
		c-0.1-0.4-0.2-0.7-0.2-1c0-0.3,0.1-0.7,0.2-1.1c-1.9,0.3-3.6,0.4-5.2,0.4c-1.6,0-3.3,0.1-5.1,0.1c0-1.8,0-3.9-0.1-6.2
		c0-2.3,0-5,0-8.1c0-1.6,0-3.2,0.1-4.8c0.1-1.6,0.1-3.2,0.2-4.8c-0.3,0.1-0.6,0.1-0.9,0.1c-0.3,0-0.6,0.1-0.9,0.1s-0.6,0-0.9-0.1
		c-0.3,0-0.6-0.1-0.9-0.1c0.1,1.6,0.1,3.2,0.2,4.8c0.1,1.6,0.1,3.2,0.1,4.8v6.4C1194.7,236.7,1194.7,238.3,1194.6,239.9"/>
	<path fill="#FFFFFF" d="M1227.1,233.1c-0.7,0-1.4,0-2.1,0c-0.6,0-1.3,0-2,0c-0.7,0-1.4,0-2,0l4.1-9.5l4.1,9.5
		C1228.5,233,1227.8,233,1227.1,233.1 M1235.5,244.5h1c0.3,0,0.6,0,1,0.1c-0.3-0.6-0.7-1.5-1.2-2.6c-0.5-1.1-1.1-2.4-1.7-3.9
		c-0.6-1.5-1.3-3-2-4.7c-0.7-1.7-1.4-3.4-2.2-5.1c-0.7-1.7-1.4-3.4-2.1-5.1c-0.7-1.7-1.3-3.2-1.9-4.7h-0.7
		c-1.9,4.4-3.9,8.8-5.8,13.1c-1.9,4.3-3.9,8.6-5.9,13c0.4,0,0.9-0.1,1.4-0.1c0.5,0,1,0,1.4,0.1c0.3-1.1,0.8-2.6,1.5-4.3
		c0.6-1.7,1.4-3.6,2.2-5.5c0.8,0,1.5,0,2.3-0.1c0.7,0,1.5,0,2.3,0c0.8,0,1.6,0,2.5,0c0.8,0,1.6,0,2.4,0.1c0.3,0.8,0.7,1.7,1,2.6
		c0.4,0.9,0.7,1.8,1.1,2.7c0.4,0.9,0.7,1.7,1,2.5c0.3,0.8,0.5,1.5,0.7,2.1c0.3,0,0.7-0.1,1-0.1H1235.5z"/>
	<path fill="#FFFFFF" d="M1266.9,245.1v-1.2c0-0.6,0-1.3,0-2.1c0-0.8,0-1.7,0-2.6c0-0.9,0-1.9,0-2.8c0-0.9,0-1.8,0-2.6v-2.2
		c0-0.7,0-1.7,0.1-2.9c0.1-1.2,0.1-2.4,0.2-3.6c0.1-1.2,0.1-2.4,0.2-3.5c0.1-1.1,0.1-1.9,0.2-2.5c-0.5,0.1-0.9,0.2-1.2,0.2
		c-0.3,0-0.8-0.1-1.3-0.2c0.1,2.2,0.2,4.5,0.2,7c0,2.5,0.1,5,0.1,7.6v5.1c-1.1-1.1-2.5-2.5-4-4.2c-1.5-1.6-3.1-3.3-4.8-5.2
		c-1.7-1.8-3.4-3.7-5.1-5.5c-1.7-1.9-3.3-3.6-4.9-5.3h-0.6c0,0.8,0.1,2.1,0.1,3.8c0,1.7,0,3.8,0,6.1c0,0.8,0,1.7,0,2.8
		c0,1-0.1,2.1-0.1,3.2c0,1.1-0.1,2.2-0.2,3.3c-0.1,1.1-0.1,2.1-0.2,3c0,0.9-0.1,1.7-0.2,2.4c-0.1,0.7-0.1,1.1-0.2,1.4
		c0.4,0,0.9-0.1,1.4-0.1c0.5,0,0.9,0,1.3,0.1c0-0.2,0-0.6-0.1-1.1c0-0.6,0-1.2-0.1-2c0-0.7,0-1.6-0.1-2.4c0-0.9,0-1.7-0.1-2.6
		c0-0.8,0-1.6,0-2.4c0-0.8,0-1.4,0-1.9c0-2,0-3.6,0-4.8c0-1.2,0.1-2.1,0.1-2.8c3.2,3.4,6.5,6.9,9.7,10.3c3.2,3.5,6.3,6.8,9.1,10.1
		H1266.9z"/>
	<path fill="#FFFFFF" d="M1296.5,237.3c-0.7,1.6-1.6,2.8-2.6,3.7c-1.1,0.9-2.3,1.5-3.7,1.8c-1.4,0.3-2.7,0.5-4.1,0.5
		c-0.9,0-1.9,0-2.8-0.1c-0.9-0.1-1.6-0.2-2.1-0.3c-0.2-2.6-0.2-5.2-0.2-7.9v-6.4c0-1.3,0-2.7,0.1-4c0-1.3,0.1-2.5,0.2-3.7
		c0.8-0.1,1.6-0.2,2.6-0.3c1-0.1,2-0.1,3.1-0.1c1.5,0,3,0.2,4.2,0.5c1.3,0.3,2.4,0.9,3.3,1.7c0.9,0.8,1.7,1.9,2.2,3.3
		c0.5,1.4,0.8,3.2,0.8,5.3C1297.5,233.8,1297.2,235.8,1296.5,237.3 M1300.5,226.2c-0.5-1.5-1.2-2.8-2.2-3.9c-1-1.1-2.3-1.9-3.8-2.4
		c-1.5-0.6-3.4-0.9-5.6-0.9c-0.9,0-1.9,0-2.8,0.1c-0.9,0.1-1.9,0.1-2.8,0.1c-0.9,0-1.9,0-2.8-0.1c-0.9,0-1.9-0.1-2.8-0.1
		c0.1,1.6,0.1,3.2,0.2,4.8c0.1,1.6,0.1,3.2,0.1,4.8v6.4c0,1.6,0,3.3-0.1,4.8c-0.1,1.6-0.1,3.1-0.2,4.7c0.8,0,1.7-0.1,2.5-0.1h2.5
		c0.8,0,1.7,0,2.5,0c0.8,0,1.6,0,2.5,0c1.5,0,3-0.2,4.6-0.6c1.6-0.4,3.1-1.2,4.4-2.2s2.4-2.4,3.3-4.1c0.9-1.7,1.3-3.8,1.3-6.3
		C1301.2,229.4,1300.9,227.7,1300.5,226.2"/>
	<path fill="#FFFFFF" d="M1046.6,260c0.9-1,2-1.7,3.3-2.2c1.3-0.5,2.6-0.7,4.1-0.7c0.9,0,1.7,0.1,2.5,0.4c0.7,0.2,1.4,0.5,2,0.9
		c0.6,0.3,1.1,0.7,1.6,1.1c0.5,0.4,0.8,0.7,1,1l0.2-0.1c0.1-0.4,0.2-0.9,0.3-1.5c0.1-0.6,0.3-1.1,0.5-1.4c-1-0.5-2.2-0.9-3.6-1.2
		c-1.4-0.3-2.8-0.5-4.5-0.5c-2.1,0-3.9,0.3-5.7,0.9c-1.7,0.6-3.2,1.5-4.4,2.6c-1.2,1.1-2.2,2.5-2.9,4.2c-0.7,1.6-1,3.5-1,5.6
		s0.3,4,1,5.6c0.7,1.7,1.6,3,2.8,4.2c1.2,1.1,2.6,2,4.3,2.5c1.7,0.6,3.5,0.8,5.4,0.8c0.9,0,1.8-0.1,2.6-0.2c0.8-0.1,1.6-0.3,2.3-0.5
		c0.7-0.2,1.3-0.4,1.7-0.6c0.5-0.2,0.8-0.5,1.1-0.6l0.3-2.2l-0.1-0.1c-0.3,0.3-0.8,0.6-1.3,0.9c-0.5,0.4-1.1,0.7-1.7,1
		c-0.6,0.3-1.3,0.6-2.1,0.8c-0.8,0.2-1.6,0.3-2.5,0.3c-1.5,0-2.8-0.2-4.1-0.7c-1.3-0.5-2.3-1.2-3.3-2.2c-0.9-1-1.7-2.2-2.2-3.7
		c-0.5-1.5-0.8-3.3-0.8-5.3c0-2.1,0.3-3.8,0.8-5.3C1044.9,262.2,1045.6,261,1046.6,260"/>
	<path fill="#FFFFFF" d="M1076,268.2c-0.5,0-0.9,0-1.4,0c-0.4,0-0.8-0.1-1.1-0.1v-2.1c0-1.3,0-2.7,0.1-4c0-1.3,0.1-2.7,0.2-4.1
		c0.4,0,0.9-0.1,1.4-0.1c0.6,0,1.3-0.1,2.2-0.1c0.6,0,1.3,0.1,2,0.2c0.7,0.1,1.3,0.4,1.9,0.8c0.6,0.4,1,0.9,1.4,1.5
		c0.4,0.6,0.5,1.4,0.5,2.4c0,1.1-0.2,2-0.7,2.8c-0.5,0.7-1,1.3-1.7,1.8s-1.5,0.7-2.3,0.9C1077.6,268.1,1076.8,268.2,1076,268.2
		 M1085.8,278c-0.6-0.8-1.3-1.6-2-2.5c-0.7-0.9-1.4-1.7-2-2.5c-0.6-0.8-1.2-1.5-1.7-2.2c-0.5-0.7-0.9-1.2-1.2-1.6
		c0.7-0.1,1.5-0.3,2.4-0.6c0.9-0.3,1.7-0.7,2.5-1.3c0.8-0.6,1.4-1.3,2-2.1c0.5-0.9,0.8-1.9,0.8-3.1c0-1.1-0.2-2-0.6-2.8
		c-0.4-0.7-1-1.3-1.7-1.8c-0.7-0.5-1.5-0.8-2.5-1c-0.9-0.2-1.9-0.3-3-0.3c-0.7,0-1.4,0-2.1,0.1c-0.7,0.1-1.4,0.1-2.1,0.1
		s-1.4,0-2.1-0.1c-0.7,0-1.4-0.1-2.1-0.1c0.1,1.6,0.1,3.2,0.2,4.8c0.1,1.6,0.1,3.2,0.1,4.8v6.4c0,1.6,0,3.3-0.1,4.8
		c-0.1,1.6-0.1,3.1-0.2,4.7c0.6-0.1,1.2-0.1,1.8-0.1s1.3,0,1.8,0.1c-0.1-1.5-0.1-3.1-0.2-4.7c-0.1-1.6-0.1-3.2-0.1-4.8v-2.7h1.4
		c0.8,0.8,1.7,1.8,2.6,3c1,1.2,1.9,2.4,2.8,3.6s1.8,2.3,2.5,3.3c0.8,1,1.3,1.8,1.7,2.3c0.3-0.1,0.7-0.1,1.1-0.1h1.1h1.1
		c0.4,0,0.7,0,1.1,0.1c-0.3-0.3-0.8-0.9-1.4-1.5C1087,279.6,1086.4,278.8,1085.8,278"/>
	<path fill="#FFFFFF" d="M1100,261c0.1-1.6,0.1-3.2,0.2-4.8c-0.3,0-0.6,0.1-0.9,0.1c-0.3,0-0.6,0.1-0.9,0.1c-0.3,0-0.6,0-0.9-0.1
		c-0.3,0-0.6-0.1-0.9-0.1c0.1,1.6,0.1,3.2,0.2,4.8c0.1,1.6,0.1,3.2,0.1,4.8v6.4c0,1.6,0,3.3-0.1,4.8c-0.1,1.6-0.1,3.1-0.2,4.7
		c0.6,0,1.2-0.1,1.8-0.1c0.6,0,1.3,0,1.8,0.1c-0.1-1.5-0.1-3.1-0.2-4.7c-0.1-1.6-0.1-3.2-0.1-4.8v-6.4
		C1099.9,264.2,1099.9,262.6,1100,261"/>
	<path fill="#FFFFFF" d="M1122.3,282.3c0.9,0,1.8-0.1,2.6-0.2c0.8-0.1,1.6-0.3,2.3-0.5c0.7-0.2,1.3-0.4,1.7-0.6s0.8-0.5,1.1-0.7
		l0.3-2.2l-0.1-0.1c-0.3,0.3-0.8,0.6-1.3,0.9c-0.5,0.4-1.1,0.7-1.7,1c-0.6,0.3-1.3,0.6-2.1,0.8c-0.8,0.2-1.6,0.3-2.5,0.3
		c-1.5,0-2.8-0.2-4.1-0.7c-1.3-0.5-2.3-1.2-3.3-2.2c-0.9-1-1.7-2.2-2.2-3.7c-0.5-1.5-0.8-3.3-0.8-5.3c0-2.1,0.3-3.8,0.8-5.3
		c0.5-1.5,1.2-2.7,2.2-3.7c0.9-1,2-1.7,3.3-2.2c1.3-0.5,2.6-0.7,4.1-0.7c0.9,0,1.7,0.1,2.5,0.4c0.7,0.2,1.4,0.5,2,0.9
		c0.6,0.3,1.1,0.7,1.6,1.1c0.5,0.4,0.8,0.7,1,1l0.2-0.1c0.1-0.4,0.2-0.9,0.3-1.5c0.1-0.6,0.3-1.1,0.5-1.4c-1-0.5-2.2-0.9-3.6-1.2
		c-1.4-0.3-2.8-0.5-4.5-0.5c-2.1,0-3.9,0.3-5.7,0.9c-1.7,0.6-3.2,1.5-4.4,2.6c-1.2,1.1-2.2,2.5-2.9,4.2c-0.7,1.7-1,3.5-1,5.6
		s0.3,4,1,5.6c0.7,1.7,1.6,3,2.8,4.2c1.2,1.1,2.6,2,4.3,2.5C1118.5,282,1120.3,282.3,1122.3,282.3"/>
	<path fill="#FFFFFF" d="M1145.6,267.8c0.7-0.8,1.5-1.7,2.5-2.7c1-1,2.1-2.1,3.2-3.1c1.1-1.1,2.2-2.1,3.3-3.1c1.1-1,2.1-1.9,2.9-2.6
		c-0.3,0-0.6,0.1-0.9,0.1c-0.3,0-0.6,0.1-0.9,0.1c-0.2,0-0.5,0-0.7-0.1c-0.2,0-0.5-0.1-0.8-0.1c-0.9,1-1.8,2-2.7,3.1
		c-0.9,1.1-1.9,2.1-2.9,3.1c-1,1-1.9,2-2.9,2.9c-1,0.9-1.9,1.8-2.7,2.5c-0.2,0.2-0.4,0.3-0.5,0.3c-0.2,0-0.2-0.1-0.2-0.3v-2
		c0-1.6,0-3.2,0.1-4.8c0.1-1.6,0.1-3.2,0.2-4.8c-0.3,0-0.6,0.1-0.9,0.1c-0.3,0-0.6,0.1-0.9,0.1c-0.3,0-0.6,0-0.9-0.1
		c-0.3,0-0.6-0.1-0.9-0.1c0.1,1.6,0.1,3.2,0.2,4.8c0.1,1.6,0.1,3.2,0.1,4.8v6.4c0,1.6,0,3.3-0.1,4.8c-0.1,1.6-0.1,3.1-0.2,4.7
		c0.6,0,1.2-0.1,1.8-0.1c0.6,0,1.3,0,1.8,0.1c-0.1-1.5-0.1-3.1-0.2-4.7c-0.1-1.6-0.1-3.2-0.1-4.8V269c0-0.2,0.1-0.2,0.2-0.2
		c0.1,0,0.2,0.1,0.4,0.3c0.4,0.4,1,1.1,1.8,2.1c0.8,1,1.8,2.1,2.8,3.3c1,1.2,2.1,2.5,3.2,3.8c1.1,1.3,2.1,2.5,3,3.5
		c0.3,0,0.7-0.1,1-0.1h1h1.1c0.4,0,0.7,0,1.1,0.1c-2.1-2.4-4.2-4.7-6.2-7.1C1149.7,272.4,1147.6,270.1,1145.6,267.8"/>
	<path fill="#FFFFFF" d="M1165.5,277c-0.1,1.6-0.1,3.2-0.2,4.7c1.1,0,2.3-0.1,3.4-0.1h3.4h3.4c1.1,0,2.2,0,3.3,0.1
		c-0.1-0.2-0.1-0.6-0.1-1c0-0.2,0-0.4,0-0.6c0-0.2,0-0.4,0.1-0.6c-0.6,0.1-1.3,0.2-2.1,0.3c-0.8,0.1-1.7,0.1-2.6,0.2
		c-0.9,0-1.8,0.1-2.8,0.1h-2.6c0-0.5,0-1.2-0.1-2.1s0-2.1,0-3.5v-2.2v-1.5c0-0.4,0-0.7,0-1c0-0.3,0-0.5,0-0.7c0.4,0,1.1,0,1.8,0
		s1.6,0,2.4,0c0.9,0,1.7,0,2.6,0.1c0.9,0,1.6,0.1,2.3,0.2c-0.1-0.4-0.1-0.7-0.1-1.1c0-0.4,0-0.8,0.1-1.2c-0.5,0-1.1,0.1-1.7,0.1
		c-0.6,0-1.3,0.1-2,0.1c-0.7,0-1.5,0.1-2.4,0.1c-0.9,0-1.8,0-2.9,0c0-0.5,0-1.2,0-2.1s0-1.9,0-2.8c0-0.9,0-1.7,0.1-2.5
		c0-0.7,0.1-1.5,0.1-2.3c1.2,0,2.3,0,3.1,0.1c0.9,0,1.7,0.1,2.4,0.1c0.7,0,1.4,0.1,2.1,0.1c0.7,0.1,1.4,0.1,2.2,0.2
		c-0.1-0.4-0.1-0.7-0.1-1.1c0-0.4,0-0.7,0.1-1.1c-1.1,0-2.2,0.1-3.3,0.1c-1.1,0-2.2,0.1-3.3,0.1c-1.1,0-2.2,0-3.3-0.1
		c-1.1,0-2.2-0.1-3.3-0.1c0.1,1.6,0.1,3.2,0.2,4.8s0.1,3.2,0.1,4.8v6.4C1165.6,273.9,1165.5,275.5,1165.5,277"/>
	<path fill="#FFFFFF" d="M1196,272.3v-6.4c0-2.6,0-5.2,0.1-7.7c0.6,0,1.3,0,2,0s1.4,0,2.1,0.1c0.7,0,1.4,0.1,2,0.1
		c0.7,0.1,1.3,0.1,1.8,0.2c-0.1-0.4-0.2-0.8-0.2-1.2c0-0.3,0.1-0.7,0.2-1.2c-1.6,0.1-3.2,0.1-4.8,0.1c-1.6,0-3.2,0.1-4.8,0.1
		c-1.6,0-3.2,0-4.8-0.1c-1.6,0-3.2-0.1-4.8-0.1c0.1,0.5,0.2,0.9,0.2,1.2c0,0.3-0.1,0.7-0.2,1.2c0.5-0.1,1.1-0.1,1.8-0.2
		c0.7,0,1.3-0.1,2-0.1c0.7,0,1.4-0.1,2.1-0.1c0.7,0,1.4,0,2,0c0.1,2.6,0.1,5.1,0.1,7.7v6.4c0,1.6,0,3.2-0.1,4.8
		c-0.1,1.6-0.1,3.2-0.2,4.7c0.6-0.1,1.2-0.1,1.8-0.1s1.3,0,1.8,0.1c-0.1-1.5-0.1-3.1-0.2-4.7C1196,275.5,1196,273.9,1196,272.3"/>
	<path fill="#FFFFFF" d="M1225.3,279.7c-0.6,0.1-1.3,0.2-2.1,0.3c-0.8,0.1-1.7,0.1-2.6,0.2c-0.9,0-1.8,0.1-2.8,0.1h-2.6
		c0-0.5,0-1.2-0.1-2.1c0-0.9,0-2.1,0-3.5v-2.2v-1.5c0-0.4,0-0.7,0-1c0-0.3,0-0.5,0-0.7c0.4,0,1.1,0,1.8,0c0.8,0,1.6,0,2.4,0
		c0.9,0,1.7,0,2.6,0.1c0.9,0.1,1.6,0.1,2.3,0.2c-0.1-0.4-0.1-0.7-0.1-1.1c0-0.4,0-0.8,0.1-1.2c-0.5,0-1.1,0.1-1.7,0.1
		c-0.6,0-1.3,0.1-2,0.1c-0.7,0-1.5,0.1-2.4,0.1c-0.9,0-1.8,0-2.9,0c0-0.5,0-1.2,0-2.1c0-0.9,0-1.9,0-2.8c0-0.9,0-1.7,0.1-2.5
		c0-0.7,0.1-1.5,0.1-2.3c1.2,0,2.3,0,3.1,0.1c0.9,0,1.7,0.1,2.4,0.1c0.7,0,1.4,0.1,2.1,0.1c0.7,0.1,1.4,0.1,2.2,0.2
		c-0.1-0.4-0.1-0.7-0.1-1.1c0-0.4,0-0.7,0.1-1.1c-1.1,0-2.2,0.1-3.3,0.1c-1.1,0-2.2,0.1-3.3,0.1c-1.1,0-2.2,0-3.3-0.1
		c-1.1,0-2.2-0.1-3.3-0.1c0.1,1.6,0.1,3.2,0.2,4.8c0.1,1.6,0.1,3.2,0.1,4.8v6.4c0,1.6,0,3.2-0.1,4.8c-0.1,1.6-0.1,3.2-0.2,4.7
		c1.1,0,2.3-0.1,3.4-0.1h3.4h3.4c1.1,0,2.2,0,3.3,0.1c-0.1-0.2-0.1-0.6-0.1-1c0-0.2,0-0.4,0-0.6
		C1225.2,280,1225.2,279.8,1225.3,279.7"/>
	<path fill="#FFFFFF" d="M1239.8,268.2c-0.5,0-0.9,0-1.4,0c-0.4,0-0.8-0.1-1.1-0.1v-2.1c0-1.3,0-2.7,0.1-4c0-1.3,0.1-2.7,0.1-4.1
		c0.4,0,0.9-0.1,1.5-0.1c0.6,0,1.3-0.1,2.2-0.1c0.6,0,1.3,0.1,2,0.2c0.7,0.1,1.3,0.4,1.9,0.8c0.6,0.4,1,0.9,1.4,1.5
		c0.4,0.6,0.5,1.4,0.5,2.4c0,1.1-0.2,2-0.7,2.8c-0.5,0.7-1,1.3-1.7,1.8c-0.7,0.4-1.5,0.7-2.3,0.9
		C1241.4,268.1,1240.6,268.2,1239.8,268.2 M1249.6,278c-0.6-0.8-1.3-1.6-2-2.5c-0.7-0.9-1.4-1.7-2-2.5c-0.6-0.8-1.2-1.5-1.7-2.2
		c-0.5-0.7-0.9-1.2-1.2-1.6c0.7-0.1,1.5-0.3,2.4-0.6c0.9-0.3,1.7-0.7,2.5-1.3c0.8-0.6,1.4-1.3,2-2.1s0.8-1.9,0.8-3.1
		c0-1.1-0.2-2-0.6-2.8c-0.4-0.7-1-1.3-1.7-1.8c-0.7-0.5-1.5-0.8-2.5-1c-0.9-0.2-1.9-0.3-3-0.3c-0.7,0-1.4,0-2.1,0.1
		c-0.7,0.1-1.4,0.1-2.1,0.1c-0.7,0-1.4,0-2.1-0.1c-0.7,0-1.4-0.1-2.1-0.1c0.1,1.6,0.1,3.2,0.2,4.8c0.1,1.6,0.1,3.2,0.1,4.8v6.4
		c0,1.6,0,3.3-0.1,4.8c-0.1,1.6-0.1,3.1-0.2,4.7c0.6-0.1,1.2-0.1,1.8-0.1c0.6,0,1.3,0,1.8,0.1c-0.1-1.5-0.1-3.1-0.2-4.7
		c-0.1-1.6-0.1-3.2-0.1-4.8v-2.7h1.4c0.8,0.8,1.7,1.8,2.6,3c1,1.2,1.9,2.4,2.8,3.6s1.8,2.3,2.5,3.3c0.8,1,1.3,1.8,1.7,2.3
		c0.3-0.1,0.7-0.1,1.1-0.1h1.1h1.1c0.4,0,0.7,0,1.1,0.1c-0.3-0.3-0.8-0.9-1.4-1.5C1250.8,279.6,1250.2,278.8,1249.6,278"/>
	<path fill="#FFFFFF" d="M1270.9,268.7c-0.9-0.5-1.8-1-2.8-1.3c-1-0.4-1.9-0.8-2.8-1.2c-0.9-0.5-1.6-1-2.2-1.7
		c-0.6-0.7-0.9-1.6-0.9-2.8c0-0.7,0.1-1.3,0.4-1.9c0.2-0.6,0.6-1.1,1-1.5c0.4-0.4,0.9-0.7,1.5-0.9c0.6-0.2,1.2-0.3,1.9-0.3
		c0.7,0,1.3,0.1,1.8,0.4c0.5,0.2,0.9,0.5,1.3,0.9c0.4,0.4,0.6,0.7,0.8,1.1c0.2,0.4,0.4,0.8,0.5,1.1h0.4c0.2-0.7,0.3-1.3,0.4-1.8
		c0.2-0.5,0.3-0.9,0.6-1.3c-0.7-0.6-1.6-1-2.4-1.3c-0.9-0.3-1.9-0.4-3.1-0.4c-1.2,0-2.4,0.2-3.3,0.5c-1,0.3-1.8,0.8-2.5,1.4
		c-0.7,0.6-1.2,1.4-1.6,2.2c-0.4,0.9-0.6,1.8-0.6,2.8c0,1.5,0.3,2.6,0.9,3.5c0.6,0.9,1.3,1.6,2.2,2.1c0.9,0.6,1.8,1,2.8,1.4
		c1,0.4,1.9,0.8,2.8,1.2c0.9,0.4,1.6,1,2.2,1.7c0.6,0.7,0.9,1.6,0.9,2.7c0,0.7-0.1,1.4-0.4,2.1c-0.2,0.7-0.6,1.2-1.1,1.7
		c-0.5,0.5-1,0.9-1.7,1.2c-0.7,0.3-1.4,0.4-2.2,0.4c-0.8,0-1.5-0.1-2.2-0.4c-0.6-0.2-1.2-0.5-1.7-0.9c-0.5-0.4-0.9-0.8-1.2-1.3
		c-0.3-0.5-0.6-0.9-0.8-1.4h-0.4c-0.1,0.7-0.2,1.3-0.2,1.8c-0.1,0.5-0.2,1-0.5,1.5c0.6,0.5,1.4,1,2.4,1.4c1,0.4,2.2,0.6,3.7,0.6
		c1.4,0,2.7-0.2,3.9-0.6c1.1-0.4,2.1-1,2.9-1.7c0.8-0.8,1.4-1.6,1.8-2.7c0.4-1,0.6-2.1,0.6-3.2c0-1.4-0.3-2.5-0.9-3.3
		C1272.5,269.9,1271.7,269.2,1270.9,268.7"/>
	<path fill="#FFFFFF" d="M1119.2,297.2c0.9-1,2-1.7,3.3-2.2c1.3-0.5,2.6-0.7,4.1-0.7c0.9,0,1.7,0.1,2.5,0.4c0.7,0.2,1.4,0.5,2,0.9
		c0.6,0.3,1.1,0.7,1.6,1.1c0.5,0.4,0.8,0.7,1,1l0.2-0.1c0.1-0.4,0.2-0.9,0.3-1.5c0.1-0.6,0.3-1.1,0.5-1.4c-1-0.5-2.2-0.9-3.6-1.2
		c-1.4-0.3-2.8-0.5-4.5-0.5c-2.1,0-3.9,0.3-5.7,0.9c-1.7,0.6-3.2,1.5-4.4,2.6c-1.2,1.1-2.2,2.5-2.9,4.2c-0.7,1.7-1,3.5-1,5.6
		s0.3,4,1,5.6c0.7,1.6,1.6,3,2.8,4.2c1.2,1.1,2.6,2,4.3,2.5c1.7,0.6,3.5,0.8,5.4,0.8c0.9,0,1.8-0.1,2.6-0.2c0.8-0.1,1.6-0.3,2.3-0.5
		c0.7-0.2,1.3-0.4,1.7-0.6c0.5-0.2,0.8-0.5,1.1-0.6l0.3-2.2l-0.2-0.1c-0.3,0.3-0.8,0.6-1.3,0.9c-0.5,0.4-1.1,0.7-1.7,1
		c-0.6,0.3-1.3,0.6-2.1,0.8c-0.8,0.2-1.6,0.3-2.5,0.3c-1.5,0-2.8-0.2-4.1-0.7c-1.3-0.5-2.3-1.2-3.3-2.2c-0.9-1-1.7-2.2-2.2-3.7
		c-0.5-1.5-0.8-3.3-0.8-5.3c0-2.1,0.3-3.8,0.8-5.3C1117.5,299.4,1118.2,298.2,1119.2,297.2"/>
	<path fill="#FFFFFF" d="M1151.3,317.3c-1.6,0-3.3,0.1-5.1,0.1c0-1.8,0-3.9-0.1-6.2c0-2.3,0-5,0-8.1c0-1.6,0-3.2,0.1-4.8
		c0.1-1.6,0.1-3.2,0.2-4.8c-0.3,0.1-0.6,0.1-0.9,0.1s-0.6,0.1-0.9,0.1c-0.3,0-0.6,0-0.9-0.1s-0.6-0.1-0.9-0.1
		c0.1,1.6,0.1,3.2,0.2,4.8c0.1,1.6,0.1,3.2,0.1,4.8v6.4c0,1.6,0,3.3-0.1,4.8c-0.1,1.6-0.1,3.1-0.2,4.7c1.2-0.1,2.3-0.1,3.4-0.1h3.4
		h3.4c1.1,0,2.3,0,3.4,0.1c-0.1-0.4-0.2-0.7-0.2-1c0-0.3,0.1-0.7,0.2-1.1C1154.7,317.1,1152.9,317.3,1151.3,317.3"/>
	<path fill="#FFFFFF" d="M1185.2,293.6c-0.2,0-0.5-0.1-0.8-0.1c0.1,0.7,0.2,2,0.2,3.9c0,1.9,0,4.6,0,8.1c0,0.8,0,1.6,0,2.5
		c0,0.9-0.1,1.8-0.3,2.8c-0.1,0.9-0.4,1.8-0.7,2.6c-0.3,0.8-0.8,1.6-1.4,2.2c-0.6,0.6-1.4,1.2-2.3,1.6c-0.9,0.4-2.1,0.6-3.4,0.6
		c-1.4,0-2.6-0.2-3.5-0.5c-0.9-0.3-1.7-0.8-2.3-1.4c-0.6-0.6-1.1-1.3-1.4-2c-0.3-0.8-0.6-1.6-0.7-2.5c-0.1-0.9-0.2-1.7-0.3-2.6
		c0-0.9,0-1.8,0-2.6c0-1.4,0-2.7,0-4c0-1.3,0.1-2.5,0.1-3.6c0-1.1,0.1-2.1,0.1-3s0.1-1.6,0.2-2.1c-0.3,0.1-0.5,0.1-0.8,0.1
		c-0.3,0-0.5,0.1-0.8,0.1c-0.3,0-0.6,0-1-0.1c-0.3,0-0.7-0.1-1-0.1c0,1.1,0.1,2.5,0.1,4.1c0.1,1.6,0.1,3.5,0.1,5.5
		c0,0.9,0,1.9-0.1,2.8c-0.1,0.9-0.1,1.9-0.1,3.1c0,3.6,0.8,6.3,2.5,8c1.7,1.7,4.4,2.5,8.1,2.5c1.7,0,3.2-0.2,4.5-0.7
		c1.3-0.5,2.4-1.2,3.3-2.1c0.9-0.9,1.6-2,2.1-3.3c0.5-1.3,0.7-2.8,0.8-4.5c0-1.4,0.1-2.8,0.1-4.2c0.1-1.5,0.1-2.9,0.1-4.2
		c0.1-1.4,0.1-2.7,0.2-3.9c0.1-1.2,0.2-2.2,0.2-3.1c-0.4,0.1-0.8,0.2-1.1,0.2C1185.7,293.6,1185.5,293.6,1185.2,293.6"/>
	<path fill="#FFFFFF" d="M1210.3,314.1c-0.3,0.8-0.8,1.4-1.3,2c-0.5,0.5-1.2,0.9-1.9,1.2c-0.7,0.3-1.5,0.4-2.3,0.4
		c-0.7,0-1.3,0-2-0.1c-0.6,0-1.2-0.1-1.7-0.1c-0.1-1.3-0.1-2.5-0.2-3.8c0-1.2-0.1-2.5-0.1-3.8v-3.8h1.7c1.2,0,2.4,0.1,3.4,0.2
		c1,0.1,1.9,0.4,2.6,0.8c0.7,0.4,1.3,0.9,1.7,1.6c0.4,0.7,0.6,1.6,0.6,2.6C1210.8,312.5,1210.6,313.4,1210.3,314.1 M1200.9,302.1
		c0-1.2,0-2.4,0.1-3.5c0.1-1.2,0.1-2.3,0.2-3.5c0.3-0.1,0.7-0.1,1.2-0.1c0.4,0,1-0.1,1.6-0.1c0.7,0,1.4,0.1,2.2,0.2
		c0.7,0.1,1.4,0.3,1.9,0.7c0.6,0.3,1,0.8,1.4,1.4c0.4,0.6,0.6,1.4,0.6,2.4c0,1-0.2,1.9-0.6,2.6c-0.4,0.7-0.9,1.2-1.6,1.6
		c-0.7,0.4-1.4,0.7-2.3,0.9c-0.9,0.2-1.7,0.3-2.6,0.3h-2V302.1z M1212.3,307c-1.3-1-3-1.5-5.2-1.6v-0.1c1.9-0.4,3.4-1.2,4.5-2.2
		c1.2-1,1.7-2.5,1.7-4.3c0-1-0.2-1.9-0.6-2.6s-1-1.2-1.7-1.7c-0.7-0.4-1.5-0.7-2.5-0.9c-0.9-0.2-1.9-0.2-3-0.2c-0.6,0-1.3,0-2,0.1
		c-0.7,0.1-1.3,0.1-2,0.1c-0.6,0-1.3,0-2-0.1c-0.7,0-1.3-0.1-2-0.1c0.1,1.6,0.1,3.2,0.2,4.8c0.1,1.6,0.1,3.2,0.1,4.8v6.4
		c0,1.6,0,3.2-0.1,4.8c-0.1,1.6-0.1,3.2-0.2,4.7c0.6-0.1,1.2-0.1,1.8-0.1h1.8c0.6,0,1.2,0,1.8,0c0.6,0,1.2,0,1.8,0
		c1.1,0,2.2-0.1,3.3-0.4c1.1-0.2,2.1-0.6,3-1.2c0.9-0.6,1.7-1.3,2.2-2.3c0.6-0.9,0.9-2.1,0.9-3.5
		C1214.2,309.5,1213.6,307.9,1212.3,307"/>
	<path fill="#FFFFFF" d="M1282.9,255.8c-0.8,0-1.4,0.6-1.4,1.4v9.3c0,0.8,0.6,1.4,1.4,1.4c0.8,0,1.4-0.6,1.4-1.4v-9.3
		C1284.3,256.4,1283.7,255.8,1282.9,255.8"/>
</g>
</svg>
