<?xml version="1.0" encoding="utf-8"?>
<!-- Generator: Adobe Illustrator 23.1.0, SVG Export Plug-In . SVG Version: 6.00 Build 0)  -->
<svg version="1.0" id="Layer_1" xmlns="http://www.w3.org/2000/svg" xmlns:xlink="http://www.w3.org/1999/xlink" x="0px" y="0px"
	 viewBox="47 51 200 180" enable-background="new 0 0 283.5 283.5" xml:space="preserve">
<g>
	<path fill="#ffffff" d="M55.1,162.9c-0.7-0.7-1.2-1.6-1.5-2.6c-0.4-1.1-0.5-2.3-0.5-3.7c0-1.4,0.2-2.7,0.5-3.7
		c0.4-1.1,0.9-1.9,1.5-2.6c0.7-0.7,1.4-1.2,2.3-1.5c0.9-0.3,1.8-0.5,2.8-0.5c1,0,2,0.2,2.9,0.5c0.9,0.3,1.6,0.8,2.3,1.5
		c0.7,0.7,1.2,1.6,1.5,2.6c0.4,1.1,0.5,2.3,0.5,3.7c0,1.4-0.2,2.7-0.5,3.7c-0.4,1.1-0.9,1.9-1.5,2.6c-0.7,0.7-1.4,1.2-2.3,1.5
		c-0.9,0.3-1.8,0.5-2.9,0.5c-1,0-2-0.2-2.8-0.5C56.5,164.1,55.8,163.5,55.1,162.9 M60.6,165.8c0.2,0,0.3,0,0.4,0
		c1.1,0.9,2.1,1.8,3.1,2.6c1,0.9,1.9,1.7,2.9,2.6c0.1-0.2,0.4-0.5,0.8-0.7c0.4-0.2,0.8-0.4,1.3-0.4c-1.1-0.7-2.1-1.5-3-2.2
		c-1-0.7-1.9-1.5-2.9-2.2c1-0.2,2-0.5,2.8-1c0.8-0.5,1.6-1.1,2.2-1.9c0.6-0.8,1.1-1.7,1.4-2.7c0.3-1,0.5-2.1,0.5-3.3
		c0-1.5-0.2-2.8-0.7-4c-0.5-1.2-1.2-2.1-2-2.9c-0.9-0.8-1.9-1.4-3.1-1.8c-1.2-0.4-2.5-0.6-4-0.6c-1.4,0-2.7,0.2-3.9,0.6
		c-1.2,0.4-2.2,1-3.1,1.8c-0.9,0.8-1.5,1.8-2,2.9c-0.5,1.2-0.7,2.5-0.7,4s0.2,2.8,0.7,4c0.5,1.2,1.1,2.1,2,2.9
		c0.9,0.8,1.9,1.4,3.1,1.8c1.2,0.4,2.5,0.6,3.9,0.6H60.6z"/>
	<path fill="#ffffff" d="M86.8,165.3c0.9-0.3,1.7-0.8,2.3-1.5c0.6-0.6,1.1-1.4,1.4-2.3c0.3-0.9,0.5-2,0.5-3.1c0-1,0-1.9,0.1-3
		c0-1,0.1-2,0.1-3c0-1,0.1-1.9,0.1-2.7c0.1-0.8,0.1-1.6,0.2-2.2c-0.3,0.1-0.6,0.1-0.8,0.1c-0.2,0-0.3,0-0.5,0
		c-0.2,0-0.4-0.1-0.5-0.1c0.1,0.5,0.1,1.4,0.1,2.8c0,1.3,0,3.2,0,5.7c0,0.5,0,1.1,0,1.8c0,0.6-0.1,1.3-0.2,1.9
		c-0.1,0.6-0.3,1.3-0.5,1.9c-0.2,0.6-0.6,1.1-1,1.6c-0.4,0.5-1,0.8-1.6,1.1c-0.7,0.3-1.5,0.4-2.4,0.4c-1,0-1.8-0.1-2.5-0.4
		c-0.7-0.2-1.2-0.6-1.6-1c-0.4-0.4-0.8-0.9-1-1.4c-0.2-0.5-0.4-1.1-0.5-1.7c-0.1-0.6-0.2-1.2-0.2-1.9c0-0.6,0-1.2,0-1.8
		c0-1,0-1.9,0-2.8c0-0.9,0-1.7,0.1-2.5c0-0.8,0.1-1.5,0.1-2.1c0-0.6,0.1-1.1,0.1-1.5c-0.2,0-0.4,0.1-0.6,0.1c-0.2,0-0.4,0-0.6,0
		c-0.2,0-0.4,0-0.7,0c-0.2,0-0.5-0.1-0.7-0.1c0,0.8,0.1,1.7,0.1,2.9c0,1.1,0.1,2.4,0.1,3.9c0,0.7,0,1.3-0.1,1.9
		c0,0.6-0.1,1.4-0.1,2.2c0,2.6,0.6,4.4,1.8,5.6c1.2,1.2,3.1,1.8,5.7,1.8C84.8,165.8,85.8,165.6,86.8,165.3"/>
	<path fill="#ffffff" d="M108.3,163.9c-0.4,0.1-0.9,0.2-1.5,0.2c-0.6,0-1.2,0.1-1.8,0.1c-0.6,0-1.3,0-1.9,0h-1.8c0-0.3,0-0.8,0-1.5
		c0-0.6,0-1.5,0-2.5v-1.6v-1c0-0.3,0-0.5,0-0.7c0-0.2,0-0.4,0-0.5c0.3,0,0.7,0,1.3,0c0.5,0,1.1,0,1.7,0c0.6,0,1.2,0,1.8,0.1
		c0.6,0,1.1,0.1,1.6,0.1c-0.1-0.3-0.1-0.5-0.1-0.8c0-0.3,0-0.5,0.1-0.8c-0.4,0-0.8,0.1-1.2,0.1c-0.4,0-0.9,0.1-1.4,0.1
		c-0.5,0-1.1,0-1.7,0.1c-0.6,0-1.3,0-2.1,0c0-0.3,0-0.8,0-1.5c0-0.6,0-1.3,0-2c0-0.6,0-1.2,0-1.7c0-0.5,0-1,0.1-1.6
		c0.9,0,1.6,0,2.2,0c0.6,0,1.2,0.1,1.7,0.1c0.5,0,1,0.1,1.5,0.1c0.5,0,1,0.1,1.5,0.1c-0.1-0.3-0.1-0.5-0.1-0.8c0-0.3,0-0.5,0.1-0.8
		c-0.8,0-1.6,0.1-2.3,0.1c-0.8,0-1.5,0-2.3,0s-1.6,0-2.3,0c-0.8,0-1.6-0.1-2.3-0.1c0.1,1.1,0.1,2.2,0.1,3.3c0,1.1,0.1,2.2,0.1,3.4
		v4.5c0,1.1,0,2.3-0.1,3.4c0,1.1-0.1,2.2-0.1,3.3c0.8,0,1.6-0.1,2.4-0.1h2.4h2.4c0.8,0,1.6,0,2.3,0.1c-0.1-0.2-0.1-0.4-0.1-0.7
		c0-0.1,0-0.3,0-0.4C108.2,164.2,108.3,164.1,108.3,163.9"/>
	<path fill="#ffffff" d="M114.6,162.1c0,1.1-0.1,2.2-0.1,3.3c0.8,0,1.6-0.1,2.4-0.1h2.4h2.4c0.8,0,1.6,0,2.3,0.1
		c-0.1-0.2-0.1-0.4-0.1-0.7c0-0.1,0-0.3,0-0.4c0-0.1,0-0.3,0.1-0.4c-0.4,0.1-0.9,0.2-1.5,0.2c-0.6,0-1.2,0.1-1.8,0.1
		c-0.6,0-1.3,0-1.9,0h-1.8c0-0.3,0-0.8,0-1.5c0-0.6,0-1.5,0-2.5v-1.6v-1c0-0.3,0-0.5,0-0.7c0-0.2,0-0.4,0-0.5c0.3,0,0.7,0,1.3,0
		c0.5,0,1.1,0,1.7,0c0.6,0,1.2,0,1.8,0.1c0.6,0,1.1,0.1,1.6,0.1c-0.1-0.3-0.1-0.5-0.1-0.8c0-0.3,0-0.5,0.1-0.8
		c-0.4,0-0.8,0.1-1.2,0.1c-0.4,0-0.9,0.1-1.4,0.1c-0.5,0-1.1,0-1.7,0.1c-0.6,0-1.3,0-2.1,0c0-0.3,0-0.8,0-1.5c0-0.6,0-1.3,0-2
		c0-0.6,0-1.2,0-1.7c0-0.5,0-1,0.1-1.6c0.9,0,1.6,0,2.2,0c0.6,0,1.2,0.1,1.7,0.1c0.5,0,1,0.1,1.5,0.1c0.5,0,1,0.1,1.5,0.1
		c-0.1-0.3-0.1-0.5-0.1-0.8c0-0.3,0-0.5,0.1-0.8c-0.8,0-1.6,0.1-2.3,0.1c-0.8,0-1.5,0-2.3,0s-1.6,0-2.3,0c-0.8,0-1.6-0.1-2.3-0.1
		c0.1,1.1,0.1,2.2,0.1,3.3c0,1.1,0.1,2.2,0.1,3.4v4.5C114.6,159.9,114.6,161,114.6,162.1"/>
	<path fill="#ffffff" d="M143.9,147.5c0.1,1.5,0.1,3.2,0.2,4.9c0,1.7,0,3.5,0,5.3v3.5c-0.8-0.8-1.7-1.8-2.8-2.9
		c-1.1-1.1-2.2-2.3-3.4-3.6c-1.2-1.3-2.4-2.6-3.6-3.9c-1.2-1.3-2.3-2.5-3.4-3.7h-0.4c0,0.6,0.1,1.5,0.1,2.7c0,1.2,0,2.6,0,4.3
		c0,0.6,0,1.2,0,2c0,0.7,0,1.5-0.1,2.2c0,0.8-0.1,1.5-0.1,2.3c0,0.8-0.1,1.5-0.1,2.1c0,0.7-0.1,1.2-0.1,1.7c0,0.5-0.1,0.8-0.1,1
		c0.3,0,0.6-0.1,1-0.1c0.3,0,0.6,0,0.9,0.1c0-0.1,0-0.4-0.1-0.8c0-0.4,0-0.8-0.1-1.4c0-0.5,0-1.1-0.1-1.7c0-0.6,0-1.2,0-1.8
		c0-0.6,0-1.2,0-1.7c0-0.5,0-1,0-1.4c0-1.4,0-2.5,0-3.3c0-0.8,0-1.5,0.1-2c2.3,2.4,4.5,4.8,6.8,7.2c2.3,2.4,4.4,4.8,6.4,7.1h0.4
		v-0.9c0-0.4,0-0.9,0-1.5c0-0.6,0-1.2,0-1.8c0-0.7,0-1.3,0-1.9c0-0.6,0-1.3,0-1.9v-1.6c0-0.5,0-1.2,0.1-2c0-0.8,0.1-1.7,0.1-2.6
		c0-0.9,0.1-1.7,0.1-2.5c0-0.8,0.1-1.3,0.1-1.7c-0.3,0.1-0.6,0.1-0.8,0.1C144.5,147.6,144.2,147.6,143.9,147.5"/>
	<path fill="#ffffff" d="M156,165.8c1,0,1.9-0.1,2.7-0.4c0.8-0.3,1.5-0.7,2-1.2c0.5-0.5,1-1.1,1.3-1.9c0.3-0.7,0.4-1.5,0.4-2.3
		c0-1-0.2-1.7-0.6-2.3c-0.4-0.6-0.9-1-1.5-1.4c-0.6-0.4-1.3-0.7-2-0.9s-1.4-0.5-2-0.9c-0.6-0.3-1.1-0.7-1.5-1.2
		c-0.4-0.5-0.6-1.1-0.6-1.9c0-0.5,0.1-0.9,0.2-1.3c0.2-0.4,0.4-0.7,0.7-1c0.3-0.3,0.7-0.5,1.1-0.7s0.9-0.2,1.3-0.2
		c0.5,0,0.9,0.1,1.3,0.3c0.3,0.2,0.6,0.4,0.9,0.6c0.3,0.2,0.5,0.5,0.6,0.8c0.1,0.3,0.3,0.6,0.4,0.8h0.3c0.1-0.5,0.2-0.9,0.3-1.2
		s0.2-0.6,0.4-0.9c-0.5-0.4-1.1-0.7-1.7-0.9c-0.6-0.2-1.3-0.3-2.2-0.3c-0.9,0-1.7,0.1-2.3,0.4s-1.3,0.6-1.8,1
		c-0.5,0.4-0.9,1-1.1,1.6c-0.3,0.6-0.4,1.3-0.4,2c0,1,0.2,1.8,0.6,2.5c0.4,0.6,0.9,1.1,1.5,1.5c0.6,0.4,1.3,0.7,2,1
		c0.7,0.3,1.4,0.5,2,0.9c0.6,0.3,1.1,0.7,1.5,1.2c0.4,0.5,0.6,1.1,0.6,1.9c0,0.5-0.1,1-0.3,1.5c-0.2,0.5-0.4,0.9-0.7,1.2
		c-0.3,0.3-0.7,0.6-1.2,0.8c-0.5,0.2-1,0.3-1.6,0.3c-0.6,0-1.1-0.1-1.5-0.3c-0.5-0.2-0.9-0.4-1.2-0.6c-0.3-0.3-0.6-0.6-0.9-0.9
		c-0.2-0.3-0.4-0.6-0.6-1h-0.3c-0.1,0.5-0.1,0.9-0.2,1.2c-0.1,0.3-0.2,0.7-0.3,1.1c0.4,0.4,1,0.7,1.7,1
		C154,165.6,154.9,165.8,156,165.8"/>
	<path fill="#ffffff" d="M168.6,162.1c0,1.1-0.1,2.2-0.1,3.3c0.8,0,1.6-0.1,2.4-0.1h2.4h2.4c0.8,0,1.6,0,2.4,0.1
		c-0.1-0.3-0.1-0.5-0.1-0.7c0-0.2,0-0.5,0.1-0.8c-1.3,0.2-2.5,0.3-3.7,0.3c-1.1,0-2.3,0-3.6,0c0-1.3,0-2.7-0.1-4.3
		c0-1.6,0-3.5,0-5.7c0-1.1,0-2.3,0.1-3.4c0-1.1,0.1-2.2,0.1-3.4c-0.2,0-0.4,0.1-0.7,0.1c-0.2,0-0.4,0-0.6,0s-0.4,0-0.6,0
		c-0.2,0-0.4-0.1-0.7-0.1c0.1,1.1,0.1,2.3,0.1,3.4c0,1.1,0.1,2.2,0.1,3.4v4.5C168.6,159.9,168.6,161,168.6,162.1"/>
	<path fill="#ffffff" d="M191.3,157.4c-0.5,0-1,0-1.5,0c-0.5,0-0.9,0-1.4,0c-0.5,0-1,0-1.4,0l2.8-6.6l2.9,6.6
		C192.3,157.3,191.8,157.3,191.3,157.4 M197.2,165.4h0.7c0.2,0,0.4,0,0.7,0.1c-0.2-0.4-0.5-1-0.9-1.8c-0.4-0.8-0.8-1.7-1.2-2.7
		c-0.4-1-0.9-2.1-1.4-3.3c-0.5-1.2-1-2.4-1.5-3.6c-0.5-1.2-1-2.4-1.5-3.6c-0.5-1.2-0.9-2.3-1.4-3.3h-0.5c-1.4,3.1-2.7,6.2-4,9.2
		c-1.3,3-2.7,6-4.1,9.1c0.3,0,0.6-0.1,1-0.1c0.3,0,0.7,0,1,0.1c0.2-0.8,0.6-1.8,1-3c0.5-1.2,1-2.5,1.5-3.9c0.5,0,1.1,0,1.6,0
		c0.5,0,1.1,0,1.6,0c0.6,0,1.1,0,1.7,0c0.6,0,1.1,0,1.7,0c0.2,0.6,0.5,1.2,0.7,1.8c0.3,0.6,0.5,1.3,0.8,1.9c0.3,0.6,0.5,1.2,0.7,1.8
		c0.2,0.6,0.4,1,0.5,1.4c0.2,0,0.5-0.1,0.7-0.1H197.2z"/>
	<path fill="#ffffff" d="M219.2,165.8v-0.9c0-0.4,0-0.9,0-1.5c0-0.6,0-1.2,0-1.8c0-0.7,0-1.3,0-1.9c0-0.6,0-1.3,0-1.9v-1.6
		c0-0.5,0-1.2,0.1-2c0-0.8,0.1-1.7,0.1-2.6c0-0.9,0.1-1.7,0.1-2.5c0-0.8,0.1-1.3,0.1-1.7c-0.4,0.1-0.6,0.1-0.8,0.1
		c-0.2,0-0.5,0-0.9-0.1c0.1,1.5,0.1,3.2,0.2,4.9c0,1.7,0,3.5,0,5.3v3.6c-0.8-0.8-1.7-1.8-2.8-2.9c-1.1-1.1-2.2-2.3-3.4-3.6
		c-1.2-1.3-2.4-2.6-3.6-3.9c-1.2-1.3-2.3-2.5-3.4-3.7h-0.4c0,0.6,0.1,1.5,0.1,2.7c0,1.2,0,2.6,0,4.3c0,0.6,0,1.2,0,2
		c0,0.7,0,1.5-0.1,2.2c0,0.8-0.1,1.5-0.1,2.3c0,0.8-0.1,1.5-0.1,2.1c0,0.7-0.1,1.2-0.1,1.7c0,0.5-0.1,0.8-0.1,1c0.3,0,0.6-0.1,1-0.1
		c0.3,0,0.6,0,0.9,0.1c0-0.1,0-0.4-0.1-0.8c0-0.4,0-0.8-0.1-1.4c0-0.5,0-1.1-0.1-1.7c0-0.6,0-1.2,0-1.8c0-0.6,0-1.2,0-1.7s0-1,0-1.4
		c0-1.4,0-2.5,0-3.3c0-0.8,0-1.5,0.1-2c2.3,2.4,4.5,4.8,6.8,7.2c2.3,2.4,4.4,4.8,6.4,7.1H219.2z"/>
	<path fill="#ffffff" d="M240,160.4c-0.5,1.1-1.1,1.9-1.9,2.6c-0.8,0.6-1.6,1.1-2.6,1.3c-1,0.2-1.9,0.3-2.9,0.3
		c-0.7,0-1.3,0-1.9-0.1c-0.6,0-1.1-0.1-1.5-0.2c-0.1-1.8-0.2-3.7-0.2-5.5v-4.5c0-0.9,0-1.9,0-2.8c0-0.9,0.1-1.8,0.1-2.6
		c0.5-0.1,1.1-0.1,1.8-0.2c0.7-0.1,1.4-0.1,2.2-0.1c1.1,0,2.1,0.1,3,0.3c0.9,0.2,1.7,0.6,2.3,1.2c0.7,0.6,1.2,1.3,1.5,2.3
		c0.4,1,0.6,2.2,0.6,3.7C240.7,157.9,240.5,159.3,240,160.4 M242.8,152.5c-0.3-1.1-0.8-2-1.5-2.7c-0.7-0.7-1.6-1.3-2.7-1.7
		c-1.1-0.4-2.4-0.6-3.9-0.6c-0.7,0-1.3,0-2,0.1c-0.7,0-1.3,0.1-2,0.1c-0.7,0-1.3,0-2,0c-0.7,0-1.3-0.1-2-0.1c0,1.1,0.1,2.3,0.1,3.4
		c0,1.1,0.1,2.2,0.1,3.4v4.5c0,1.1,0,2.3-0.1,3.4c0,1.1-0.1,2.2-0.1,3.3c0.6,0,1.2-0.1,1.7-0.1h1.8c0.6,0,1.2,0,1.8,0
		c0.6,0,1.2,0,1.7,0c1,0,2.1-0.2,3.2-0.5c1.1-0.3,2.1-0.8,3.1-1.6c0.9-0.7,1.7-1.7,2.3-2.9c0.6-1.2,0.9-2.7,0.9-4.4
		C243.3,154.8,243.1,153.6,242.8,152.5"/>
	<path fill="#ffffff" d="M64.7,176.2c0.7-0.7,1.4-1.2,2.3-1.5c0.9-0.3,1.8-0.5,2.9-0.5c0.6,0,1.2,0.1,1.7,0.2c0.5,0.2,1,0.4,1.4,0.6
		c0.4,0.2,0.8,0.5,1.1,0.8c0.3,0.3,0.6,0.5,0.7,0.7l0.2-0.1c0.1-0.3,0.1-0.6,0.2-1c0.1-0.4,0.2-0.7,0.3-1c-0.7-0.3-1.6-0.6-2.5-0.8
		c-0.9-0.2-2-0.4-3.1-0.4c-1.4,0-2.8,0.2-4,0.6c-1.2,0.4-2.2,1-3.1,1.8c-0.9,0.8-1.5,1.8-2,2.9c-0.5,1.2-0.7,2.5-0.7,4
		s0.2,2.8,0.7,4c0.5,1.2,1.1,2.1,2,2.9c0.8,0.8,1.8,1.4,3,1.8c1.2,0.4,2.4,0.6,3.8,0.6c0.6,0,1.3-0.1,1.9-0.2
		c0.6-0.1,1.1-0.2,1.6-0.4c0.5-0.1,0.9-0.3,1.2-0.4c0.3-0.2,0.6-0.3,0.7-0.5l0.2-1.5l-0.1-0.1c-0.2,0.2-0.5,0.4-0.9,0.7
		c-0.4,0.3-0.8,0.5-1.2,0.7c-0.4,0.2-0.9,0.4-1.5,0.6c-0.5,0.2-1.1,0.2-1.7,0.2c-1,0-2-0.2-2.9-0.5c-0.9-0.3-1.6-0.8-2.3-1.5
		c-0.7-0.7-1.2-1.6-1.5-2.6c-0.4-1.1-0.5-2.3-0.5-3.7c0-1.4,0.2-2.7,0.5-3.7C63.6,177.8,64.1,176.9,64.7,176.2"/>
	<path fill="#ffffff" d="M85.4,182c-0.3,0-0.7,0-1,0c-0.3,0-0.6-0.1-0.8-0.1v-1.5c0-0.9,0-1.9,0.1-2.8c0-0.9,0.1-1.9,0.1-2.8
		c0.3,0,0.6-0.1,1-0.1c0.4,0,0.9,0,1.5,0c0.5,0,0.9,0,1.4,0.1c0.5,0.1,0.9,0.3,1.3,0.5c0.4,0.3,0.7,0.6,1,1.1c0.3,0.4,0.4,1,0.4,1.7
		c0,0.8-0.2,1.4-0.5,1.9c-0.3,0.5-0.7,0.9-1.2,1.2c-0.5,0.3-1,0.5-1.6,0.6C86.5,181.9,85.9,182,85.4,182 M92.2,188.9
		c-0.5-0.6-0.9-1.2-1.4-1.8c-0.5-0.6-1-1.2-1.4-1.8c-0.5-0.6-0.9-1.1-1.2-1.6c-0.4-0.5-0.7-0.8-0.9-1.1c0.5-0.1,1.1-0.2,1.7-0.4
		c0.6-0.2,1.2-0.5,1.7-0.9c0.5-0.4,1-0.9,1.4-1.5c0.4-0.6,0.6-1.3,0.6-2.2c0-0.8-0.1-1.4-0.4-2c-0.3-0.5-0.7-0.9-1.2-1.3
		c-0.5-0.3-1.1-0.6-1.7-0.7c-0.7-0.1-1.4-0.2-2.1-0.2c-0.5,0-1,0-1.5,0.1c-0.5,0-1,0.1-1.5,0.1c-0.5,0-1,0-1.5,0
		c-0.5,0-1-0.1-1.5-0.1c0.1,1.1,0.1,2.3,0.1,3.4c0,1.1,0.1,2.2,0.1,3.4v4.5c0,1.1,0,2.3-0.1,3.4c0,1.1-0.1,2.2-0.1,3.3
		c0.4,0,0.8-0.1,1.3-0.1s0.9,0,1.3,0.1c-0.1-1.1-0.1-2.2-0.1-3.3c0-1.1-0.1-2.2-0.1-3.4v-1.9h1c0.6,0.6,1.2,1.3,1.8,2.1
		c0.7,0.8,1.3,1.7,2,2.5c0.6,0.8,1.2,1.6,1.8,2.3c0.5,0.7,0.9,1.3,1.2,1.6c0.2,0,0.5-0.1,0.8-0.1h0.8h0.8c0.3,0,0.5,0,0.8,0.1
		c-0.2-0.2-0.6-0.6-1-1.1C93.1,190,92.7,189.5,92.2,188.9"/>
	<path fill="#ffffff" d="M102.2,177c0-1.1,0.1-2.2,0.1-3.4c-0.2,0-0.4,0.1-0.7,0.1c-0.2,0-0.4,0-0.6,0c-0.2,0-0.4,0-0.6,0
		c-0.2,0-0.4-0.1-0.7-0.1c0.1,1.1,0.1,2.3,0.1,3.4c0,1.1,0.1,2.2,0.1,3.4v4.5c0,1.1,0,2.3-0.1,3.4c0,1.1-0.1,2.2-0.1,3.3
		c0.4,0,0.8-0.1,1.3-0.1c0.5,0,0.9,0,1.3,0.1c-0.1-1.1-0.1-2.2-0.1-3.3c0-1.1-0.1-2.2-0.1-3.4v-4.5
		C102.1,179.2,102.1,178.1,102.2,177"/>
	<path fill="#ffffff" d="M117.8,191.9c0.6,0,1.3-0.1,1.9-0.2c0.6-0.1,1.1-0.2,1.6-0.4c0.5-0.1,0.9-0.3,1.2-0.4
		c0.3-0.2,0.6-0.3,0.7-0.5l0.2-1.5l-0.1-0.1c-0.2,0.2-0.5,0.4-0.9,0.7c-0.4,0.3-0.8,0.5-1.2,0.7c-0.4,0.2-0.9,0.4-1.5,0.6
		c-0.5,0.2-1.1,0.2-1.7,0.2c-1,0-2-0.2-2.9-0.5c-0.9-0.3-1.6-0.8-2.3-1.5c-0.7-0.7-1.2-1.6-1.5-2.6c-0.4-1.1-0.5-2.3-0.5-3.7
		c0-1.4,0.2-2.7,0.5-3.7c0.4-1.1,0.9-1.9,1.5-2.6c0.7-0.7,1.4-1.2,2.3-1.5c0.9-0.3,1.8-0.5,2.9-0.5c0.6,0,1.2,0.1,1.7,0.2
		c0.5,0.2,1,0.4,1.4,0.6c0.4,0.2,0.8,0.5,1.1,0.8c0.3,0.3,0.6,0.5,0.7,0.7l0.2-0.1c0.1-0.3,0.1-0.6,0.2-1c0.1-0.4,0.2-0.7,0.3-1
		c-0.7-0.3-1.6-0.6-2.5-0.8c-1-0.2-2-0.4-3.1-0.4c-1.4,0-2.8,0.2-4,0.6c-1.2,0.4-2.2,1-3.1,1.8c-0.9,0.8-1.5,1.8-2,2.9
		c-0.5,1.2-0.7,2.5-0.7,4s0.2,2.8,0.7,4c0.5,1.2,1.1,2.1,2,2.9c0.8,0.8,1.8,1.4,3,1.8C115.2,191.7,116.5,191.9,117.8,191.9"/>
	<path fill="#ffffff" d="M134.2,181.7c0.5-0.5,1.1-1.2,1.8-1.9c0.7-0.7,1.4-1.5,2.2-2.2c0.8-0.7,1.5-1.5,2.3-2.2
		c0.8-0.7,1.5-1.3,2.1-1.8c-0.2,0-0.4,0.1-0.6,0.1c-0.2,0-0.4,0-0.6,0c-0.2,0-0.3,0-0.5,0c-0.2,0-0.4-0.1-0.5-0.1
		c-0.6,0.7-1.2,1.4-1.9,2.2c-0.7,0.7-1.3,1.5-2,2.2c-0.7,0.7-1.4,1.4-2,2.1c-0.7,0.7-1.3,1.3-1.9,1.8c-0.2,0.2-0.3,0.2-0.4,0.2
		c-0.1,0-0.2-0.1-0.2-0.2v-1.4c0-1.1,0-2.3,0.1-3.4c0-1.1,0.1-2.2,0.1-3.4c-0.2,0-0.4,0.1-0.7,0.1c-0.2,0-0.4,0-0.6,0
		c-0.2,0-0.4,0-0.6,0c-0.2,0-0.4-0.1-0.7-0.1c0.1,1.1,0.1,2.3,0.1,3.4c0,1.1,0.1,2.2,0.1,3.4v4.5c0,1.1,0,2.3-0.1,3.4
		c0,1.1-0.1,2.2-0.1,3.3c0.4,0,0.8-0.1,1.3-0.1c0.5,0,0.9,0,1.3,0.1c-0.1-1.1-0.1-2.2-0.1-3.3c0-1.1-0.1-2.2-0.1-3.4v-2.3
		c0-0.1,0-0.2,0.1-0.2c0.1,0,0.2,0.1,0.3,0.2c0.3,0.3,0.7,0.8,1.3,1.4c0.6,0.7,1.2,1.5,2,2.3c0.7,0.9,1.5,1.8,2.2,2.7
		c0.8,0.9,1.4,1.7,2.1,2.5c0.2,0,0.5-0.1,0.7-0.1h0.7h0.8c0.3,0,0.5,0,0.8,0.1c-1.5-1.7-2.9-3.3-4.4-4.9
		C137,184.9,135.6,183.3,134.2,181.7"/>
	<path fill="#ffffff" d="M148.1,188.2c0,1.1-0.1,2.2-0.1,3.3c0.8,0,1.6-0.1,2.4-0.1h2.4h2.4c0.8,0,1.6,0,2.3,0.1
		c-0.1-0.2-0.1-0.4-0.1-0.7c0-0.1,0-0.3,0-0.4c0-0.1,0-0.3,0.1-0.4c-0.4,0.1-0.9,0.1-1.5,0.2c-0.6,0-1.2,0.1-1.8,0.1
		c-0.6,0-1.3,0-1.9,0h-1.8c0-0.3,0-0.8,0-1.5c0-0.6,0-1.5,0-2.5v-1.6v-1c0-0.3,0-0.5,0-0.7c0-0.2,0-0.4,0-0.5c0.3,0,0.7,0,1.3,0
		c0.5,0,1.1,0,1.7,0c0.6,0,1.2,0,1.8,0.1c0.6,0,1.1,0.1,1.6,0.1c-0.1-0.3-0.1-0.5-0.1-0.8c0-0.3,0-0.5,0.1-0.8
		c-0.4,0-0.8,0.1-1.2,0.1c-0.4,0-0.9,0.1-1.4,0.1c-0.5,0-1.1,0-1.7,0.1c-0.6,0-1.3,0-2.1,0c0-0.3,0-0.8,0-1.5c0-0.6,0-1.3,0-2
		c0-0.6,0-1.2,0-1.7c0-0.5,0-1,0.1-1.6c0.9,0,1.6,0,2.2,0c0.6,0,1.2,0.1,1.7,0.1c0.5,0,1,0.1,1.5,0.1c0.5,0,1,0.1,1.5,0.1
		c-0.1-0.3-0.1-0.5-0.1-0.8c0-0.3,0-0.5,0.1-0.8c-0.8,0-1.6,0.1-2.3,0.1c-0.8,0-1.5,0-2.3,0c-0.8,0-1.6,0-2.3,0
		c-0.8,0-1.6-0.1-2.3-0.1c0.1,1.1,0.1,2.2,0.1,3.3s0.1,2.2,0.1,3.4v4.5C148.2,186,148.1,187.1,148.1,188.2"/>
	<path fill="#ffffff" d="M169.5,184.8v-4.5c0-1.8,0-3.6,0.1-5.4c0.5,0,0.9,0,1.4,0c0.5,0,1,0,1.5,0.1c0.5,0,1,0.1,1.4,0.1
		c0.5,0,0.9,0.1,1.2,0.1c-0.1-0.3-0.1-0.6-0.1-0.8c0-0.2,0-0.5,0.1-0.8c-1.1,0-2.3,0.1-3.4,0.1c-1.1,0-2.2,0-3.4,0
		c-1.1,0-2.3,0-3.4,0c-1.1,0-2.2-0.1-3.4-0.1c0.1,0.4,0.1,0.6,0.1,0.8c0,0.2,0,0.5-0.1,0.8c0.4-0.1,0.8-0.1,1.2-0.1
		c0.5,0,0.9-0.1,1.4-0.1c0.5,0,1,0,1.5-0.1c0.5,0,1,0,1.4,0c0.1,1.8,0.1,3.6,0.1,5.4v4.5c0,1.1,0,2.3-0.1,3.4c0,1.1-0.1,2.2-0.1,3.3
		c0.4,0,0.8-0.1,1.3-0.1s0.9,0,1.3,0.1c-0.1-1.1-0.1-2.2-0.1-3.3C169.5,187.1,169.5,186,169.5,184.8"/>
	<path fill="#ffffff" d="M190,190c-0.4,0.1-0.9,0.2-1.5,0.2c-0.6,0-1.2,0.1-1.8,0.1c-0.6,0-1.3,0-1.9,0H183c0-0.3,0-0.8,0-1.5
		c0-0.6,0-1.5,0-2.5v-1.6v-1c0-0.3,0-0.5,0-0.7c0-0.2,0-0.4,0-0.5c0.3,0,0.7,0,1.3,0c0.5,0,1.1,0,1.7,0c0.6,0,1.2,0,1.8,0.1
		c0.6,0,1.1,0.1,1.6,0.1c-0.1-0.3-0.1-0.5-0.1-0.8c0-0.3,0-0.5,0.1-0.8c-0.4,0-0.8,0.1-1.2,0.1c-0.4,0-0.9,0.1-1.4,0.1
		c-0.5,0-1.1,0-1.7,0.1c-0.6,0-1.3,0-2.1,0c0-0.3,0-0.8,0-1.5c0-0.6,0-1.3,0-2c0-0.6,0-1.2,0-1.7c0-0.5,0-1,0.1-1.6
		c0.9,0,1.6,0,2.2,0c0.6,0,1.2,0.1,1.7,0.1c0.5,0,1,0.1,1.5,0.1c0.5,0,1,0.1,1.5,0.1c-0.1-0.3-0.1-0.5-0.1-0.8c0-0.3,0-0.5,0.1-0.8
		c-0.8,0-1.6,0.1-2.3,0.1c-0.8,0-1.5,0-2.3,0c-0.8,0-1.6,0-2.3,0c-0.8,0-1.6-0.1-2.3-0.1c0.1,1.1,0.1,2.2,0.1,3.3
		c0,1.1,0.1,2.2,0.1,3.4v4.5c0,1.1,0,2.3-0.1,3.4c0,1.1-0.1,2.2-0.1,3.3c0.8,0,1.6-0.1,2.4-0.1h2.4h2.4c0.8,0,1.6,0,2.3,0.1
		c-0.1-0.2-0.1-0.4-0.1-0.7c0-0.1,0-0.3,0-0.4C190,190.3,190,190.2,190,190"/>
	<path fill="#ffffff" d="M200.3,182c-0.4,0-0.7,0-1,0c-0.3,0-0.6-0.1-0.8-0.1v-1.5c0-0.9,0-1.9,0.1-2.8c0-0.9,0.1-1.9,0.1-2.8
		c0.3,0,0.6-0.1,1-0.1c0.4,0,0.9,0,1.5,0c0.4,0,0.9,0,1.4,0.1c0.5,0.1,0.9,0.3,1.3,0.5c0.4,0.3,0.7,0.6,1,1.1c0.3,0.4,0.4,1,0.4,1.7
		c0,0.8-0.2,1.4-0.5,1.9c-0.3,0.5-0.7,0.9-1.2,1.2c-0.5,0.3-1,0.5-1.6,0.6C201.4,181.9,200.8,182,200.3,182 M207.1,188.9
		c-0.5-0.6-0.9-1.2-1.4-1.8c-0.5-0.6-1-1.2-1.4-1.8c-0.5-0.6-0.9-1.1-1.2-1.6c-0.4-0.5-0.7-0.8-0.9-1.1c0.5-0.1,1.1-0.2,1.7-0.4
		c0.6-0.2,1.2-0.5,1.7-0.9c0.5-0.4,1-0.9,1.4-1.5c0.4-0.6,0.6-1.3,0.6-2.2c0-0.8-0.1-1.4-0.4-2c-0.3-0.5-0.7-0.9-1.2-1.3
		c-0.5-0.3-1.1-0.6-1.7-0.7c-0.7-0.1-1.4-0.2-2.1-0.2c-0.5,0-1,0-1.5,0.1c-0.5,0-1,0.1-1.5,0.1c-0.5,0-1,0-1.5,0
		c-0.5,0-1-0.1-1.5-0.1c0.1,1.1,0.1,2.3,0.1,3.4c0,1.1,0.1,2.2,0.1,3.4v4.5c0,1.1,0,2.3-0.1,3.4c0,1.1-0.1,2.2-0.1,3.3
		c0.4,0,0.8-0.1,1.3-0.1s0.9,0,1.3,0.1c-0.1-1.1-0.1-2.2-0.1-3.3c0-1.1-0.1-2.2-0.1-3.4v-1.9h1c0.6,0.6,1.2,1.3,1.8,2.1
		c0.7,0.8,1.3,1.7,2,2.5c0.6,0.8,1.2,1.6,1.8,2.3c0.5,0.7,0.9,1.3,1.2,1.6c0.2,0,0.5-0.1,0.8-0.1h0.8h0.8c0.3,0,0.5,0,0.8,0.1
		c-0.2-0.2-0.6-0.6-1-1.1C208,190,207.5,189.5,207.1,188.9"/>
	<path fill="#ffffff" d="M222,182.4c-0.6-0.4-1.3-0.7-2-0.9c-0.7-0.3-1.4-0.5-2-0.9c-0.6-0.3-1.1-0.7-1.5-1.2
		c-0.4-0.5-0.6-1.1-0.6-1.9c0-0.5,0.1-0.9,0.2-1.3c0.2-0.4,0.4-0.7,0.7-1c0.3-0.3,0.7-0.5,1.1-0.7c0.4-0.2,0.9-0.2,1.3-0.2
		c0.5,0,0.9,0.1,1.2,0.3c0.4,0.2,0.6,0.4,0.9,0.6c0.3,0.2,0.4,0.5,0.6,0.8c0.2,0.3,0.3,0.6,0.4,0.8h0.3c0.1-0.5,0.2-0.9,0.3-1.3
		c0.1-0.3,0.2-0.6,0.4-0.9c-0.5-0.4-1.1-0.7-1.7-0.9c-0.6-0.2-1.3-0.3-2.2-0.3c-0.9,0-1.7,0.1-2.3,0.4c-0.7,0.2-1.3,0.6-1.8,1
		c-0.5,0.4-0.9,1-1.1,1.6c-0.3,0.6-0.4,1.3-0.4,2c0,1,0.2,1.8,0.6,2.5c0.4,0.6,0.9,1.1,1.5,1.5c0.6,0.4,1.3,0.7,2,1
		c0.7,0.3,1.4,0.5,2,0.9c0.6,0.3,1.1,0.7,1.5,1.2c0.4,0.5,0.6,1.1,0.6,1.9c0,0.5-0.1,1-0.3,1.5c-0.2,0.5-0.4,0.9-0.7,1.2
		c-0.3,0.3-0.7,0.6-1.2,0.8c-0.5,0.2-1,0.3-1.6,0.3c-0.6,0-1.1-0.1-1.5-0.2c-0.5-0.2-0.8-0.4-1.2-0.6c-0.3-0.3-0.6-0.6-0.9-0.9
		c-0.2-0.3-0.4-0.6-0.6-1H214c-0.1,0.5-0.1,0.9-0.2,1.2c-0.1,0.3-0.2,0.7-0.3,1.1c0.4,0.4,1,0.7,1.7,1c0.7,0.3,1.5,0.4,2.6,0.4
		c1,0,1.9-0.1,2.7-0.4c0.8-0.3,1.5-0.7,2-1.2c0.5-0.5,1-1.1,1.3-1.9c0.3-0.7,0.4-1.5,0.4-2.3c0-1-0.2-1.7-0.6-2.3
		C223.1,183.2,222.6,182.7,222,182.4"/>
	<path fill="#ffffff" d="M115.6,202.3c0.7-0.7,1.4-1.2,2.3-1.5c0.9-0.3,1.8-0.5,2.9-0.5c0.6,0,1.2,0.1,1.7,0.2
		c0.5,0.2,1,0.4,1.4,0.6c0.4,0.2,0.8,0.5,1.1,0.8c0.3,0.3,0.6,0.5,0.7,0.7l0.2-0.1c0.1-0.3,0.1-0.6,0.2-1c0.1-0.4,0.2-0.7,0.3-1
		c-0.7-0.3-1.6-0.6-2.5-0.8c-1-0.2-2-0.4-3.1-0.4c-1.4,0-2.8,0.2-4,0.6c-1.2,0.4-2.2,1-3.1,1.8c-0.9,0.8-1.5,1.8-2,2.9
		c-0.5,1.2-0.7,2.5-0.7,4s0.2,2.8,0.7,4c0.5,1.2,1.1,2.1,2,2.9c0.8,0.8,1.8,1.4,3,1.8c1.2,0.4,2.4,0.6,3.8,0.6
		c0.6,0,1.3-0.1,1.9-0.2c0.6-0.1,1.1-0.2,1.6-0.4c0.5-0.1,0.9-0.3,1.2-0.4c0.3-0.2,0.6-0.3,0.7-0.5l0.2-1.5l-0.1-0.1
		c-0.2,0.2-0.5,0.4-0.9,0.7c-0.4,0.3-0.8,0.5-1.2,0.7c-0.4,0.2-0.9,0.4-1.5,0.6c-0.5,0.2-1.1,0.2-1.7,0.2c-1,0-2-0.2-2.9-0.5
		c-0.9-0.3-1.6-0.8-2.3-1.5s-1.2-1.6-1.5-2.6c-0.4-1.1-0.5-2.3-0.5-3.7c0-1.4,0.2-2.7,0.5-3.7C114.5,203.9,115,203,115.6,202.3"/>
	<path fill="#ffffff" d="M138.2,216.4c-1.1,0-2.3,0-3.5,0c0-1.3,0-2.7-0.1-4.3c0-1.6,0-3.5,0-5.7c0-1.1,0-2.3,0.1-3.4
		c0-1.1,0.1-2.2,0.1-3.4c-0.2,0-0.4,0.1-0.7,0.1c-0.2,0-0.4,0-0.6,0c-0.2,0-0.4,0-0.6,0c-0.2,0-0.4-0.1-0.7-0.1
		c0.1,1.1,0.1,2.3,0.1,3.4c0,1.1,0.1,2.2,0.1,3.4v4.5c0,1.1,0,2.3-0.1,3.4c0,1.1-0.1,2.2-0.1,3.3c0.8,0,1.6-0.1,2.4-0.1h2.4h2.4
		c0.8,0,1.6,0,2.4,0.1c-0.1-0.3-0.1-0.5-0.1-0.7c0-0.2,0-0.5,0.1-0.8C140.5,216.3,139.3,216.4,138.2,216.4"/>
	<path fill="#ffffff" d="M162,199.8c-0.2,0-0.4-0.1-0.5-0.1c0.1,0.5,0.1,1.4,0.1,2.8c0,1.3,0,3.2,0,5.7c0,0.5,0,1.1,0,1.8
		c0,0.6-0.1,1.3-0.2,1.9c-0.1,0.6-0.3,1.3-0.5,1.9c-0.2,0.6-0.6,1.1-1,1.6c-0.4,0.5-1,0.8-1.6,1.1c-0.7,0.3-1.5,0.4-2.4,0.4
		c-1,0-1.8-0.1-2.5-0.4c-0.7-0.2-1.2-0.6-1.6-1c-0.4-0.4-0.8-0.9-1-1.4c-0.2-0.5-0.4-1.1-0.5-1.7c-0.1-0.6-0.2-1.2-0.2-1.9
		c0-0.6,0-1.2,0-1.8c0-1,0-1.9,0-2.8c0-0.9,0-1.8,0.1-2.5c0-0.8,0.1-1.5,0.1-2.1c0-0.6,0.1-1.1,0.1-1.5c-0.2,0-0.4,0.1-0.6,0.1
		c-0.2,0-0.4,0-0.6,0c-0.2,0-0.4,0-0.7,0c-0.2,0-0.5-0.1-0.7-0.1c0,0.8,0.1,1.7,0.1,2.9c0,1.1,0.1,2.4,0.1,3.9c0,0.7,0,1.3-0.1,1.9
		c0,0.6-0.1,1.4-0.1,2.2c0,2.6,0.6,4.4,1.8,5.6c1.2,1.2,3.1,1.8,5.7,1.8c1.2,0,2.2-0.2,3.1-0.5c0.9-0.3,1.7-0.8,2.3-1.5
		c0.6-0.6,1.1-1.4,1.4-2.3c0.3-0.9,0.5-2,0.5-3.1c0-1,0-1.9,0.1-3c0-1,0.1-2,0.1-3c0-1,0.1-1.9,0.1-2.7c0.1-0.8,0.1-1.6,0.2-2.2
		c-0.3,0.1-0.6,0.1-0.8,0.1C162.3,199.8,162.1,199.8,162,199.8"/>
	<path fill="#ffffff" d="M179.5,214.2c-0.2,0.5-0.5,1-0.9,1.4c-0.4,0.4-0.8,0.7-1.3,0.8c-0.5,0.2-1,0.3-1.6,0.3c-0.5,0-0.9,0-1.4,0
		c-0.5,0-0.8-0.1-1.2-0.1c0-0.9-0.1-1.8-0.1-2.6c0-0.9-0.1-1.7-0.1-2.6v-2.7h1.2c0.9,0,1.7,0.1,2.4,0.2c0.7,0.1,1.3,0.3,1.8,0.6
		c0.5,0.3,0.9,0.6,1.2,1.1c0.3,0.5,0.4,1.1,0.4,1.8C179.9,213,179.8,213.7,179.5,214.2 M173,205.7c0-0.8,0-1.7,0.1-2.5
		c0-0.8,0.1-1.6,0.1-2.5c0.2,0,0.5-0.1,0.8-0.1c0.3,0,0.7,0,1.1,0c0.5,0,1,0,1.5,0.1c0.5,0.1,1,0.2,1.4,0.5c0.4,0.2,0.7,0.6,1,1
		c0.3,0.4,0.4,1,0.4,1.7c0,0.7-0.1,1.3-0.4,1.8c-0.3,0.5-0.7,0.9-1.1,1.1c-0.5,0.3-1,0.5-1.6,0.6c-0.6,0.1-1.2,0.2-1.8,0.2H173
		V205.7z M180.9,209.2c-0.9-0.7-2.1-1.1-3.7-1.1V208c1.3-0.3,2.4-0.8,3.2-1.5c0.8-0.7,1.2-1.7,1.2-3c0-0.7-0.1-1.3-0.4-1.8
		s-0.7-0.9-1.2-1.2c-0.5-0.3-1.1-0.5-1.7-0.6c-0.7-0.1-1.4-0.2-2.1-0.2c-0.5,0-0.9,0-1.4,0.1c-0.5,0-0.9,0.1-1.4,0.1s-0.9,0-1.4,0
		c-0.5,0-0.9-0.1-1.4-0.1c0.1,1.1,0.1,2.2,0.1,3.3c0,1.1,0.1,2.2,0.1,3.4v4.5c0,1.1,0,2.3-0.1,3.4c0,1.1-0.1,2.2-0.1,3.3
		c0.4,0,0.8-0.1,1.3-0.1h1.3c0.4,0,0.8,0,1.3,0c0.4,0,0.8,0,1.3,0c0.8,0,1.5-0.1,2.3-0.2c0.8-0.2,1.5-0.5,2.1-0.9
		c0.6-0.4,1.2-0.9,1.6-1.6c0.4-0.7,0.6-1.5,0.6-2.5C182.3,211,181.8,209.9,180.9,209.2"/>
	<path fill="#ffffff" d="M230.5,173.3c-0.5,0-1,0.4-1,1v6.5c0,0.5,0.4,1,1,1c0.5,0,1-0.4,1-1v-6.5
		C231.4,173.7,231,173.3,230.5,173.3"/>
	<path fill="#ffffff" d="M132,113.6c0.3-8.7,11.9-15.6,25.7-19.4l-4.2-4.5c-23,4.4-37.9,11.6-40.1,20.4c-0.2,0.8-0.3,1.5-0.3,2.3
		c0,0.5,0.1,1,0.2,1.4c1.7,8.5,17.9,16.9,39.1,20.5l0.9-2.6C140.4,127.6,131.8,121.2,132,113.6"/>
	<path fill="#ffffff" d="M232.2,89.4c0-14.7-38.4-26.6-85.7-26.6c-47.3,0-85.7,11.9-85.7,26.6c0,11,21.6,20.5,52.5,24.5
		c-0.1-0.5-0.2-1-0.2-1.4c0-0.8,0.1-1.5,0.3-2.3c-15.2-3.3-25.1-8.7-25.1-14.9c0-10,26.2-18.2,58.6-18.2c32.4,0,58.6,8.1,58.6,18.2
		c0,8-16.5,14.7-39.4,17.2c3.7-2.3,8.8-4.2,14.8-5.6l-11.2-14.1c-20,4.4-35.7,11.9-35.7,21.1c0,9.2,14.7,16,35.5,20.8l1-2.2
		c-6.9-3-11.1-6.9-11.1-11.2c0-2,1-4,2.7-5.8C202,113.2,232.2,102.4,232.2,89.4"/>
</g>
</svg>
