<svg xmlns="http://www.w3.org/2000/svg" x="0px" y="0px" viewBox="0 0 45 45" width="95" height="95">
<style type="text/css">
	.st0{fill:#b39a64;}
</style>
<g>
	<path class="st0" d="M2.4,25.9c-0.1-0.1-0.2-0.3-0.2-0.4c-0.1-0.2-0.1-0.4-0.1-0.6s0-0.4,0.1-0.6c0.1-0.2,0.1-0.3,0.2-0.4   c0.1-0.1,0.2-0.2,0.4-0.2c0.1,0,0.3-0.1,0.4-0.1c0.2,0,0.3,0,0.5,0.1c0.1,0,0.3,0.1,0.4,0.2c0.1,0.1,0.2,0.3,0.2,0.4   c0.1,0.2,0.1,0.4,0.1,0.6s0,0.4-0.1,0.6c-0.1,0.2-0.1,0.3-0.2,0.4C3.9,26,3.8,26,3.7,26.1c-0.1,0-0.3,0.1-0.5,0.1   c-0.2,0-0.3,0-0.4-0.1C2.6,26,2.5,26,2.4,25.9 M3.3,26.3C3.3,26.3,3.3,26.3,3.3,26.3c0.2,0.1,0.4,0.3,0.6,0.4   C4,26.9,4.1,27,4.3,27.1c0,0,0.1-0.1,0.1-0.1S4.5,27,4.6,27c-0.2-0.1-0.3-0.2-0.5-0.3c-0.2-0.1-0.3-0.2-0.5-0.3   c0.2,0,0.3-0.1,0.4-0.2s0.3-0.2,0.3-0.3c0.1-0.1,0.2-0.3,0.2-0.4c0-0.2,0.1-0.3,0.1-0.5c0-0.2,0-0.4-0.1-0.6s-0.2-0.3-0.3-0.5   c-0.1-0.1-0.3-0.2-0.5-0.3c-0.2-0.1-0.4-0.1-0.6-0.1c-0.2,0-0.4,0-0.6,0.1c-0.2,0.1-0.3,0.2-0.5,0.3C2,23.9,1.9,24,1.8,24.2   c-0.1,0.2-0.1,0.4-0.1,0.6c0,0.2,0,0.4,0.1,0.6C1.9,25.7,2,25.8,2.1,26c0.1,0.1,0.3,0.2,0.5,0.3C2.8,26.3,3,26.3,3.3,26.3L3.3,26.3   L3.3,26.3z"/>
	<path class="st0" d="M7.4,26.2c0.1,0,0.3-0.1,0.4-0.2C7.9,25.9,8,25.8,8,25.6c0-0.1,0.1-0.3,0.1-0.5c0-0.2,0-0.3,0-0.5   c0-0.2,0-0.3,0-0.5c0-0.2,0-0.3,0-0.4c0-0.1,0-0.3,0-0.3c0,0-0.1,0-0.1,0c0,0,0,0-0.1,0c0,0-0.1,0-0.1,0c0,0.1,0,0.2,0,0.4   c0,0.2,0,0.5,0,0.9c0,0.1,0,0.2,0,0.3c0,0.1,0,0.2,0,0.3c0,0.1,0,0.2-0.1,0.3c0,0.1-0.1,0.2-0.2,0.3S7.5,26,7.4,26.1   c-0.1,0-0.2,0.1-0.4,0.1c-0.2,0-0.3,0-0.4-0.1c-0.1,0-0.2-0.1-0.3-0.2c-0.1-0.1-0.1-0.1-0.2-0.2c0-0.1-0.1-0.2-0.1-0.3   c0-0.1,0-0.2,0-0.3c0-0.1,0-0.2,0-0.3c0-0.2,0-0.3,0-0.4c0-0.1,0-0.3,0-0.4c0-0.1,0-0.2,0-0.3c0-0.1,0-0.2,0-0.2c0,0-0.1,0-0.1,0   s-0.1,0-0.1,0c0,0-0.1,0-0.1,0c0,0-0.1,0-0.1,0c0,0.1,0,0.3,0,0.5c0,0.2,0,0.4,0,0.6c0,0.1,0,0.2,0,0.3c0,0.1,0,0.2,0,0.3   c0,0.4,0.1,0.7,0.3,0.9c0.2,0.2,0.5,0.3,0.9,0.3C7.1,26.3,7.3,26.3,7.4,26.2"/>
	<path class="st0" d="M10.8,26c-0.1,0-0.1,0-0.2,0c-0.1,0-0.2,0-0.3,0c-0.1,0-0.2,0-0.3,0H9.7c0,0,0-0.1,0-0.2c0-0.1,0-0.2,0-0.4   v-0.3V25c0,0,0-0.1,0-0.1s0-0.1,0-0.1c0,0,0.1,0,0.2,0c0.1,0,0.2,0,0.3,0c0.1,0,0.2,0,0.3,0c0.1,0,0.2,0,0.3,0c0,0,0-0.1,0-0.1   c0,0,0-0.1,0-0.1c-0.1,0-0.1,0-0.2,0c-0.1,0-0.1,0-0.2,0c-0.1,0-0.2,0-0.3,0c-0.1,0-0.2,0-0.3,0c0,0,0-0.1,0-0.2c0-0.1,0-0.2,0-0.3   c0-0.1,0-0.2,0-0.3s0-0.2,0-0.3c0.1,0,0.3,0,0.3,0c0.1,0,0.2,0,0.3,0c0.1,0,0.2,0,0.2,0s0.2,0,0.2,0c0,0,0-0.1,0-0.1s0-0.1,0-0.1   c-0.1,0-0.3,0-0.4,0c-0.1,0-0.2,0-0.4,0s-0.3,0-0.4,0c-0.1,0-0.3,0-0.4,0c0,0.2,0,0.3,0,0.5s0,0.3,0,0.5v0.7c0,0.2,0,0.4,0,0.5   c0,0.2,0,0.3,0,0.5c0.1,0,0.3,0,0.4,0h0.4h0.4c0.1,0,0.3,0,0.4,0C10.9,26.2,10.9,26.1,10.8,26C10.9,26.1,10.9,26,10.8,26   C10.8,26.1,10.8,26,10.8,26"/>
	<path class="st0" d="M11.8,25.7c0,0.2,0,0.3,0,0.5c0.1,0,0.3,0,0.4,0h0.4H13c0.1,0,0.3,0,0.4,0c0,0,0-0.1,0-0.1c0,0,0,0,0-0.1   c0,0,0,0,0-0.1c-0.1,0-0.1,0-0.2,0s-0.2,0-0.3,0s-0.2,0-0.3,0h-0.3c0,0,0-0.1,0-0.2c0-0.1,0-0.2,0-0.4v-0.3V25c0,0,0-0.1,0-0.1   s0-0.1,0-0.1c0,0,0.1,0,0.2,0c0.1,0,0.2,0,0.3,0c0.1,0,0.2,0,0.3,0c0.1,0,0.2,0,0.3,0c0,0,0-0.1,0-0.1c0,0,0-0.1,0-0.1   c-0.1,0-0.1,0-0.2,0c-0.1,0-0.1,0-0.2,0c-0.1,0-0.2,0-0.3,0c-0.1,0-0.2,0-0.3,0c0,0,0-0.1,0-0.2c0-0.1,0-0.2,0-0.3   c0-0.1,0-0.2,0-0.3c0-0.1,0-0.2,0-0.3c0.1,0,0.3,0,0.3,0c0.1,0,0.2,0,0.3,0s0.2,0,0.2,0s0.2,0,0.2,0c0,0,0-0.1,0-0.1   c0,0,0-0.1,0-0.1c-0.1,0-0.3,0-0.4,0c-0.1,0-0.2,0-0.4,0s-0.3,0-0.4,0c-0.1,0-0.3,0-0.4,0c0,0.2,0,0.3,0,0.5s0,0.3,0,0.5v0.7   C11.8,25.4,11.8,25.6,11.8,25.7"/>
	<path class="st0" d="M16.5,23.4c0,0.2,0,0.5,0,0.8c0,0.3,0,0.6,0,0.8v0.6c-0.1-0.1-0.3-0.3-0.4-0.5c-0.2-0.2-0.3-0.4-0.5-0.6   c-0.2-0.2-0.4-0.4-0.6-0.6c-0.2-0.2-0.4-0.4-0.5-0.6h-0.1c0,0.1,0,0.2,0,0.4s0,0.4,0,0.7c0,0.1,0,0.2,0,0.3c0,0.1,0,0.2,0,0.3   c0,0.1,0,0.2,0,0.4c0,0.1,0,0.2,0,0.3c0,0.1,0,0.2,0,0.3c0,0.1,0,0.1,0,0.2c0,0,0.1,0,0.2,0c0,0,0.1,0,0.1,0c0,0,0-0.1,0-0.1   c0-0.1,0-0.1,0-0.2c0-0.1,0-0.2,0-0.3c0-0.1,0-0.2,0-0.3s0-0.2,0-0.3s0-0.2,0-0.2c0-0.2,0-0.4,0-0.5c0-0.1,0-0.2,0-0.3   c0.4,0.4,0.7,0.8,1.1,1.1c0.4,0.4,0.7,0.8,1,1.1h0.1v-0.1c0-0.1,0-0.1,0-0.2c0-0.1,0-0.2,0-0.3c0-0.1,0-0.2,0-0.3   c0-0.1,0-0.2,0-0.3v-0.3c0-0.1,0-0.2,0-0.3c0-0.1,0-0.3,0-0.4c0-0.1,0-0.3,0-0.4c0-0.1,0-0.2,0-0.3c0,0-0.1,0-0.1,0   C16.6,23.4,16.5,23.4,16.5,23.4"/>
	<path class="st0" d="M18.4,26.3c0.2,0,0.3,0,0.4-0.1c0.1,0,0.2-0.1,0.3-0.2c0.1-0.1,0.2-0.2,0.2-0.3c0-0.1,0.1-0.2,0.1-0.4   c0-0.2,0-0.3-0.1-0.4c-0.1-0.1-0.1-0.2-0.2-0.2c-0.1-0.1-0.2-0.1-0.3-0.1s-0.2-0.1-0.3-0.1c-0.1,0-0.2-0.1-0.2-0.2   c-0.1-0.1-0.1-0.2-0.1-0.3c0-0.1,0-0.1,0-0.2c0-0.1,0.1-0.1,0.1-0.2c0,0,0.1-0.1,0.2-0.1s0.1,0,0.2,0c0.1,0,0.1,0,0.2,0   c0,0,0.1,0.1,0.1,0.1c0,0,0.1,0.1,0.1,0.1c0,0,0,0.1,0.1,0.1h0c0-0.1,0-0.1,0-0.2c0,0,0-0.1,0.1-0.1c-0.1-0.1-0.2-0.1-0.3-0.1   c-0.1,0-0.2,0-0.3,0s-0.3,0-0.4,0.1c-0.1,0-0.2,0.1-0.3,0.2s-0.1,0.2-0.2,0.3c0,0.1-0.1,0.2-0.1,0.3c0,0.2,0,0.3,0.1,0.4   c0.1,0.1,0.1,0.2,0.2,0.2c0.1,0.1,0.2,0.1,0.3,0.2c0.1,0,0.2,0.1,0.3,0.1c0.1,0,0.2,0.1,0.2,0.2c0.1,0.1,0.1,0.2,0.1,0.3   c0,0.1,0,0.2,0,0.2S19,26,19,26c0,0-0.1,0.1-0.2,0.1C18.7,26.2,18.6,26.2,18.4,26.3c0-0.1-0.1-0.1-0.1-0.1c-0.1,0-0.1-0.1-0.2-0.1   c0,0-0.1-0.1-0.1-0.1c0,0-0.1-0.1-0.1-0.2h0c0,0.1,0,0.1,0,0.2c0,0,0,0.1,0,0.2c0.1,0.1,0.2,0.1,0.3,0.2   C18.1,26.3,18.2,26.3,18.4,26.3"/>
	<path class="st0" d="M20.4,25.7c0,0.2,0,0.3,0,0.5c0.1,0,0.3,0,0.4,0h0.4h0.4c0.1,0,0.3,0,0.4,0c0,0,0-0.1,0-0.1s0-0.1,0-0.1   c-0.2,0-0.4,0-0.6,0c-0.2,0-0.4,0-0.6,0c0-0.2,0-0.4,0-0.7c0-0.3,0-0.6,0-0.9c0-0.2,0-0.4,0-0.5c0-0.2,0-0.3,0-0.5c0,0-0.1,0-0.1,0   c0,0-0.1,0-0.1,0c0,0-0.1,0-0.1,0c0,0-0.1,0-0.1,0c0,0.2,0,0.4,0,0.5c0,0.2,0,0.3,0,0.5v0.7C20.4,25.4,20.4,25.6,20.4,25.7"/>
	<path class="st0" d="M24,25c-0.1,0-0.2,0-0.2,0s-0.1,0-0.2,0c-0.1,0-0.2,0-0.2,0l0.4-1l0.5,1C24.2,25,24.1,25,24,25 M25,26.3h0.1   c0,0,0.1,0,0.1,0c0-0.1-0.1-0.2-0.1-0.3c-0.1-0.1-0.1-0.3-0.2-0.4c-0.1-0.2-0.1-0.3-0.2-0.5s-0.2-0.4-0.2-0.6s-0.2-0.4-0.2-0.6   c-0.1-0.2-0.1-0.4-0.2-0.5h-0.1c-0.2,0.5-0.4,1-0.6,1.5s-0.4,1-0.7,1.4c0,0,0.1,0,0.2,0c0,0,0.1,0,0.2,0c0-0.1,0.1-0.3,0.2-0.5   c0.1-0.2,0.2-0.4,0.2-0.6c0.1,0,0.2,0,0.3,0c0.1,0,0.2,0,0.3,0c0.1,0,0.2,0,0.3,0c0.1,0,0.2,0,0.3,0c0,0.1,0.1,0.2,0.1,0.3   c0,0.1,0.1,0.2,0.1,0.3c0,0.1,0.1,0.2,0.1,0.3c0,0.1,0.1,0.2,0.1,0.2C24.8,26.3,24.8,26.3,25,26.3C24.9,26.3,25,26.3,25,26.3z"/>
	<path class="st0" d="M28.4,26.3v-0.1c0-0.1,0-0.1,0-0.2s0-0.2,0-0.3c0-0.1,0-0.2,0-0.3c0-0.1,0-0.2,0-0.3v-0.3c0-0.1,0-0.2,0-0.3   c0-0.1,0-0.3,0-0.4c0-0.1,0-0.3,0-0.4c0-0.1,0-0.2,0-0.3c-0.1,0-0.1,0-0.1,0s-0.1,0-0.1,0c0,0.2,0,0.5,0,0.8c0,0.3,0,0.6,0,0.8v0.6   c-0.1-0.1-0.3-0.3-0.4-0.5c-0.2-0.2-0.3-0.4-0.5-0.6c-0.2-0.2-0.4-0.4-0.6-0.6c-0.2-0.2-0.4-0.4-0.5-0.6h-0.1c0,0.1,0,0.2,0,0.4   c0,0.2,0,0.4,0,0.7c0,0.1,0,0.2,0,0.3c0,0.1,0,0.2,0,0.3c0,0.1,0,0.2,0,0.4c0,0.1,0,0.2,0,0.3c0,0.1,0,0.2,0,0.3s0,0.1,0,0.2   c0,0,0.1,0,0.2,0c0,0,0.1,0,0.1,0c0,0,0-0.1,0-0.1c0-0.1,0-0.1,0-0.2c0-0.1,0-0.2,0-0.3c0-0.1,0-0.2,0-0.3c0-0.1,0-0.2,0-0.3   s0-0.2,0-0.2c0-0.2,0-0.4,0-0.5c0-0.1,0-0.2,0-0.3c0.4,0.4,0.7,0.8,1.1,1.1C27.8,25.5,28.1,25.9,28.4,26.3L28.4,26.3L28.4,26.3z"/>
	<path class="st0" d="M31.7,25.5c-0.1,0.2-0.2,0.3-0.3,0.4C31.3,26,31.2,26,31,26.1c-0.2,0-0.3,0-0.5,0c-0.1,0-0.2,0-0.3,0   c-0.1,0-0.2,0-0.2,0c0-0.3,0-0.6,0-0.9v-0.7c0-0.1,0-0.3,0-0.4c0-0.1,0-0.3,0-0.4c0.1,0,0.2,0,0.3,0s0.2,0,0.3,0c0.2,0,0.3,0,0.5,0   c0.1,0,0.3,0.1,0.4,0.2c0.1,0.1,0.2,0.2,0.2,0.4c0.1,0.2,0.1,0.3,0.1,0.6C31.9,25.1,31.8,25.3,31.7,25.5 M32.2,24.2   c0-0.2-0.1-0.3-0.2-0.4c-0.1-0.1-0.3-0.2-0.4-0.3c-0.2-0.1-0.4-0.1-0.6-0.1c-0.1,0-0.2,0-0.3,0c-0.1,0-0.2,0-0.3,0s-0.2,0-0.3,0   c-0.1,0-0.2,0-0.3,0c0,0.2,0,0.4,0,0.5c0,0.2,0,0.3,0,0.5v0.7c0,0.2,0,0.4,0,0.5c0,0.2,0,0.3,0,0.5c0.1,0,0.2,0,0.3,0h0.3   c0.1,0,0.2,0,0.3,0s0.2,0,0.3,0c0.2,0,0.3,0,0.5-0.1c0.2,0,0.3-0.1,0.5-0.3c0.1-0.1,0.3-0.3,0.4-0.5c0.1-0.2,0.1-0.4,0.1-0.7   C32.3,24.6,32.2,24.4,32.2,24.2"/>
	<path class="st0" d="M3.9,28c0.1-0.1,0.2-0.2,0.4-0.2c0.1,0,0.3-0.1,0.5-0.1c0.1,0,0.2,0,0.3,0c0.1,0,0.2,0.1,0.2,0.1   c0.1,0,0.1,0.1,0.2,0.1c0,0,0.1,0.1,0.1,0.1l0,0c0,0,0-0.1,0-0.2c0-0.1,0-0.1,0-0.2c-0.1,0-0.3-0.1-0.4-0.1s-0.3-0.1-0.5-0.1   c-0.2,0-0.4,0-0.6,0.1c-0.2,0.1-0.3,0.2-0.5,0.3c-0.1,0.1-0.2,0.3-0.3,0.5c-0.1,0.2-0.1,0.4-0.1,0.6c0,0.2,0,0.4,0.1,0.6   c0.1,0.2,0.2,0.3,0.3,0.5c0.1,0.1,0.3,0.2,0.5,0.3c0.2,0.1,0.4,0.1,0.6,0.1c0.1,0,0.2,0,0.3,0c0.1,0,0.2,0,0.3-0.1   c0.1,0,0.1,0,0.2-0.1c0,0,0.1,0,0.1-0.1l0-0.2l0,0c0,0-0.1,0.1-0.1,0.1c-0.1,0-0.1,0.1-0.2,0.1c-0.1,0-0.1,0.1-0.2,0.1   c-0.1,0-0.2,0-0.3,0c-0.2,0-0.3,0-0.5-0.1c-0.1,0-0.3-0.1-0.4-0.2c-0.1-0.1-0.2-0.3-0.2-0.4c-0.1-0.2-0.1-0.4-0.1-0.6   s0-0.4,0.1-0.6C3.7,28.2,3.8,28.1,3.9,28"/>
	<path class="st0" d="M7.2,28.9c0,0-0.1,0-0.2,0c0,0-0.1,0-0.1,0v-0.2c0-0.1,0-0.3,0-0.4c0-0.1,0-0.3,0-0.4c0,0,0.1,0,0.2,0   s0.1,0,0.2,0c0.1,0,0.1,0,0.2,0c0.1,0,0.1,0,0.2,0.1c0.1,0,0.1,0.1,0.2,0.2C8,28.1,8,28.2,8,28.3c0,0.1,0,0.2-0.1,0.3   c0,0.1-0.1,0.1-0.2,0.2c-0.1,0-0.2,0.1-0.3,0.1C7.4,28.9,7.3,28.9,7.2,28.9 M8.3,30c-0.1-0.1-0.1-0.2-0.2-0.3   c-0.1-0.1-0.2-0.2-0.2-0.3c-0.1-0.1-0.1-0.2-0.2-0.3C7.6,29.1,7.5,29,7.5,29c0.1,0,0.2,0,0.3-0.1c0.1,0,0.2-0.1,0.3-0.1   c0.1-0.1,0.2-0.1,0.2-0.2c0.1-0.1,0.1-0.2,0.1-0.3c0-0.1,0-0.2-0.1-0.3c0-0.1-0.1-0.1-0.2-0.2c-0.1,0-0.2-0.1-0.3-0.1   c-0.1,0-0.2,0-0.3,0c-0.1,0-0.2,0-0.2,0c-0.1,0-0.2,0-0.2,0c-0.1,0-0.2,0-0.2,0c-0.1,0-0.2,0-0.2,0c0,0.2,0,0.4,0,0.5   c0,0.2,0,0.3,0,0.5v0.7c0,0.2,0,0.4,0,0.5c0,0.2,0,0.3,0,0.5c0.1,0,0.1,0,0.2,0c0.1,0,0.1,0,0.2,0c0-0.2,0-0.3,0-0.5s0-0.3,0-0.5   V29h0.2c0.1,0.1,0.2,0.2,0.3,0.3c0.1,0.1,0.2,0.3,0.3,0.4C7.8,29.9,7.9,30,8,30.1c0.1,0.1,0.1,0.2,0.2,0.3c0,0,0.1,0,0.1,0h0.1h0.1   c0,0,0.1,0,0.1,0c0,0-0.1-0.1-0.2-0.2C8.4,30.2,8.4,30.1,8.3,30"/>
	<path class="st0" d="M9.9,28.1c0-0.2,0-0.3,0-0.5c0,0-0.1,0-0.1,0c0,0-0.1,0-0.1,0c0,0-0.1,0-0.1,0s-0.1,0-0.1,0c0,0.2,0,0.4,0,0.5   c0,0.2,0,0.3,0,0.5v0.7c0,0.2,0,0.4,0,0.5c0,0.2,0,0.3,0,0.5c0.1,0,0.1,0,0.2,0c0.1,0,0.1,0,0.2,0c0-0.2,0-0.3,0-0.5s0-0.3,0-0.5   v-0.7C9.9,28.4,9.9,28.3,9.9,28.1"/>
	<path class="st0" d="M12.3,30.5c0.1,0,0.2,0,0.3,0c0.1,0,0.2,0,0.3-0.1c0.1,0,0.1,0,0.2-0.1c0,0,0.1,0,0.1-0.1l0-0.2l0,0   c0,0-0.1,0.1-0.1,0.1c-0.1,0-0.1,0.1-0.2,0.1c-0.1,0-0.1,0.1-0.2,0.1c-0.1,0-0.2,0-0.3,0c-0.2,0-0.3,0-0.5-0.1s-0.3-0.1-0.4-0.2   c-0.1-0.1-0.2-0.3-0.2-0.4c-0.1-0.2-0.1-0.4-0.1-0.6s0-0.4,0.1-0.6c0.1-0.2,0.1-0.3,0.2-0.4c0.1-0.1,0.2-0.2,0.4-0.2   c0.1,0,0.3-0.1,0.5-0.1c0.1,0,0.2,0,0.3,0c0.1,0,0.2,0.1,0.2,0.1c0.1,0,0.1,0.1,0.2,0.1c0,0,0.1,0.1,0.1,0.1l0,0c0,0,0-0.1,0-0.2   c0-0.1,0-0.1,0-0.2c-0.1,0-0.3-0.1-0.4-0.1c-0.2,0-0.3-0.1-0.5-0.1c-0.2,0-0.4,0-0.6,0.1c-0.2,0.1-0.3,0.2-0.5,0.3   c-0.1,0.1-0.2,0.3-0.3,0.5c-0.1,0.2-0.1,0.4-0.1,0.6c0,0.2,0,0.4,0.1,0.6c0.1,0.2,0.2,0.3,0.3,0.5c0.1,0.1,0.3,0.2,0.5,0.3   C11.9,30.4,12.1,30.5,12.3,30.5"/>
	<path class="st0" d="M15,28.8c0.1-0.1,0.2-0.2,0.3-0.3s0.2-0.2,0.3-0.3s0.2-0.2,0.4-0.3c0.1-0.1,0.2-0.2,0.3-0.3c0,0-0.1,0-0.1,0   c0,0-0.1,0-0.1,0c0,0,0,0-0.1,0s-0.1,0-0.1,0c-0.1,0.1-0.2,0.2-0.3,0.3c-0.1,0.1-0.2,0.2-0.3,0.3s-0.2,0.2-0.3,0.3   c-0.1,0.1-0.2,0.2-0.3,0.3c0,0,0,0-0.1,0c0,0,0,0,0,0v-0.2c0-0.2,0-0.4,0-0.5c0-0.2,0-0.3,0-0.5c0,0-0.1,0-0.1,0c0,0-0.1,0-0.1,0   c0,0-0.1,0-0.1,0c0,0-0.1,0-0.1,0c0,0.2,0,0.4,0,0.5s0,0.3,0,0.5v0.7c0,0.2,0,0.4,0,0.5c0,0.2,0,0.3,0,0.5c0.1,0,0.1,0,0.2,0   c0.1,0,0.1,0,0.2,0c0-0.2,0-0.3,0-0.5s0-0.3,0-0.5V29c0,0,0,0,0,0s0,0,0,0c0,0,0.1,0.1,0.2,0.2c0.1,0.1,0.2,0.2,0.3,0.4   c0.1,0.1,0.2,0.3,0.3,0.4c0.1,0.1,0.2,0.3,0.3,0.4c0,0,0.1,0,0.1,0h0.1h0.1c0,0,0.1,0,0.1,0c-0.2-0.3-0.5-0.5-0.7-0.8   C15.4,29.3,15.2,29.1,15,28.8"/>
	<path class="st0" d="M17.2,29.9c0,0.2,0,0.3,0,0.5c0.1,0,0.3,0,0.4,0h0.4h0.4c0.1,0,0.3,0,0.4,0c0,0,0-0.1,0-0.1c0,0,0,0,0-0.1   c0,0,0,0,0-0.1c-0.1,0-0.1,0-0.2,0c-0.1,0-0.2,0-0.3,0s-0.2,0-0.3,0h-0.3c0,0,0-0.1,0-0.2c0-0.1,0-0.2,0-0.4v-0.3v-0.2   c0,0,0-0.1,0-0.1s0-0.1,0-0.1c0,0,0.1,0,0.2,0c0.1,0,0.2,0,0.3,0c0.1,0,0.2,0,0.3,0c0.1,0,0.2,0,0.3,0c0,0,0-0.1,0-0.1   c0,0,0-0.1,0-0.1c-0.1,0-0.1,0-0.2,0c-0.1,0-0.1,0-0.2,0s-0.2,0-0.3,0c-0.1,0-0.2,0-0.3,0c0,0,0-0.1,0-0.2c0-0.1,0-0.2,0-0.3   c0-0.1,0-0.2,0-0.3s0-0.2,0-0.3c0.1,0,0.3,0,0.3,0c0.1,0,0.2,0,0.3,0s0.2,0,0.2,0s0.2,0,0.2,0c0,0,0-0.1,0-0.1s0-0.1,0-0.1   c-0.1,0-0.3,0-0.4,0c-0.1,0-0.2,0-0.4,0c-0.1,0-0.3,0-0.4,0c-0.1,0-0.3,0-0.4,0c0,0.2,0,0.3,0,0.5s0,0.3,0,0.5v0.7   C17.2,29.5,17.2,29.7,17.2,29.9"/>
	<path class="st0" d="M20.6,29.3v-0.7c0-0.3,0-0.6,0-0.9c0.1,0,0.1,0,0.2,0s0.2,0,0.2,0c0.1,0,0.2,0,0.2,0c0.1,0,0.1,0,0.2,0   c0,0,0-0.1,0-0.1s0-0.1,0-0.1c-0.2,0-0.4,0-0.5,0c-0.2,0-0.3,0-0.5,0c-0.2,0-0.4,0-0.5,0c-0.2,0-0.3,0-0.5,0c0,0.1,0,0.1,0,0.1   s0,0.1,0,0.1c0.1,0,0.1,0,0.2,0c0.1,0,0.1,0,0.2,0s0.2,0,0.2,0c0.1,0,0.2,0,0.2,0c0,0.3,0,0.6,0,0.9v0.7c0,0.2,0,0.4,0,0.5   c0,0.2,0,0.3,0,0.5c0.1,0,0.1,0,0.2,0s0.1,0,0.2,0c0-0.2,0-0.3,0-0.5C20.6,29.7,20.6,29.5,20.6,29.3"/>
	<path class="st0" d="M23.8,30.2c-0.1,0-0.1,0-0.2,0c-0.1,0-0.2,0-0.3,0c-0.1,0-0.2,0-0.3,0h-0.3c0,0,0-0.1,0-0.2c0-0.1,0-0.2,0-0.4   v-0.3v-0.2c0,0,0-0.1,0-0.1c0,0,0-0.1,0-0.1c0,0,0.1,0,0.2,0c0.1,0,0.2,0,0.3,0c0.1,0,0.2,0,0.3,0c0.1,0,0.2,0,0.3,0   c0,0,0-0.1,0-0.1s0-0.1,0-0.1c-0.1,0-0.1,0-0.2,0c-0.1,0-0.1,0-0.2,0c-0.1,0-0.2,0-0.3,0c-0.1,0-0.2,0-0.3,0c0,0,0-0.1,0-0.2   c0-0.1,0-0.2,0-0.3c0-0.1,0-0.2,0-0.3s0-0.2,0-0.3c0.1,0,0.3,0,0.3,0c0.1,0,0.2,0,0.3,0c0.1,0,0.2,0,0.2,0s0.2,0,0.2,0   c0,0,0-0.1,0-0.1c0,0,0-0.1,0-0.1c-0.1,0-0.3,0-0.4,0c-0.1,0-0.2,0-0.4,0c-0.1,0-0.3,0-0.4,0c-0.1,0-0.3,0-0.4,0c0,0.2,0,0.3,0,0.5   c0,0.2,0,0.3,0,0.5v0.7c0,0.2,0,0.4,0,0.5c0,0.2,0,0.3,0,0.5c0.1,0,0.3,0,0.4,0h0.4h0.4c0.1,0,0.3,0,0.4,0   C23.8,30.3,23.8,30.3,23.8,30.2C23.8,30.2,23.8,30.2,23.8,30.2C23.8,30.2,23.8,30.2,23.8,30.2"/>
	<path class="st0" d="M25.4,28.9c-0.1,0-0.1,0-0.2,0c0,0-0.1,0-0.1,0v-0.2c0-0.1,0-0.3,0-0.4c0-0.1,0-0.3,0-0.4c0,0,0.1,0,0.2,0   c0.1,0,0.1,0,0.2,0c0.1,0,0.1,0,0.2,0c0.1,0,0.1,0,0.2,0.1c0.1,0,0.1,0.1,0.2,0.2c0,0.1,0.1,0.2,0.1,0.3c0,0.1,0,0.2-0.1,0.3   c0,0.1-0.1,0.1-0.2,0.2c-0.1,0-0.2,0.1-0.3,0.1C25.6,28.9,25.5,28.9,25.4,28.9 M26.5,30c-0.1-0.1-0.1-0.2-0.2-0.3s-0.2-0.2-0.2-0.3   c-0.1-0.1-0.1-0.2-0.2-0.3c-0.1-0.1-0.1-0.1-0.1-0.2c0.1,0,0.2,0,0.3-0.1s0.2-0.1,0.3-0.1s0.2-0.1,0.2-0.2c0.1-0.1,0.1-0.2,0.1-0.3   c0-0.1,0-0.2-0.1-0.3c0-0.1-0.1-0.1-0.2-0.2c-0.1,0-0.2-0.1-0.3-0.1c-0.1,0-0.2,0-0.3,0c-0.1,0-0.2,0-0.2,0c-0.1,0-0.2,0-0.2,0   c-0.1,0-0.2,0-0.2,0s-0.2,0-0.2,0c0,0.2,0,0.4,0,0.5c0,0.2,0,0.3,0,0.5v0.7c0,0.2,0,0.4,0,0.5c0,0.2,0,0.3,0,0.5c0.1,0,0.1,0,0.2,0   s0.1,0,0.2,0c0-0.2,0-0.3,0-0.5s0-0.3,0-0.5V29h0.2c0.1,0.1,0.2,0.2,0.3,0.3c0.1,0.1,0.2,0.3,0.3,0.4c0.1,0.1,0.2,0.3,0.3,0.4   c0.1,0.1,0.1,0.2,0.2,0.3c0,0,0.1,0,0.1,0h0.1h0.1c0,0,0.1,0,0.1,0c0,0-0.1-0.1-0.2-0.2C26.7,30.2,26.6,30.1,26.5,30"/>
	<path class="st0" d="M28.9,29c-0.1-0.1-0.2-0.1-0.3-0.1c-0.1,0-0.2-0.1-0.3-0.1c-0.1,0-0.2-0.1-0.2-0.2c-0.1-0.1-0.1-0.2-0.1-0.3   c0-0.1,0-0.1,0-0.2c0-0.1,0.1-0.1,0.1-0.2c0,0,0.1-0.1,0.2-0.1c0.1,0,0.1,0,0.2,0c0.1,0,0.1,0,0.2,0c0.1,0,0.1,0.1,0.1,0.1   c0,0,0.1,0.1,0.1,0.1c0,0,0,0.1,0.1,0.1h0c0-0.1,0-0.1,0-0.2c0,0,0-0.1,0.1-0.1c-0.1-0.1-0.2-0.1-0.3-0.1s-0.2,0-0.3,0   s-0.3,0-0.4,0.1c-0.1,0-0.2,0.1-0.3,0.2c-0.1,0.1-0.1,0.2-0.2,0.3c0,0.1-0.1,0.2-0.1,0.3c0,0.2,0,0.3,0.1,0.4   c0.1,0.1,0.1,0.2,0.2,0.2c0.1,0.1,0.2,0.1,0.3,0.2s0.2,0.1,0.3,0.1c0.1,0,0.2,0.1,0.2,0.2c0.1,0.1,0.1,0.2,0.1,0.3   c0,0.1,0,0.2,0,0.2c0,0.1-0.1,0.1-0.1,0.2c0,0-0.1,0.1-0.2,0.1s-0.2,0-0.3,0s-0.2,0-0.2,0c-0.1,0-0.1-0.1-0.2-0.1   c0,0-0.1-0.1-0.1-0.1c0,0-0.1-0.1-0.1-0.2l0,0c0,0.1,0,0.1,0,0.2c0,0,0,0.1,0,0.2c0.1,0.1,0.2,0.1,0.3,0.2c0.1,0,0.2,0.1,0.4,0.1   c0.2,0,0.3,0,0.4-0.1c0.1,0,0.2-0.1,0.3-0.2c0.1-0.1,0.2-0.2,0.2-0.3c0-0.1,0.1-0.2,0.1-0.4c0-0.2,0-0.3-0.1-0.4   C29.1,29.1,29,29,28.9,29"/>
	<path class="st0" d="M12,32.1c0.1-0.1,0.2-0.2,0.4-0.2c0.1,0,0.3-0.1,0.5-0.1c0.1,0,0.2,0,0.3,0c0.1,0,0.2,0.1,0.2,0.1   c0.1,0,0.1,0.1,0.2,0.1s0.1,0.1,0.1,0.1l0,0c0,0,0-0.1,0-0.2c0-0.1,0-0.1,0-0.2c-0.1,0-0.3-0.1-0.4-0.1c-0.2,0-0.3-0.1-0.5-0.1   c-0.2,0-0.4,0-0.6,0.1c-0.2,0.1-0.3,0.2-0.5,0.3c-0.1,0.1-0.2,0.3-0.3,0.5c-0.1,0.2-0.1,0.4-0.1,0.6c0,0.2,0,0.4,0.1,0.6   c0.1,0.2,0.2,0.3,0.3,0.5c0.1,0.1,0.3,0.2,0.5,0.3c0.2,0.1,0.4,0.1,0.6,0.1c0.1,0,0.2,0,0.3,0s0.2,0,0.3-0.1c0.1,0,0.1,0,0.2-0.1   c0,0,0.1,0,0.1-0.1l0-0.2l0,0c0,0-0.1,0.1-0.1,0.1c-0.1,0-0.1,0.1-0.2,0.1c-0.1,0-0.1,0.1-0.2,0.1c-0.1,0-0.2,0-0.3,0   c-0.2,0-0.3,0-0.5-0.1s-0.3-0.1-0.4-0.2s-0.2-0.3-0.2-0.4c-0.1-0.2-0.1-0.4-0.1-0.6s0-0.4,0.1-0.6C11.8,32.4,11.9,32.2,12,32.1"/>
	<path class="st0" d="M15.6,34.3c-0.2,0-0.4,0-0.6,0c0-0.2,0-0.4,0-0.7c0-0.3,0-0.6,0-0.9c0-0.2,0-0.4,0-0.5c0-0.2,0-0.3,0-0.5   c0,0-0.1,0-0.1,0c0,0-0.1,0-0.1,0c0,0-0.1,0-0.1,0c0,0-0.1,0-0.1,0c0,0.2,0,0.4,0,0.5s0,0.3,0,0.5v0.7c0,0.2,0,0.4,0,0.5   c0,0.2,0,0.3,0,0.5c0.1,0,0.3,0,0.4,0h0.4h0.4c0.1,0,0.3,0,0.4,0c0,0,0-0.1,0-0.1c0,0,0-0.1,0-0.1C16,34.3,15.8,34.3,15.6,34.3"/>
	<path class="st0" d="M19.4,31.7C19.3,31.7,19.3,31.7,19.4,31.7c-0.1,0.1-0.1,0.2-0.1,0.4c0,0.2,0,0.5,0,0.9c0,0.1,0,0.2,0,0.3   c0,0.1,0,0.2,0,0.3c0,0.1,0,0.2-0.1,0.3c0,0.1-0.1,0.2-0.2,0.3c-0.1,0.1-0.2,0.1-0.3,0.2c-0.1,0-0.2,0.1-0.4,0.1   c-0.2,0-0.3,0-0.4-0.1c-0.1,0-0.2-0.1-0.3-0.2c-0.1-0.1-0.1-0.1-0.2-0.2c0-0.1-0.1-0.2-0.1-0.3c0-0.1,0-0.2,0-0.3   c0-0.1,0-0.2,0-0.3c0-0.2,0-0.3,0-0.4c0-0.1,0-0.3,0-0.4c0-0.1,0-0.2,0-0.3s0-0.2,0-0.2c0,0-0.1,0-0.1,0c0,0-0.1,0-0.1,0   c0,0-0.1,0-0.1,0c0,0-0.1,0-0.1,0c0,0.1,0,0.3,0,0.5c0,0.2,0,0.4,0,0.6c0,0.1,0,0.2,0,0.3c0,0.1,0,0.2,0,0.3c0,0.4,0.1,0.7,0.3,0.9   c0.2,0.2,0.5,0.3,0.9,0.3c0.2,0,0.3,0,0.5-0.1c0.1,0,0.3-0.1,0.4-0.2c0.1-0.1,0.2-0.2,0.2-0.4c0-0.1,0.1-0.3,0.1-0.5   c0-0.2,0-0.3,0-0.5c0-0.2,0-0.3,0-0.5s0-0.3,0-0.4c0-0.1,0-0.3,0-0.3C19.5,31.7,19.4,31.7,19.4,31.7C19.4,31.7,19.4,31.7,19.4,31.7   "/>
	<path class="st0" d="M22.1,34c0,0.1-0.1,0.2-0.1,0.2s-0.1,0.1-0.2,0.1c-0.1,0-0.2,0-0.3,0c-0.1,0-0.1,0-0.2,0s-0.1,0-0.2,0   c0-0.1,0-0.3,0-0.4c0-0.1,0-0.3,0-0.4v-0.4h0.2c0.1,0,0.3,0,0.4,0c0.1,0,0.2,0,0.3,0.1c0.1,0,0.1,0.1,0.2,0.2   c0,0.1,0.1,0.2,0.1,0.3C22.2,33.8,22.2,33.9,22.1,34 M21.1,32.7c0-0.1,0-0.3,0-0.4c0-0.1,0-0.3,0-0.4c0,0,0.1,0,0.1,0   c0,0,0.1,0,0.2,0c0.1,0,0.2,0,0.2,0c0.1,0,0.2,0,0.2,0.1c0.1,0,0.1,0.1,0.2,0.2s0.1,0.2,0.1,0.3s0,0.2-0.1,0.3   c0,0.1-0.1,0.1-0.2,0.2c-0.1,0-0.2,0.1-0.3,0.1c-0.1,0-0.2,0-0.3,0h-0.2V32.7z M22.4,33.2C22.2,33.1,22,33,21.8,33v0   c0.2,0,0.4-0.1,0.5-0.2c0.1-0.1,0.2-0.3,0.2-0.5c0-0.1,0-0.2-0.1-0.3s-0.1-0.1-0.2-0.2c-0.1,0-0.2-0.1-0.3-0.1c-0.1,0-0.2,0-0.3,0   c-0.1,0-0.1,0-0.2,0c-0.1,0-0.1,0-0.2,0c-0.1,0-0.1,0-0.2,0c-0.1,0-0.1,0-0.2,0c0,0.2,0,0.3,0,0.5c0,0.2,0,0.3,0,0.5v0.7   c0,0.2,0,0.4,0,0.5c0,0.2,0,0.3,0,0.5c0.1,0,0.1,0,0.2,0h0.2c0.1,0,0.1,0,0.2,0c0.1,0,0.1,0,0.2,0c0.1,0,0.2,0,0.4,0   c0.1,0,0.2-0.1,0.3-0.1c0.1-0.1,0.2-0.1,0.3-0.3c0.1-0.1,0.1-0.2,0.1-0.4C22.6,33.5,22.5,33.3,22.4,33.2"/>
	<path class="st0" d="M30.2,27.5c-0.1,0-0.2,0.1-0.2,0.2v1c0,0.1,0.1,0.2,0.2,0.2c0.1,0,0.2-0.1,0.2-0.2v-1   C30.4,27.6,30.3,27.5,30.2,27.5"/>
	<path class="st0" d="M14.6,18c0-1.4,1.9-2.5,4.1-3.1L18,14.2c-3.7,0.7-6,1.8-6.4,3.2c0,0.1,0,0.2,0,0.4c0,0.1,0,0.2,0,0.2   c0.3,1.3,2.8,2.7,6.2,3.3l0.1-0.4C15.9,20.3,14.6,19.2,14.6,18"/>
	<path class="st0" d="M30.5,14.2c0-2.3-6.1-4.2-13.6-4.2S3.3,11.9,3.3,14.2c0,1.7,3.4,3.3,8.3,3.9c0-0.1,0-0.2,0-0.2   c0-0.1,0-0.2,0-0.4c-2.4-0.5-4-1.4-4-2.4c0-1.6,4.2-2.9,9.3-2.9s9.3,1.3,9.3,2.9c0,1.3-2.6,2.3-6.3,2.7c0.6-0.4,1.4-0.7,2.3-0.9   l-1.8-2.2c-3.2,0.7-5.7,1.9-5.7,3.3c0,1.5,2.3,2.5,5.6,3.3l0.2-0.3c-1.1-0.5-1.8-1.1-1.8-1.8c0-0.3,0.2-0.6,0.4-0.9   C25.7,18,30.5,16.3,30.5,14.2"/>
</g>
</svg>