<svg xmlns="http://www.w3.org/2000/svg" width="17.927" height="18.3" viewBox="0 0 17.927 18.3">
  <g id="calendar_3_" data-name="calendar (3)" transform="translate(-5.411)">
    <g id="Group_1823" data-name="Group 1823" transform="translate(5.411)">
      <path id="Path_66220" data-name="Path 66220" d="M119.319,258.658a.416.416,0,0,0-.416-.416h-1.452a.416.416,0,0,0-.416.416v1.452a.416.416,0,0,0,.416.416H118.9a.416.416,0,0,0,.416-.416v-1.452Z" transform="translate(-112.843 -248.543)" fill="#828282"/>
      <path id="Path_66221" data-name="Path 66221" d="M215.954,258.658a.416.416,0,0,0-.416-.416h-1.452a.416.416,0,0,0-.416.416v1.452a.416.416,0,0,0,.416.416h1.452a.416.416,0,0,0,.416-.416Z" transform="translate(-205.849 -248.543)" fill="#828282"/>
      <path id="Path_66222" data-name="Path 66222" d="M312.582,258.658a.416.416,0,0,0-.416-.416h-1.452a.416.416,0,0,0-.416.416v1.452a.416.416,0,0,0,.416.416h1.452a.416.416,0,0,0,.416-.416Z" transform="translate(-298.847 -248.543)" fill="#828282"/>
      <path id="Path_66223" data-name="Path 66223" d="M119.319,355.291a.416.416,0,0,0-.416-.416h-1.452a.416.416,0,0,0-.416.416v1.452a.416.416,0,0,0,.416.416H118.9a.416.416,0,0,0,.416-.416v-1.452Z" transform="translate(-112.843 -341.547)" fill="#828282"/>
      <path id="Path_66224" data-name="Path 66224" d="M215.954,355.291a.416.416,0,0,0-.416-.416h-1.452a.416.416,0,0,0-.416.416v1.452a.416.416,0,0,0,.416.416h1.452a.416.416,0,0,0,.416-.416Z" transform="translate(-205.849 -341.547)" fill="#828282"/>
      <path id="Path_66225" data-name="Path 66225" d="M312.582,355.291a.416.416,0,0,0-.416-.416h-1.452a.416.416,0,0,0-.416.416v1.452a.416.416,0,0,0,.416.416h1.452a.416.416,0,0,0,.416-.416v-1.452Z" transform="translate(-298.847 -341.547)" fill="#828282"/>
      <path id="Path_66226" data-name="Path 66226" d="M21.742,54.15v2.218a1.811,1.811,0,0,1-1.815,1.81H18.782a1.821,1.821,0,0,1-1.826-1.81V54.142H11.794v2.226a1.821,1.821,0,0,1-1.826,1.81H8.822a1.811,1.811,0,0,1-1.815-1.81V54.15a1.651,1.651,0,0,0-1.6,1.642v13a1.652,1.652,0,0,0,1.643,1.653h14.64a1.653,1.653,0,0,0,1.643-1.653v-13A1.651,1.651,0,0,0,21.742,54.15ZM21.21,67.98a.711.711,0,0,1-.71.71H8.218a.711.711,0,0,1-.71-.71V61.266a.711.711,0,0,1,.71-.711H20.5a.711.711,0,0,1,.71.711V67.98Z" transform="translate(-5.411 -52.142)" fill="#828282"/>
      <path id="Path_66227" data-name="Path 66227" d="M80.173,4.88h1.133a.622.622,0,0,0,.623-.622V.622A.622.622,0,0,0,81.305,0H80.173a.622.622,0,0,0-.623.622V4.258A.622.622,0,0,0,80.173,4.88Z" transform="translate(-76.766)" fill="#828282"/>
      <path id="Path_66228" data-name="Path 66228" d="M345.081,4.88h1.133a.622.622,0,0,0,.622-.622V.622A.622.622,0,0,0,346.213,0h-1.133a.623.623,0,0,0-.623.622V4.258A.622.622,0,0,0,345.081,4.88Z" transform="translate(-331.724)" fill="#828282"/>
    </g>
  </g>
</svg>
